<?xml version="1.0" encoding="utf-8"?>
<!-- Generator: Adobe Illustrator 19.2.0, SVG Export Plug-In . SVG Version: 6.00 Build 0)  -->
<svg version="1.1" id="Items" xmlns="http://www.w3.org/2000/svg" xmlns:xlink="http://www.w3.org/1999/xlink" x="0px" y="0px"
	 viewBox="0 0 335.99 235.19" style="enable-background:new 0 0 335.99 235.19;" xml:space="preserve">
<style type="text/css">
	.st0{fill:#F69777;}
	.st1{fill:#DADADA;}
	.st2{fill:#B2E1EE;}
	.st3{fill:#586773;}
	.st4{opacity:0.3;}
	.st5{fill:#FFFFFF;}
	.st6{fill:none;}
	.st7{fill:url(#SVGID_1_);}
	.st8{fill:#BCB8BE;}
	.st9{fill:#D2CFD6;}
	.st10{fill:#333333;}
	.st11{fill:url(#SVGID_2_);}
	.st12{opacity:0.5;fill:#DADADA;}
	.st13{fill:url(#SVGID_3_);}
	.st14{fill:url(#SVGID_4_);}
	.st15{fill:url(#SVGID_5_);}
	.st16{fill:url(#SVGID_6_);}
	.st17{fill:#FAB952;}
</style>
<rect id="background" class="st0" width="335.99" height="235.19"/>
<g id="paper">
	<polygon class="st1" points="13.77,22.63 13.77,43.08 13.77,214.97 153.35,214.97 153.35,43.08 153.35,22.63 	"/>
	<polygon class="st2" points="9.61,22.63 9.61,43.08 9.61,214.97 149.19,214.97 149.19,43.08 149.19,22.63 	"/>
	<g>
		<path class="st3" d="M9.87,199.55c-1.8,0-3.27,1.47-3.27,3.27c0,1.71,1.33,3.12,3.01,3.26v-1.11c-1.07-0.13-1.9-1.04-1.9-2.15
			c0-1.19,0.97-2.16,2.16-2.16c1.11,0,2.02,0.83,2.15,1.9h1.11C13,200.88,11.59,199.55,9.87,199.55z"/>
		<path class="st3" d="M9.87,190.59c-1.8,0-3.27,1.47-3.27,3.27c0,1.71,1.33,3.12,3.01,3.26v-1.11c-1.07-0.13-1.9-1.04-1.9-2.15
			c0-1.19,0.97-2.16,2.16-2.16c1.11,0,2.02,0.83,2.15,1.9h1.11C13,191.91,11.59,190.59,9.87,190.59z"/>
		<path class="st3" d="M9.87,181.62c-1.8,0-3.27,1.47-3.27,3.27c0,1.72,1.33,3.13,3.01,3.26v-1.11c-1.07-0.13-1.9-1.04-1.9-2.15
			c0-1.19,0.97-2.16,2.16-2.16c1.11,0,2.02,0.83,2.15,1.9h1.11C13,182.95,11.59,181.62,9.87,181.62z"/>
		<path class="st3" d="M9.87,172.66c-1.8,0-3.27,1.47-3.27,3.27c0,1.71,1.33,3.12,3.01,3.26v-1.11c-1.07-0.13-1.9-1.04-1.9-2.15
			c0-1.19,0.97-2.16,2.16-2.16c1.11,0,2.02,0.83,2.15,1.9h1.11C13,173.98,11.59,172.66,9.87,172.66z"/>
		<path class="st3" d="M9.87,163.69c-1.8,0-3.27,1.47-3.27,3.27c0,1.71,1.33,3.12,3.01,3.26v-1.11c-1.07-0.13-1.9-1.04-1.9-2.15
			c0-1.19,0.97-2.16,2.16-2.16c1.11,0,2.02,0.83,2.15,1.9h1.11C13,165.02,11.59,163.69,9.87,163.69z"/>
		<path class="st3" d="M9.87,154.73c-1.8,0-3.27,1.47-3.27,3.27c0,1.71,1.33,3.12,3.01,3.26v-1.11c-1.07-0.13-1.9-1.04-1.9-2.15
			c0-1.19,0.97-2.16,2.16-2.16c1.11,0,2.02,0.83,2.15,1.9h1.11C13,156.06,11.59,154.73,9.87,154.73z"/>
		<path class="st3" d="M9.87,145.76c-1.8,0-3.27,1.47-3.27,3.27c0,1.71,1.33,3.12,3.01,3.26v-1.11c-1.07-0.13-1.9-1.04-1.9-2.15
			c0-1.19,0.97-2.16,2.16-2.16c1.11,0,2.02,0.83,2.15,1.9h1.11C13,147.09,11.59,145.76,9.87,145.76z"/>
		<path class="st3" d="M9.87,136.8c-1.8,0-3.27,1.47-3.27,3.27c0,1.72,1.33,3.13,3.01,3.26v-1.11c-1.07-0.13-1.9-1.04-1.9-2.15
			c0-1.19,0.97-2.16,2.16-2.16c1.11,0,2.02,0.83,2.15,1.9h1.11C13,138.13,11.59,136.8,9.87,136.8z"/>
		<path class="st3" d="M9.87,127.83c-1.8,0-3.27,1.47-3.27,3.27c0,1.71,1.33,3.12,3.01,3.26v-1.11c-1.07-0.13-1.9-1.04-1.9-2.15
			c0-1.19,0.97-2.16,2.16-2.16c1.11,0,2.02,0.83,2.15,1.9h1.11C13,129.16,11.59,127.83,9.87,127.83z"/>
		<path class="st3" d="M9.87,118.87c-1.8,0-3.27,1.47-3.27,3.28c0,1.71,1.33,3.12,3.01,3.26v-1.11c-1.07-0.13-1.9-1.04-1.9-2.15
			c0-1.19,0.97-2.17,2.16-2.17c1.11,0,2.02,0.83,2.15,1.9h1.11C13,120.2,11.59,118.87,9.87,118.87z"/>
		<path class="st3" d="M9.87,109.9c-1.8,0-3.27,1.47-3.27,3.27c0,1.71,1.33,3.12,3.01,3.26v-1.11c-1.07-0.13-1.9-1.04-1.9-2.15
			c0-1.19,0.97-2.16,2.16-2.16c1.11,0,2.02,0.83,2.15,1.9h1.11C13,111.23,11.59,109.9,9.87,109.9z"/>
		<path class="st3" d="M9.87,100.94c-1.8,0-3.27,1.47-3.27,3.27c0,1.71,1.33,3.12,3.01,3.26v-1.11c-1.07-0.13-1.9-1.04-1.9-2.15
			c0-1.19,0.97-2.16,2.16-2.16c1.11,0,2.02,0.83,2.15,1.9h1.11C13,102.26,11.59,100.94,9.87,100.94z"/>
		<path class="st3" d="M9.87,91.97c-1.8,0-3.27,1.47-3.27,3.27c0,1.71,1.33,3.12,3.01,3.26v-1.11c-1.07-0.13-1.9-1.04-1.9-2.15
			c0-1.19,0.97-2.16,2.16-2.16c1.11,0,2.02,0.83,2.15,1.9h1.11C13,93.3,11.59,91.97,9.87,91.97z"/>
		<path class="st3" d="M9.87,83.01c-1.8,0-3.27,1.47-3.27,3.27c0,1.72,1.33,3.13,3.01,3.26v-1.11c-1.07-0.13-1.9-1.04-1.9-2.15
			c0-1.19,0.97-2.16,2.16-2.16c1.11,0,2.02,0.83,2.15,1.9h1.11C13,84.33,11.59,83.01,9.87,83.01z"/>
		<path class="st3" d="M9.87,74.04c-1.8,0-3.27,1.47-3.27,3.27c0,1.71,1.33,3.12,3.01,3.26v-1.11c-1.07-0.13-1.9-1.04-1.9-2.15
			c0-1.19,0.97-2.16,2.16-2.16c1.11,0,2.02,0.83,2.15,1.9h1.11C13,75.37,11.59,74.04,9.87,74.04z"/>
		<path class="st3" d="M9.87,65.08c-1.8,0-3.27,1.47-3.27,3.27c0,1.71,1.33,3.12,3.01,3.26V70.5c-1.07-0.13-1.9-1.04-1.9-2.15
			c0-1.19,0.97-2.16,2.16-2.16c1.11,0,2.02,0.83,2.15,1.9h1.11C13,66.41,11.59,65.08,9.87,65.08z"/>
		<path class="st3" d="M9.87,56.11c-1.8,0-3.27,1.47-3.27,3.27c0,1.71,1.33,3.12,3.01,3.26v-1.11c-1.07-0.13-1.9-1.04-1.9-2.15
			c0-1.19,0.97-2.16,2.16-2.16c1.11,0,2.02,0.83,2.15,1.9h1.11C13,57.44,11.59,56.11,9.87,56.11z"/>
		<path class="st3" d="M9.87,47.15c-1.8,0-3.27,1.47-3.27,3.27c0,1.72,1.33,3.13,3.01,3.26v-1.11c-1.07-0.13-1.9-1.04-1.9-2.15
			c0-1.19,0.97-2.16,2.16-2.16c1.11,0,2.02,0.83,2.15,1.9h1.11C13,48.48,11.59,47.15,9.87,47.15z"/>
		<path class="st3" d="M9.87,38.18c-1.8,0-3.27,1.47-3.27,3.27c0,1.72,1.33,3.13,3.01,3.26v-1.11c-1.07-0.13-1.9-1.04-1.9-2.15
			c0-1.19,0.97-2.16,2.16-2.16c1.11,0,2.02,0.83,2.15,1.9h1.11C13,39.51,11.59,38.18,9.87,38.18z"/>
		<path class="st3" d="M9.87,29.22c-1.8,0-3.27,1.47-3.27,3.27c0,1.71,1.33,3.12,3.01,3.26v-1.11c-1.07-0.13-1.9-1.04-1.9-2.15
			c0-1.19,0.97-2.16,2.16-2.16c1.11,0,2.02,0.83,2.15,1.9h1.11C13,30.55,11.59,29.22,9.87,29.22z"/>
	</g>
	<g class="st4">
		<path class="st5" d="M136.72,39.96L136.72,39.96H119.1h-1.48H99.99h-1.46l-17.63,0v0h-1.47v0H61.81v0h-1.47v0H22.15h0v76.38v1.47
			v17.63v1.47v17.62V156v17.62v1.47v17.63v0.01v0.93v0.54l114.57,0v0h1.47v-1.46V39.96H136.72z M136.72,192.72H119.1v-17.63h17.62
			V192.72z M80.9,192.72v-17.63h17.63v17.63H80.9z M61.81,117.81h17.63v17.63H61.81V117.81z M80.9,117.81h17.63v17.63H80.9V117.81z
			 M80.9,116.34V98.71l17.63,0l0,17.63H80.9z M79.43,116.34l-17.63,0l0-17.63h17.62V116.34z M61.81,136.91h17.63l0,17.62H61.81
			V136.91z M80.9,136.91h17.63v17.62H80.9V136.91z M99.99,136.91h17.63v17.62H99.99V136.91z M99.99,135.44v-17.63h17.63v17.63H99.99
			z M99.99,116.34V98.71h17.63v17.63H99.99z M99.99,97.25V79.62h17.63l0,17.63H99.99z M98.53,97.25l-17.63,0V79.62l17.63,0V97.25z
			 M79.43,97.25H61.81V79.62h17.62V97.25z M60.34,97.25H42.71V79.62h17.63V97.25z M60.34,98.71v17.63H42.71V98.71H60.34z
			 M60.34,117.81v17.63H42.71v-17.63H60.34z M60.34,136.91v17.62H42.71v-17.62H60.34z M60.34,156l0,17.62H42.71V156H60.34z
			 M61.81,156h17.63v17.62H61.81V156z M80.9,156h17.63v17.62H80.9V156z M99.99,156h17.63v17.62H99.99V156z M117.62,78.15H99.99
			V60.53h17.63V78.15z M98.53,78.15H80.9V60.53h17.63V78.15z M79.43,78.15l-17.62,0V60.53h17.63L79.43,78.15z M60.34,78.16H42.71
			V60.53h17.63V78.16z M41.25,59.06H23.62V41.43h17.63V59.06z M41.25,60.53v17.63H23.62V60.53H41.25z M41.25,79.62v17.63H23.62
			V79.62H41.25z M42.71,175.09h17.63v17.63H42.71V175.09z M61.81,175.09h17.63v17.63H61.8L61.81,175.09z M99.99,175.09h17.63v17.63
			H99.99V175.09z M136.72,173.62H119.1V156h17.62V173.62z M136.72,154.53H119.1v-17.62h17.62V154.53z M136.72,135.44H119.1v-17.63
			h17.62V135.44z M136.72,116.34H119.1V98.71h17.62V116.34z M136.72,97.25H119.1V79.62h17.62V97.25z M136.72,78.15H119.1V60.53
			h17.62V78.15z M136.72,41.43v17.62H119.1V41.43H136.72z M117.62,41.43v17.62H99.99V41.43H117.62z M98.53,41.43v17.62H80.9V41.43
			H98.53z M79.43,41.43v17.62H61.81V41.43H79.43z M60.34,59.06H42.71V41.43h17.63V59.06z M23.62,98.71h17.63v17.63H23.62V98.71z
			 M23.62,117.81h17.63v17.63H23.62V117.81z M23.62,136.91h17.63v17.62H23.62V136.91z M23.62,156h17.63v17.62H23.62V156z
			 M23.62,175.09h17.63v17.63H23.62V175.09z"/>
		<rect x="22.15" y="39.96" class="st6" width="116.04" height="154.23"/>
	</g>
</g>
<g id="document">
	<polygon class="st1" points="319.6,22.63 327.57,22.63 327.57,214.97 184.19,214.97 184.19,22.63 192.15,22.63 	"/>
	<polygon class="st3" points="316.34,22.63 324.3,22.63 324.3,214.97 180.92,214.97 180.92,22.63 188.88,22.63 	"/>
	<g>
		<rect x="188.88" y="31.85" class="st5" width="127.46" height="175.15"/>
	</g>
	<g>
		<path class="st1" d="M289.23,27.45h-0.56v-1.29v-2.64h-69.76v2.64v1.33c-3.51,0.44-3.51,4.1-3.51,6.57v1.7
			c0,2.63,0,6.62,4.25,6.62h22.45c0.57,0.13,4.4,0.99,5.59,1.5c3.69,1.59,6.62,1.61,6.75,1.61l0.09-0.01c0,0,0.11,0.02,0.35,0.02
			c0.83,0,2.76-0.21,6.46-1.61c1.23-0.47,5.04-1.37,5.62-1.51h22.27c4.25,0,4.25-3.98,4.25-6.62v-1.7
			C293.48,31.44,293.48,27.45,289.23,27.45z M292.12,35.77c0,3.63-0.42,5.26-2.88,5.26h-22.34l-0.16,0.02
			c-0.18,0.04-4.46,1.05-5.87,1.58c-3.62,1.38-5.39,1.52-5.98,1.52c-0.09,0-0.15,0-0.26-0.01h-0.19c-0.11,0-2.77-0.02-6.2-1.5
			c-1.4-0.61-5.73-1.56-5.91-1.6l-22.67-0.02c-2.47,0-2.88-1.62-2.88-5.26v-1.7c0-3.23,0.34-4.87,2.15-5.19v3.86h69.76v-3.93h0.56
			c2.47,0,2.88,1.62,2.88,5.26V35.77z"/>
		<g>
			<g>
				<linearGradient id="SVGID_1_" gradientUnits="userSpaceOnUse" x1="253.2578" y1="44.6167" x2="253.2578" y2="26.5625">
					<stop  offset="0" style="stop-color:#BCB8BE"/>
					<stop  offset="1" style="stop-color:#D2CFD6"/>
				</linearGradient>
				<path class="st7" d="M253.7,44.62c-0.24,0-0.35-0.02-0.35-0.02l-0.09,0.01c-0.12,0-3.06-0.02-6.75-1.61
					c-1.19-0.52-5.02-1.37-5.59-1.5h-22.45c-4.25,0-4.25-3.98-4.25-6.62v-1.7c0-2.63,0-6.62,4.25-6.62h69.58
					c4.25,0,4.25,3.98,4.25,6.62v1.7c0,2.63,0,6.62-4.25,6.62h-22.27c-0.59,0.14-4.39,1.05-5.62,1.51
					C256.46,44.41,254.52,44.62,253.7,44.62z M218.47,27.92c-2.47,0-2.88,1.62-2.88,5.26v1.7c0,3.63,0.42,5.26,2.88,5.26l22.67,0.02
					c0.18,0.04,4.51,0.99,5.91,1.6c3.43,1.48,6.09,1.5,6.2,1.5h0.19c0.11,0.01,0.16,0.01,0.26,0.01c0.59,0,2.35-0.15,5.98-1.52
					c1.41-0.54,5.69-1.54,5.87-1.58l0.16-0.02h22.34c2.47,0,2.88-1.62,2.88-5.26v-1.7c0-3.63-0.42-5.26-2.88-5.26H218.47z"/>
			</g>
			<rect x="217.74" y="22.63" class="st8" width="69.76" height="9.22"/>
			<rect x="217.74" y="22.63" class="st5" width="69.76" height="2.64"/>
			<rect x="217.74" y="25.27" class="st9" width="69.76" height="2.65"/>
		</g>
	</g>
</g>
<g id="book">
	<path class="st1" d="M282.45,67c-0.82-1.68-2.45-2.94-4.43-3.19l-92.78-12.09c-2.71-0.35-5.25,1.26-6.16,3.73
		c-0.25-2.62-2.28-4.83-4.99-5.19L81.32,38.17c-2.19-0.29-4.26,0.71-5.46,2.41c-1.92,0.73-3.39,2.47-3.67,4.64l-0.71,5.46
		l-0.15,1.12l-0.61,4.71l-0.07,0.56l-0.63,4.82l-0.07,0.56l-0.63,4.82l-0.07,0.56l-0.63,4.82l-0.07,0.56l-0.63,4.82l-0.07,0.56
		l-0.63,4.82l-0.07,0.56l-0.63,4.82l-0.07,0.56l-0.63,4.82l-0.07,0.56l-0.63,4.82l-0.07,0.56l-0.63,4.82l-0.07,0.56l-0.63,4.82
		l-0.07,0.56l-0.63,4.81l-0.07,0.56l-0.63,4.82l-0.07,0.56l-0.63,4.82l-0.07,0.56l-0.63,4.82l-0.07,0.56l-0.63,4.82l-0.07,0.56
		l-0.63,4.82l-0.07,0.56l-0.63,4.82l-0.07,0.56l-0.63,4.82l-0.07,0.56l-0.63,4.82l-0.07,0.56l-0.63,4.82l-0.07,0.56L56,169.43
		l-0.07,0.56l-0.51,3.94c-0.41,3.14,1.83,6.05,4.97,6.46l92.78,12.09c2.19,0.28,4.26-0.71,5.46-2.4c1.54-0.59,2.79-1.82,3.37-3.41
		c0.2,2.15,1.6,4.01,3.59,4.82c0.82,1.68,2.44,2.93,4.43,3.19l92.77,12.09c3.15,0.41,6.06-1.83,6.46-4.97l0.51-3.94l0.07-0.56
		l0.63-4.82l0.07-0.56l0.63-4.82l0.07-0.56l0.63-4.82l0.07-0.56l0.63-4.82l0.07-0.56l0.63-4.82l0.07-0.56l0.63-4.82l0.07-0.56
		l0.63-4.82l0.07-0.56l0.63-4.82l0.07-0.56l0.63-4.82l0.07-0.56l0.63-4.82l0.07-0.56l0.63-4.81l0.07-0.56l0.63-4.82l0.07-0.56
		l0.63-4.82l0.07-0.56l0.63-4.82l0.07-0.56l0.63-4.82l0.07-0.56l0.63-4.82l0.07-0.56l0.63-4.82l0.07-0.56l0.63-4.82l0.08-0.56
		l0.63-4.82l0.07-0.56l0.63-4.82l0.07-0.56l0.63-4.82l0.07-0.56l0.61-4.71l0.15-1.12l0.71-5.46C286.37,70.43,284.83,67.96,282.45,67
		z"/>
	<g>
		<path class="st10" d="M278.08,66.62L185.3,54.53c-3.14-0.41-6.05,1.83-6.46,4.97l-0.71,5.46l-0.15,1.12l-0.61,4.71l-0.07,0.56
			l-0.63,4.82l-0.07,0.56l-0.63,4.82l-0.07,0.56l-0.63,4.82l-0.07,0.56l-0.63,4.82l-0.07,0.56l-0.63,4.82l-0.07,0.56l-0.63,4.82
			l-0.07,0.56l-0.63,4.82l-0.07,0.56l-0.63,4.82l-0.07,0.56l-0.63,4.82l-0.08,0.56l-0.63,4.82l-0.07,0.56l-0.63,4.81l-0.07,0.56
			l-0.63,4.82l-0.07,0.56l-0.63,4.82l-0.07,0.56l-0.63,4.82l-0.07,0.56l-0.63,4.82l-0.07,0.56l-0.63,4.82l-0.07,0.56l-0.63,4.82
			l-0.07,0.56l-0.63,4.82l-0.07,0.56l-0.63,4.82l-0.07,0.56l-0.63,4.82l-0.07,0.56l-0.63,4.82l-0.07,0.56l-0.51,3.94
			c-0.41,3.15,1.83,6.05,4.97,6.46l92.78,12.09c3.15,0.41,6.05-1.83,6.46-4.97l0.51-3.94l0.07-0.56l0.63-4.82l0.07-0.56l0.63-4.82
			l0.07-0.56l0.63-4.82l0.07-0.56l0.63-4.82l0.07-0.56l0.63-4.82l0.07-0.56l0.63-4.82l0.07-0.56l0.63-4.82l0.07-0.56l0.63-4.82
			l0.07-0.56l0.63-4.82l0.07-0.56l0.63-4.82l0.07-0.56l0.63-4.81l0.07-0.56l0.63-4.82l0.07-0.56l0.63-4.82l0.07-0.56l0.63-4.82
			l0.07-0.56l0.63-4.82l0.07-0.56l0.63-4.82l0.07-0.56l0.63-4.82l0.07-0.56l0.63-4.82l0.07-0.56l0.63-4.82l0.07-0.56l0.63-4.82
			l0.07-0.56l0.63-4.82l0.07-0.56l0.61-4.71l0.15-1.12l0.71-5.46C283.46,69.94,281.23,67.03,278.08,66.62z"/>
		<path class="st10" d="M168.46,52.33L75.68,40.24c-3.15-0.41-6.05,1.83-6.46,4.97l-0.71,5.46l-0.15,1.12l-0.61,4.71l-0.07,0.56
			l-0.63,4.82l-0.07,0.56l-0.63,4.82l-0.07,0.56l-0.63,4.82l-0.07,0.56l-0.63,4.82l-0.07,0.56l-0.63,4.82l-0.07,0.56l-0.63,4.82
			l-0.07,0.56l-0.63,4.82l-0.07,0.56l-0.63,4.82l-0.07,0.56l-0.63,4.82l-0.07,0.56l-0.63,4.82l-0.07,0.56l-0.63,4.81l-0.07,0.56
			l-0.63,4.82l-0.07,0.56l-0.63,4.82l-0.07,0.56l-0.63,4.82l-0.07,0.56l-0.63,4.82l-0.07,0.56l-0.63,4.82l-0.07,0.56l-0.63,4.82
			l-0.07,0.56l-0.63,4.82l-0.07,0.56l-0.63,4.82l-0.07,0.56l-0.63,4.82l-0.07,0.56l-0.63,4.82l-0.07,0.56l-0.51,3.94
			c-0.41,3.14,1.83,6.05,4.97,6.46l92.78,12.09c3.15,0.41,6.05-1.83,6.46-4.97l0.51-3.94l0.07-0.56l0.63-4.82l0.07-0.56l0.63-4.82
			l0.07-0.56l0.63-4.82l0.07-0.56l0.63-4.82l0.07-0.56l0.63-4.82l0.07-0.56l0.63-4.82l0.07-0.56l0.63-4.82l0.07-0.56l0.63-4.82
			l0.07-0.56l0.63-4.82l0.07-0.56l0.63-4.82l0.07-0.56l0.63-4.81l0.07-0.56l0.63-4.82l0.07-0.56l0.63-4.82l0.07-0.56l0.63-4.82
			l0.07-0.56l0.63-4.82l0.07-0.56l0.63-4.82l0.07-0.56l0.63-4.82l0.07-0.56l0.63-4.82l0.07-0.56l0.63-4.82l0.07-0.56l0.63-4.82
			l0.07-0.56l0.63-4.82l0.07-0.56l0.61-4.71l0.15-1.12l0.71-5.46C173.84,55.65,171.6,52.75,168.46,52.33z"/>
		<g>
			<g>
				
					<linearGradient id="SVGID_2_" gradientUnits="userSpaceOnUse" x1="166.2677" y1="97.0603" x2="271.3669" y2="97.0603" gradientTransform="matrix(0.9916 0.1292 -0.1292 0.9916 15.0938 3.316)">
					<stop  offset="0" style="stop-color:#FFFFFF"/>
					<stop  offset="0.4902" style="stop-color:#FDFDFD"/>
					<stop  offset="0.6882" style="stop-color:#F7F6F7"/>
					<stop  offset="0.8335" style="stop-color:#EBEAED"/>
					<stop  offset="0.9522" style="stop-color:#DBD8DE"/>
					<stop  offset="1" style="stop-color:#D2CFD6"/>
				</linearGradient>
				<path class="st11" d="M275.05,63.8l-92.78-12.09c-3.14-0.41-6.05,1.83-6.46,4.97L159.04,185.4c-0.41,3.15,1.83,6.06,4.97,6.46
					l92.77,12.09c3.15,0.41,6.05-1.83,6.47-4.97l16.77-128.71C280.44,67.12,278.2,64.21,275.05,63.8z"/>
			</g>
			
				<rect x="226.57" y="16.94" transform="matrix(0.1292 -0.9916 0.9916 0.1292 128.8748 285.7414)" class="st12" width="1.13" height="105.1"/>
			
				<rect x="226.13" y="22.49" transform="matrix(0.1292 -0.9916 0.9916 0.1292 122.7448 289.856)" class="st12" width="0.56" height="105.1"/>
			<polygon class="st12" points="277.78,87.49 173.57,73.91 173.64,73.35 277.86,86.93 			"/>
			<polygon class="st12" points="277.08,92.86 172.87,79.28 172.94,78.72 277.16,92.3 			"/>
			<polygon class="st12" points="276.38,98.24 172.17,84.66 172.24,84.1 276.45,97.68 			"/>
			<polygon class="st12" points="275.68,103.62 171.46,90.04 171.54,89.48 275.75,103.06 			"/>
			<polygon class="st12" points="274.98,109 170.77,95.42 170.84,94.86 275.05,108.44 			"/>
			
				<rect x="221.93" y="54.76" transform="matrix(0.1292 -0.9916 0.9916 0.1292 87.0902 313.7825)" class="st12" width="0.57" height="105.1"/>
			
				<rect x="221.22" y="60.13" transform="matrix(0.1292 -0.9916 0.9916 0.1292 81.1406 317.7674)" class="st12" width="0.56" height="105.1"/>
			<polygon class="st12" points="272.88,125.13 168.66,111.55 168.74,110.99 272.95,124.57 			"/>
			
				<rect x="219.82" y="70.89" transform="matrix(0.1292 -0.9916 0.9916 0.1292 69.2559 325.742)" class="st12" width="0.57" height="105.1"/>
			<polygon class="st12" points="271.47,135.89 167.26,122.31 167.33,121.74 271.55,135.33 			"/>
			<polygon class="st12" points="270.77,141.26 166.56,127.68 166.63,127.12 270.85,140.71 			"/>
			
				<rect x="217.72" y="87.02" transform="matrix(0.1292 -0.9916 0.9916 0.1292 51.4312 337.7107)" class="st12" width="0.56" height="105.1"/>
			
				<rect x="217.02" y="92.4" transform="matrix(0.1292 -0.9916 0.9916 0.1292 45.4848 341.6944)" class="st12" width="0.56" height="105.1"/>
			
				<rect x="216.32" y="97.78" transform="matrix(0.1292 -0.9916 0.9916 0.1292 39.5478 345.687)" class="st12" width="0.56" height="105.1"/>
			
				<rect x="215.62" y="103.16" transform="matrix(0.1292 -0.9916 0.9916 0.1292 33.6011 349.6704)" class="st12" width="0.56" height="105.09"/>
			
				<rect x="214.92" y="108.53" transform="matrix(0.1292 -0.9916 0.9916 0.1292 27.6602 353.66)" class="st12" width="0.56" height="105.09"/>
			
				<rect x="214.22" y="113.91" transform="matrix(0.1292 -0.9916 0.9916 0.1292 21.717 357.6461)" class="st12" width="0.56" height="105.1"/>
			
				<rect x="213.52" y="119.29" transform="matrix(0.1292 -0.9916 0.9916 0.1292 15.7797 361.6396)" class="st12" width="0.56" height="105.09"/>
			<polygon class="st12" points="265.17,184.28 160.96,170.7 161.03,170.14 265.24,183.72 			"/>
			
				<rect x="212.12" y="130.04" transform="matrix(0.1292 -0.9916 0.9916 0.1292 3.8914 369.6111)" class="st12" width="0.56" height="105.1"/>
			
				<rect x="211.41" y="135.42" transform="matrix(0.1292 -0.9916 0.9916 0.1292 -2.0495 373.6002)" class="st12" width="0.56" height="105.09"/>
		</g>
		<g>
			<g>
				
					<linearGradient id="SVGID_3_" gradientUnits="userSpaceOnUse" x1="61.4607" y1="97.0584" x2="166.5614" y2="97.0584" gradientTransform="matrix(0.9916 0.1292 -0.1292 0.9916 15.0938 3.316)">
					<stop  offset="0" style="stop-color:#FFFFFF"/>
					<stop  offset="0.4902" style="stop-color:#FDFDFD"/>
					<stop  offset="0.6882" style="stop-color:#F7F6F7"/>
					<stop  offset="0.8335" style="stop-color:#EBEAED"/>
					<stop  offset="0.9522" style="stop-color:#DBD8DE"/>
					<stop  offset="1" style="stop-color:#D2CFD6"/>
				</linearGradient>
				<path class="st13" d="M171.13,50.26L78.35,38.17c-3.15-0.41-6.05,1.83-6.46,4.97L55.11,171.86c-0.41,3.14,1.83,6.05,4.97,6.46
					l92.78,12.09c3.15,0.41,6.05-1.83,6.46-4.97L176.1,56.72C176.51,53.57,174.27,50.67,171.13,50.26z"/>
			</g>
			
				<rect x="122.64" y="3.4" transform="matrix(0.1292 -0.9916 0.9916 0.1292 51.8093 170.8938)" class="st12" width="1.13" height="105.1"/>
			
				<rect x="122.2" y="8.95" transform="matrix(0.1292 -0.9916 0.9916 0.1292 45.6787 175.0087)" class="st12" width="0.56" height="105.09"/>
			
				<rect x="121.5" y="14.32" transform="matrix(0.1292 -0.9916 0.9916 0.1292 39.7359 178.9961)" class="st12" width="0.57" height="105.1"/>
			
				<rect x="120.8" y="19.7" transform="matrix(0.1292 -0.9916 0.9916 0.1292 33.794 182.9841)" class="st12" width="0.57" height="105.1"/>
			
				<rect x="120.1" y="25.08" transform="matrix(0.1292 -0.9916 0.9916 0.1292 27.851 186.9713)" class="st12" width="0.56" height="105.09"/>
			
				<rect x="119.4" y="30.46" transform="matrix(0.1292 -0.9916 0.9916 0.1292 21.9091 190.9594)" class="st12" width="0.56" height="105.1"/>
			<polygon class="st12" points="171.05,95.45 66.84,81.87 66.91,81.31 171.13,94.89 			"/>
			
				<rect x="118" y="41.21" transform="matrix(0.1292 -0.9916 0.9916 0.1292 10.0227 198.9332)" class="st12" width="0.57" height="105.09"/>
			
				<rect x="117.3" y="46.59" transform="matrix(0.1292 -0.9916 0.9916 0.1292 4.0806 202.9215)" class="st12" width="0.57" height="105.09"/>
			
				<rect x="116.6" y="51.97" transform="matrix(0.1292 -0.9916 0.9916 0.1292 -1.8604 206.91)" class="st12" width="0.57" height="105.1"/>
			
				<rect x="115.9" y="57.34" transform="matrix(0.1292 -0.9916 0.9916 0.1292 -7.8054 210.8958)" class="st12" width="0.56" height="105.09"/>
			
				<rect x="115.2" y="62.72" transform="matrix(0.1292 -0.9916 0.9916 0.1292 -13.7505 214.8833)" class="st12" width="0.57" height="105.09"/>
			
				<rect x="114.5" y="68.1" transform="matrix(0.1293 -0.9916 0.9916 0.1293 -19.6945 218.8699)" class="st12" width="0.56" height="105.1"/>
			<polygon class="st12" points="166.15,133.1 61.93,119.52 62.01,118.96 166.22,132.54 			"/>
			
				<rect x="113.09" y="78.86" transform="matrix(0.1292 -0.9916 0.9916 0.1292 -31.5785 226.8484)" class="st12" width="0.56" height="105.09"/>
			
				<rect x="112.39" y="84.23" transform="matrix(0.1292 -0.9916 0.9916 0.1292 -37.5218 230.8343)" class="st12" width="0.56" height="105.1"/>
			
				<rect x="111.69" y="89.61" transform="matrix(0.1292 -0.9916 0.9916 0.1292 -43.4613 234.8267)" class="st12" width="0.56" height="105.1"/>
			
				<rect x="110.99" y="94.99" transform="matrix(0.1292 -0.9916 0.9916 0.1292 -49.4059 238.811)" class="st12" width="0.56" height="105.09"/>
			
				<rect x="110.29" y="100.37" transform="matrix(0.1292 -0.9916 0.9916 0.1292 -55.3468 242.8011)" class="st12" width="0.57" height="105.09"/>
			
				<rect x="109.59" y="105.74" transform="matrix(0.1292 -0.9916 0.9916 0.1292 -61.2902 246.7879)" class="st12" width="0.56" height="105.1"/>
			
				<rect x="108.89" y="111.12" transform="matrix(0.1292 -0.9916 0.9916 0.1292 -67.2309 250.7789)" class="st12" width="0.56" height="105.09"/>
			<polygon class="st12" points="160.54,176.12 56.33,162.54 56.4,161.98 160.61,175.56 			"/>
			
				<rect x="107.49" y="121.88" transform="matrix(0.1292 -0.9916 0.9916 0.1292 -79.1177 258.751)" class="st12" width="0.56" height="105.1"/>
		</g>
	</g>
</g>
<g id="pen">
	<polygon class="st1" points="37.03,104.89 37.03,99.94 31.61,99.94 31.61,104.89 30.14,104.89 30.14,109.4 27.6,109.4 25.46,109.4 
		25.46,111.4 25.46,134.7 27.6,134.7 27.6,111.4 30.14,111.4 30.14,190.47 30.97,190.47 32.52,198.37 33.16,198.37 33.78,202.5 
		34.87,202.5 35.49,198.37 36.13,198.37 37.68,190.47 38.51,190.47 38.51,111.4 38.51,109.4 38.51,104.89 	"/>
	<g>
		<rect x="27.35" y="104.89" class="st3" width="8.37" height="85.58"/>
		<linearGradient id="SVGID_4_" gradientUnits="userSpaceOnUse" x1="28.1718" y1="194.4189" x2="34.8886" y2="194.4189">
			<stop  offset="0" style="stop-color:#FFFFFF"/>
			<stop  offset="0.2691" style="stop-color:#FAFAFA"/>
			<stop  offset="0.6051" style="stop-color:#ECEAED"/>
			<stop  offset="0.9753" style="stop-color:#D4D1D8"/>
			<stop  offset="1" style="stop-color:#D2CFD6"/>
		</linearGradient>
		<polygon class="st14" points="29.72,198.37 33.34,198.37 34.89,190.47 28.17,190.47 		"/>
		<polygon class="st10" points="30.99,202.5 32.07,202.5 32.69,198.37 30.37,198.37 		"/>
		<linearGradient id="SVGID_5_" gradientUnits="userSpaceOnUse" x1="28.8198" y1="102.4148" x2="34.2392" y2="102.4148">
			<stop  offset="0" style="stop-color:#FFFFFF"/>
			<stop  offset="0.2691" style="stop-color:#FAFAFA"/>
			<stop  offset="0.6051" style="stop-color:#ECEAED"/>
			<stop  offset="0.9753" style="stop-color:#D4D1D8"/>
			<stop  offset="1" style="stop-color:#D2CFD6"/>
		</linearGradient>
		<rect x="28.82" y="99.94" class="st15" width="5.42" height="4.95"/>
		<linearGradient id="SVGID_6_" gradientUnits="userSpaceOnUse" x1="22.6611" y1="122.0473" x2="35.7138" y2="122.0473">
			<stop  offset="0" style="stop-color:#FFFFFF"/>
			<stop  offset="0.2691" style="stop-color:#FAFAFA"/>
			<stop  offset="0.6051" style="stop-color:#ECEAED"/>
			<stop  offset="0.9753" style="stop-color:#D4D1D8"/>
			<stop  offset="1" style="stop-color:#D2CFD6"/>
		</linearGradient>
		<polygon class="st16" points="35.71,109.4 24.81,109.4 22.66,109.4 22.66,111.4 22.66,134.7 24.81,134.7 24.81,111.4 35.71,111.4 
					"/>
	</g>
</g>
<g id="pencil_1_">
	<path class="st1" d="M302.67,100.08c-2.28,0-4.13,1.85-4.13,4.14v82.72l3.1,12.41l1.03,4.14l1.04-4.14l3.1-12.41v-82.72
		C306.81,101.93,304.95,100.08,302.67,100.08z"/>
	<g>
		<g>
			<g>
				<circle class="st10" cx="300" cy="104.21" r="4.14"/>
			</g>
		</g>
		<g>
			<g>
				<rect x="295.87" y="104.21" class="st0" width="8.27" height="82.72"/>
			</g>
		</g>
		<g>
			<g>
				<polygon class="st17" points="301.04,199.34 304.14,186.93 295.87,186.93 298.97,199.34 				"/>
			</g>
		</g>
		<g>
			<g>
				<polygon class="st10" points="300,203.48 301.04,199.34 298.97,199.34 				"/>
			</g>
		</g>
	</g>
</g>
<g id="note">
	<path class="st1" d="M111.01,42.52l0.17-1.36c0.24-1.98-1.17-3.79-3.15-4.03c-1.98-0.24-3.79,1.17-4.03,3.15l-0.17,1.33l-6.69-0.86
		l-7.7,60.02l42.96,5.51l7.7-60.02L111.01,42.52z M104.81,40.37c0.19-1.53,1.59-2.62,3.12-2.44c1.53,0.19,2.63,1.59,2.44,3.12
		l-0.17,1.36l-1.33-0.17c0.02-0.75-0.53-1.4-1.29-1.5c-0.75-0.09-1.44,0.4-1.61,1.12l-1.32-0.17L104.81,40.37z M106.79,41.98
		c0.11-0.27,0.38-0.46,0.69-0.42c0.31,0.04,0.53,0.29,0.56,0.58L106.79,41.98z"/>
	<g>
		
			<rect x="81.54" y="51.25" transform="matrix(0.1273 -0.9919 0.9919 0.1273 25.2469 174.5194)" class="st17" width="60.51" height="43.32"/>
		<g>
			<path class="st5" d="M101.39,57.29c1.39,0.17,2.67-0.82,2.84-2.22l1.66-13.28c0.1-0.81-0.48-1.55-1.29-1.65
				c-0.81-0.1-1.55,0.48-1.65,1.29l-1.25,9.99c-0.03,0.22,0.13,0.43,0.36,0.46c0.22,0.03,0.43-0.13,0.46-0.36l1.25-9.99
				c0.04-0.36,0.38-0.62,0.74-0.58c0.36,0.04,0.62,0.38,0.58,0.74l-1.66,13.28c-0.12,0.94-0.98,1.62-1.93,1.5
				c-0.95-0.12-1.62-0.98-1.51-1.93l1.85-14.77c0.19-1.53,1.59-2.62,3.12-2.44c1.53,0.19,2.63,1.59,2.44,3.12l-2.11,16.9
				c-0.03,0.22,0.13,0.43,0.36,0.45c0.23,0.03,0.43-0.13,0.46-0.36l2.11-16.9c0.24-1.98-1.17-3.79-3.15-4.03
				c-1.98-0.24-3.79,1.17-4.03,3.15l-1.85,14.77C99,55.85,100,57.12,101.39,57.29z"/>
		</g>
	</g>
</g>
<g id="pin">
	<g>
		<path class="st1" d="M299.88,86.47c1.4-0.03,2.52-1.2,2.48-2.61l-0.3-13.38c-0.02-0.81-0.7-1.46-1.52-1.44
			c-0.81,0.02-1.46,0.7-1.44,1.51l0.22,10.06c0.01,0.23,0.19,0.4,0.42,0.4c0.22-0.01,0.4-0.19,0.4-0.42l-0.22-10.06
			c-0.01-0.36,0.28-0.67,0.65-0.68c0.36-0.01,0.67,0.28,0.68,0.65l0.3,13.38c0.02,0.95-0.73,1.75-1.69,1.77
			c-0.96,0.02-1.75-0.73-1.77-1.69l-0.33-14.88c-0.04-1.54,1.19-2.83,2.73-2.87c1.54-0.04,2.83,1.19,2.87,2.73l0.39,17.02
			c0,0.22,0.19,0.4,0.42,0.4c0.23-0.01,0.4-0.19,0.4-0.42l-0.39-17.02c-0.05-1.99-1.71-3.58-3.71-3.53c-2,0.05-3.58,1.71-3.53,3.71
			l0.33,14.89C297.3,85.39,298.47,86.51,299.88,86.47z"/>
	</g>
	<g>
		<path class="st2" d="M298.39,86.47c1.4-0.03,2.52-1.2,2.48-2.61l-0.3-13.38c-0.02-0.81-0.7-1.46-1.52-1.44
			c-0.81,0.02-1.46,0.7-1.44,1.51l0.22,10.06c0.01,0.23,0.19,0.4,0.42,0.4c0.23-0.01,0.4-0.19,0.4-0.42l-0.23-10.06
			c-0.01-0.36,0.28-0.67,0.65-0.68c0.36-0.01,0.67,0.28,0.68,0.65l0.3,13.38c0.03,0.95-0.73,1.75-1.69,1.77
			c-0.96,0.02-1.75-0.73-1.77-1.69l-0.34-14.88c-0.04-1.54,1.19-2.83,2.73-2.87c1.54-0.04,2.83,1.19,2.87,2.73l0.39,17.02
			c0,0.22,0.19,0.4,0.42,0.4c0.23-0.01,0.4-0.19,0.4-0.42l-0.39-17.02c-0.05-1.99-1.71-3.58-3.71-3.53c-2,0.05-3.58,1.71-3.53,3.71
			l0.33,14.89C295.82,85.39,296.99,86.51,298.39,86.47z"/>
	</g>
</g>
<g id="phone">
	<g>
		<path class="st1" d="M231.56,78.21h-31.11c-3.53,0-6.41,2.87-6.41,6.41v75.44c0,3.53,2.87,6.41,6.41,6.41h31.11
			c3.53,0,6.41-2.87,6.41-6.41V84.62C237.97,81.08,235.09,78.21,231.56,78.21z"/>
		<g id="iPhone_x5F_Black">
			<path class="st10" d="M197.78,166.46c-3.53,0-6.41-2.87-6.41-6.41V84.62c0-3.53,2.87-6.41,6.41-6.41h31.11
				c3.53,0,6.41,2.87,6.41,6.41v75.44c0,3.53-2.87,6.41-6.41,6.41H197.78z"/>
			<g>
				<path class="st3" d="M217.79,84.61h-8.92c-0.75,0-1.35,0.6-1.35,1.35c0,0.75,0.6,1.35,1.35,1.35h8.92c0.75,0,1.35-0.6,1.35-1.35
					C219.14,85.21,218.53,84.61,217.79,84.61z"/>
			</g>
			<path class="st3" d="M213.33,155.74c-2.36,0-4.27,1.91-4.27,4.27c0,2.36,1.91,4.27,4.27,4.27c2.36,0,4.27-1.91,4.27-4.27
				C217.6,157.65,215.69,155.74,213.33,155.74z"/>
			<rect x="194.2" y="91.26" class="st2" width="38" height="62.41"/>
		</g>
	</g>
	<g>
		<g>
			<rect x="197.32" y="96.61" class="st5" width="32.16" height="31.79"/>
		</g>
		<g>
			<rect x="200.35" y="113.98" class="st3" width="26.09" height="4.33"/>
		</g>
		<g>
			<rect x="205.51" y="121.23" class="st17" width="15.78" height="2.62"/>
		</g>
		<g>
			<rect x="200.35" y="107.8" class="st17" width="26.09" height="4.33"/>
		</g>
		<g>
			<rect x="202.65" y="115.22" class="st5" width="21.66" height="1.86"/>
		</g>
		<g>
			<rect x="197.32" y="96.61" class="st17" width="32.16" height="5.2"/>
		</g>
	</g>
	<g>
		<rect x="197.5" y="133" class="st0" width="6.57" height="6.57"/>
		<rect x="205.97" y="133" class="st0" width="6.57" height="6.57"/>
		<rect x="214.43" y="133" class="st0" width="6.57" height="6.57"/>
		<rect x="222.9" y="133" class="st0" width="6.57" height="6.57"/>
		<rect x="197.5" y="141.36" class="st0" width="6.57" height="6.57"/>
		<rect x="205.97" y="141.36" class="st0" width="6.57" height="6.57"/>
		<rect x="214.43" y="141.36" class="st0" width="6.57" height="6.57"/>
		<rect x="222.9" y="141.36" class="st0" width="6.57" height="6.57"/>
	</g>
</g>
</svg>
