<?xml version="1.0" encoding="utf-8"?>
<!-- Generator: Adobe Illustrator 22.1.0, SVG Export Plug-In . SVG Version: 6.00 Build 0)  -->
<svg version="1.1" xmlns="http://www.w3.org/2000/svg" xmlns:xlink="http://www.w3.org/1999/xlink" x="0px" y="0px"
	 viewBox="0 0 1400 1000" style="enable-background:new 0 0 1400 1000;" xml:space="preserve">
<style type="text/css">
	.st0{fill:#EDEEF2;}
	.st1{fill:#FFFFFF;}
	.st2{fill:#02C1C1;}
	.st3{opacity:0.57;fill:#FFFFFF;}
	.st4{fill:#009995;}
	.st5{fill:#24E2D8;}
	.st6{font-family:'Roboto-Medium';}
	.st7{font-size:22.5458px;}
	.st8{letter-spacing:2;}
	.st9{letter-spacing:1;}
	.st10{fill:#00BAAD;}
	.st11{font-size:18.4961px;}
	.st12{fill:none;}
	.st13{fill:#05918D;}
	.st14{font-size:31.7857px;}
	.st15{letter-spacing:3;}
	.st16{font-size:20.62px;}
	.st17{font-family:'Roboto-Light';}
	.st18{font-size:11.8667px;}
	.st19{font-size:14.3265px;}
	.st20{font-size:11.9828px;}
	.st21{font-size:10.3054px;}
	.st22{font-family:'Roboto-Regular';}
	.st23{font-size:17.2473px;}
</style>
<g id="BACKGROUND">
	<rect class="st0" width="1400" height="1000"/>
</g>
<g id="OBJECT">
	<g>
		<g>
			<path class="st1" d="M599.2,73.8H64.6c-4.2,0-7.6,3.4-7.6,7.6v364.4c0,4.2,3.4,7.6,7.6,7.6h534.6c4.2,0,7.6-3.4,7.6-7.6V81.3
				C606.7,77.2,603.3,73.8,599.2,73.8z"/>
			
				<rect x="194.2" y="-29.3" transform="matrix(-1.836970e-16 1 -1 -1.836970e-16 560.3391 -103.4045)" class="st2" width="275.3" height="515.6"/>
			
				<rect x="322.9" y="113.1" transform="matrix(-1.836970e-16 1 -1 -1.836970e-16 675.2892 11.5455)" class="st3" width="17.9" height="460.6"/>
			<rect x="101.6" y="334.4" class="st1" width="274.7" height="17.9"/>
			<path class="st1" d="M331.9,137.9c-40.9,0-74,33.1-74,74c0,40.9,33.1,74,74,74s74-33.1,74-74C405.9,171,372.7,137.9,331.9,137.9z
				 M365.4,219.3l-49.5,26.1c-5.4,2.8-11.8-1.1-11.8-7.1v-52.2c0-6.1,6.5-10,11.8-7.1l49.5,26.1
				C371.1,208.1,371.1,216.3,365.4,219.3z"/>
			<g>
				<rect x="312.5" y="390.8" class="st4" width="15.1" height="37.9"/>
				<rect x="336.2" y="390.8" class="st4" width="15.1" height="37.9"/>
			</g>
			<g>
				<g>
					<path class="st4" d="M417.7,413.5l-28.6,15c-2.8,1.5-6.2-0.6-6.2-3.7v-30.1c0-3.2,3.4-5.2,6.2-3.7l28.6,15
						C420.7,407.6,420.7,411.9,417.7,413.5z"/>
					<path class="st4" d="M423.3,390.5h-4.5c-0.6,0-1.2,0.5-1.2,1.2v36.3c0,0.6,0.5,1.2,1.2,1.2h4.5c0.6,0,1.2-0.5,1.2-1.2v-36.3
						C424.5,391,424,390.5,423.3,390.5z"/>
				</g>
				<g>
					<path class="st4" d="M246.1,406l28.6-15c2.8-1.5,6.2,0.6,6.2,3.7v30.1c0,3.2-3.4,5.2-6.2,3.7l-28.6-15
						C243.1,411.9,243.1,407.6,246.1,406z"/>
					<path class="st4" d="M240.4,390.5h4.5c0.6,0,1.2,0.5,1.2,1.2v36.3c0,0.6-0.5,1.2-1.2,1.2h-4.5c-0.6,0-1.2-0.5-1.2-1.2v-36.3
						C239.3,391,239.8,390.5,240.4,390.5z"/>
				</g>
			</g>
			<path class="st4" d="M473.8,410.6c0,5.6-4.6,10.1-10.1,10.1c-5.6,0-10.1-4.6-10.1-10.1c0-5.6,4.6-10.1,10.1-10.1
				c1.1,0,2.2,0.2,3.2,0.6l-3.7,0.9l0.8,3l9.2-2.3l-2.6-9.1l-3,0.9l1.1,3.8c-1.6-0.6-3.2-1-5-1c-7.3,0-13.3,6-13.3,13.3
				s6,13.3,13.3,13.3c7.3,0,13.3-6,13.3-13.3H473.8z"/>
		</g>
		<g>
			<path class="st5" d="M603,469.9H60c-2.2,0-4,1.8-4,4v38.6c0,2.2,1.8,4,4,4h543c2.2,0,4-1.8,4-4v-38.6
				C607,471.7,605.2,469.9,603,469.9z"/>
			<text transform="matrix(1 0 0 1 269.397 502.4456)"><tspan x="0" y="0" class="st1 st6 st7 st8">BU</tspan><tspan x="33.4" y="0" class="st1 st6 st7 st8">T</tspan><tspan x="49.5" y="0" class="st1 st6 st7 st9">T</tspan><tspan x="65.2" y="0" class="st1 st6 st7 st8">ON 1</tspan></text>
		</g>
		<g>
			<path class="st2" d="M603,591.3H60c-2.2,0-4,1.8-4,4V634c0,2.2,1.8,4,4,4h543c2.2,0,4-1.8,4-4v-38.6
				C607,593.1,605.2,591.3,603,591.3z"/>
			<path class="st4" d="M603,617.8v-19.3c0-2.1-1.7-3.9-3.9-3.9H63.8c-2.1,0-3.9,1.7-3.9,3.9v19.3H603z"/>
			<text transform="matrix(1 0 0 1 269.397 623.9211)"><tspan x="0" y="0" class="st1 st6 st7 st8">BU</tspan><tspan x="33.4" y="0" class="st1 st6 st7 st8">T</tspan><tspan x="49.5" y="0" class="st1 st6 st7 st9">T</tspan><tspan x="65.2" y="0" class="st1 st6 st7 st8">ON 3</tspan></text>
		</g>
		<g>
			<path class="st4" d="M603,531.3H60c-2.2,0-4,1.8-4,4v38.6c0,2.2,1.8,4,4,4h543c2.2,0,4-1.8,4-4v-38.6
				C607,533.1,605.2,531.3,603,531.3z"/>
			
				<rect x="312.7" y="283.6" transform="matrix(-1.836970e-16 1 -1 -1.836970e-16 886.1082 223.1212)" class="st0" width="37.6" height="542"/>
			<text transform="matrix(1 0 0 1 269.397 563.887)"><tspan x="0" y="0" class="st10 st6 st7 st8">BU</tspan><tspan x="33.4" y="0" class="st10 st6 st7 st8">T</tspan><tspan x="49.5" y="0" class="st10 st6 st7 st9">T</tspan><tspan x="65.2" y="0" class="st10 st6 st7 st8">ON 2</tspan></text>
		</g>
		<g>
			<path class="st2" d="M603,653.1H60c-2.2,0-4,1.8-4,4v38.6c0,2.2,1.8,4,4,4h543c2.2,0,4-1.8,4-4V657
				C607,654.8,605.2,653.1,603,653.1z"/>
			
				<rect x="312.7" y="405.4" transform="matrix(-1.836970e-16 1 -1 -1.836970e-16 1007.8572 344.8702)" class="st0" width="37.6" height="542"/>
			<path class="st2" d="M603,653.1h-90.4v46.6H603c2.2,0,4-1.8,4-4V657C607,654.8,605.2,653.1,603,653.1z"/>
			<rect x="500.7" y="657.6" class="st2" width="101.7" height="37.6"/>
			<text transform="matrix(1 0 0 1 512.8584 684.1711)" class="st1 st6 st11 st9">SEARCH</text>
			<g>
				<path class="st2" d="M84,667.3c-3.2-3.2-8.4-3.2-11.7,0c-3.2,3.2-3.2,8.4,0,11.7c2.5,2.5,6.1,3,9.1,1.7l1.9,1.9l1.2-1.2l6.6,6.6
					c0.5,0.5,1.4,0.5,1.9,0c0.5-0.5,0.5-1.4,0-1.9l-6.6-6.6l1.2-1.2l-1.9-1.9C87.1,673.4,86.5,669.8,84,667.3z M82.1,677
					c-2.2,2.2-5.6,2.2-7.8,0c-2.2-2.2-2.2-5.6,0-7.8c2.2-2.2,5.6-2.2,7.8,0C84.3,671.4,84.3,674.9,82.1,677z"/>
			</g>
		</g>
		<g>
			<path class="st5" d="M321.9,825.3c1.1,0,2,0.5,2,1.1v40.9c0,0.6-0.9,1.1-2,1.1H59.4c-1.9,0-3.4-0.8-3.4-1.9v-39.3
				c0-1,1.5-1.9,3.4-1.9H321.9z"/>
			<rect x="274.3" y="830.4" class="st1" width="44.5" height="32.8"/>
			<g>
				<path class="st2" d="M297.9,837.7c-3.2-3.2-8.3-3.2-11.5,0c-3.2,3.2-3.2,8.3,0,11.5c2.4,2.4,6,3,9,1.7l1.8,1.8l1.2-1.2l6.5,6.5
					c0.5,0.5,1.4,0.5,1.9,0c0.5-0.5,0.5-1.4,0-1.9l-6.5-6.5l1.2-1.2l-1.8-1.8C300.9,843.7,300.4,840.1,297.9,837.7z M296,847.3
					c-2.1,2.1-5.6,2.1-7.7,0c-2.1-2.1-2.1-5.6,0-7.7c2.1-2.1,5.6-2.1,7.7,0C298.2,841.7,298.2,845.2,296,847.3z"/>
			</g>
		</g>
		<g>
			<path class="st4" d="M416.4,720.1h-74.9c-1.1,0-2,0.9-2,2V797c0,1.1,0.9,2,2,2h74.9c1.1,0,2-0.9,2-2v-74.9
				C418.4,721,417.5,720.1,416.4,720.1z"/>
			<g>
				<path class="st1" d="M380,736c-13.4,0-24.3,10.9-24.3,24.3c0,13.4,10.9,24.3,24.3,24.3c13.4,0,24.3-10.9,24.3-24.3
					C404.3,746.9,393.4,736,380,736z M358.9,762.8h6.8c0.1,2.4,0.5,4.7,1,6.9H361C359.9,767.5,359.2,765.2,358.9,762.8z
					 M381.8,748.4v-9c3.1,1,5.8,4.3,7.5,9H381.8z M390.3,751.5c0.6,2.5,1,5.3,1.1,8.2h-9.5v-8.2H390.3z M378.7,739.2v9.1h-8
					C372.6,743.4,375.4,740,378.7,739.2z M378.7,751.5v8.2h-10c0-2.9,0.4-5.7,1.1-8.2H378.7z M365.6,759.7h-6.8
					c0.1-2.9,0.8-5.7,1.9-8.2h5.9C366,754,365.7,756.8,365.6,759.7z M368.8,762.8h9.9v6.9h-8.8C369.4,767.5,369,765.2,368.8,762.8z
					 M378.7,772.7v8.6c-3.1-0.7-5.9-4-7.8-8.6H378.7z M381.8,781.2v-8.5h7.3C387.4,777.1,384.8,780.3,381.8,781.2z M381.8,769.7
					v-6.9h9.4c-0.2,2.4-0.5,4.8-1.1,6.9H381.8z M394.3,762.8h6.8c-0.3,2.4-1,4.8-2,6.9h-5.7C393.9,767.5,394.2,765.2,394.3,762.8z
					 M394.4,759.7c0-2.9-0.4-5.7-0.9-8.2h5.9c1.2,2.5,1.8,5.3,1.9,8.2H394.4z M397.6,748.4h-5c-0.9-2.9-2.2-5.4-3.7-7.4
					C392.4,742.6,395.4,745.2,397.6,748.4z M371.2,741c-1.5,2-2.8,4.5-3.7,7.4h-5C364.6,745.2,367.6,742.6,371.2,741z M362.9,772.7
					h4.8c0.9,2.6,2.1,5,3.5,6.8C367.8,778,365,775.7,362.9,772.7z M388.9,779.6c1.4-1.9,2.6-4.2,3.5-6.8h4.8
					C395.1,775.7,392.2,778,388.9,779.6z"/>
			</g>
		</g>
		<g>
			<path class="st2" d="M321.9,720.1H247c-1.1,0-2,0.9-2,2V797c0,1.1,0.9,2,2,2h74.9c1.1,0,2-0.9,2-2v-74.9
				C323.9,721,323,720.1,321.9,720.1z"/>
			<g>
				<path class="st12" d="M285.5,757.7c-4.6,0-8.2,3.7-8.2,8.2s3.7,8.2,8.2,8.2c4.6,0,8.2-3.7,8.2-8.2S290.1,757.7,285.5,757.7z"/>
				<path class="st1" d="M275.8,739.7c0-3.6,2.9-6.5,6.5-6.5h7.1c3.6,0,6.5,2.9,6.5,6.5v5.1h3.1v-5.1c0-5.3-4.3-9.6-9.6-9.6h-7.1
					c-5.3,0-9.6,4.3-9.6,9.6v5.1h3.1V739.7z"/>
				<path class="st1" d="M300.3,747.7H299h-3.1h-20h-3.1h-2c-2.4,0-4.3,1.9-4.3,4.3v27.7c0,2.4,1.9,4.3,4.3,4.3h29.6
					c2.4,0,4.3-1.9,4.3-4.3V752C304.6,749.7,302.7,747.7,300.3,747.7z M285.5,772c-3.3,0-6.1-2.7-6.1-6.1c0-3.3,2.7-6.1,6.1-6.1
					s6.1,2.7,6.1,6.1C291.6,769.2,288.9,772,285.5,772z"/>
			</g>
		</g>
		<g>
			<path class="st5" d="M511.4,720.1h-74.9c-1.1,0-2,0.9-2,2V797c0,1.1,0.9,2,2,2h74.9c1.1,0,2-0.9,2-2v-74.9
				C513.4,721,512.5,720.1,511.4,720.1z"/>
			<path class="st1" d="M496.5,763.3c7.3-7.3,7.3-19.2,0-26.5s-19.2-7.3-26.5,0c-6.3,6.3-7.2,15.8-2.7,23l-16.9,16.9
				c-1.7,1.7-1.7,4.5,0,6.2s4.5,1.7,6.2,0l16.9-16.9C480.7,770.4,490.2,769.5,496.5,763.3z M473,760.3c-5.7-5.7-5.7-14.8,0-20.5
				c5.7-5.7,14.8-5.7,20.5,0c5.7,5.7,5.7,14.8,0,20.5C487.8,765.9,478.6,765.9,473,760.3z"/>
		</g>
		<g>
			<path class="st2" d="M132.9,720.1H58c-1.1,0-2,0.9-2,2V797c0,1.1,0.9,2,2,2h74.9c1.1,0,2-0.9,2-2v-74.9
				C134.9,721,134,720.1,132.9,720.1z"/>
			
				<rect x="64.7" y="728.8" transform="matrix(-1.836970e-16 1 -1 -1.836970e-16 855.0115 664.1116)" class="st1" width="61.4" height="61.4"/>
			<g>
				<polygon class="st2" points="115.3,751 109.5,745.1 93.4,761.2 86.9,754.8 80.3,761.4 92.6,773.7 				"/>
			</g>
		</g>
		<g>
			<path class="st5" d="M227.9,720.1H153c-1.1,0-2,0.9-2,2V797c0,1.1,0.9,2,2,2h74.9c1.1,0,2-0.9,2-2v-74.9
				C229.9,721,229,720.1,227.9,720.1z"/>
			<g>
				<polygon class="st1" points="209.8,751 203.9,745.1 187.8,761.2 181.4,754.8 174.8,761.4 187.1,773.7 				"/>
			</g>
		</g>
		<g>
			<path class="st2" d="M605.4,720.1h-74.9c-1.1,0-2,0.9-2,2V797c0,1.1,0.9,2,2,2h74.9c1.1,0,2-0.9,2-2v-74.9
				C607.4,721,606.5,720.1,605.4,720.1z"/>
			<g>
				<circle class="st1" cx="568.5" cy="743.6" r="10.2"/>
				<path class="st1" d="M588.9,785.1c-0.3-13.9-9.3-25-20.4-25c-11,0-20,11.1-20.4,25H588.9z"/>
			</g>
		</g>
		<g>
			<path class="st2" d="M321.9,883.2c1.1,0,2,0.5,2,1.1v40.9c0,0.6-0.9,1.1-2,1.1H59.4c-1.9,0-3.4-0.8-3.4-1.9V885
				c0-1,1.5-1.9,3.4-1.9H321.9z"/>
			<rect x="61.1" y="888.3" class="st1" width="257.7" height="32.8"/>
			<rect x="270.9" y="886.5" class="st2" width="5.1" height="35.4"/>
			<polygon class="st4" points="287.4,900 297.1,913.1 306.8,900 			"/>
		</g>
		<g>
			<path class="st2" d="M606.3,883.2c1.1,0,2,0.5,2,1.1v40.9c0,0.6-0.9,1.1-2,1.1H343.8c-1.9,0-3.4-0.8-3.4-1.9V885
				c0-1,1.5-1.9,3.4-1.9"/>
			<rect x="557.1" y="888.5" class="st1" width="44.5" height="32.8"/>
			<g>
				<polygon class="st4" points="591.3,899.4 587,895.1 575.3,906.9 570.5,902.2 565.7,907 574.7,916 				"/>
			</g>
		</g>
		<g>
			<path class="st4" d="M606.3,825.3c1.1,0,2,0.5,2,1.1v40.9c0,0.6-0.9,1.1-2,1.1H343.8c-1.9,0-3.4-0.8-3.4-1.9v-39.3
				c0-1,1.5-1.9,3.4-1.9H606.3z"/>
			<polygon class="st1" points="578,831.6 560.7,845.8 565.2,845.8 565.2,860.9 573.7,860.9 573.7,853.2 581.8,853.2 581.8,860.9 
				590.3,860.9 590.3,845.8 594.8,845.8 			"/>
		</g>
		<g>
			<path class="st1" d="M1344,82.2v835.6c0,4.5-3.6,8.2-8,8.4c-0.1,0-0.3,0-0.4,0H660.2c-0.1,0-0.3,0-0.4,0c-4.5-0.2-8-3.9-8-8.4
				V82.2c0-4.7,3.8-8.5,8.4-8.5h675.4c1,0,1.9,0.2,2.7,0.5C1341.6,75.4,1344,78.5,1344,82.2z"/>
			<rect x="651.7" y="248.2" class="st2" width="692.3" height="238.3"/>
			<g>
				<path class="st13" d="M1344,82.2v42.5H651.7V82.2c0-4.7,3.8-8.5,8.4-8.5h675.4c1,0,1.9,0.2,2.7,0.5
					C1341.6,75.4,1344,78.5,1344,82.2z"/>
				<circle class="st1" cx="676.1" cy="101.5" r="7.8"/>
				<circle class="st1" cx="700.9" cy="101.5" r="7.8"/>
				<circle class="st1" cx="727.3" cy="101.5" r="7.8"/>
				<g>
					<rect x="1306.1" y="94.7" class="st1" width="9.5" height="3.3"/>
					<rect x="1306.1" y="101" class="st1" width="9.5" height="3.3"/>
					<rect x="1306.1" y="107" class="st1" width="9.5" height="3.3"/>
				</g>
				<polygon class="st1" points="1267.5,93.2 1270.2,98.6 1276.2,99.5 1271.8,103.7 1272.9,109.7 1267.5,106.9 1262.1,109.7 
					1263.2,103.7 1258.8,99.5 1264.8,98.6 				"/>
				<rect x="1289.7" y="91" class="st1" width="2.7" height="21"/>
				<rect x="749.7" y="86.7" class="st1" width="497.4" height="29.6"/>
				<polygon class="st13" points="777.4,97.5 772,97.5 772,93.8 763,101.5 772,109.1 772,105.4 777.4,105.4 				"/>
				<polygon class="st13" points="788,105.4 793.4,105.4 793.4,109.1 802.3,101.5 793.4,93.8 793.4,97.5 788,97.5 				"/>
			</g>
			<g>
				<g>
					<path class="st13" d="M788.4,172.9L774.5,159c-7.7-7.7-20.1-7.7-27.7,0l-13.9,13.9c-7.7,7.7-7.7,20.1,0,27.7l13.9,13.9
						c7.7,7.7,20.1,7.7,27.7,0l13.9-13.9C796,192.9,796,180.5,788.4,172.9z M778.4,196.2L778.4,196.2c-1,1-2.7,0.4-2.9-1
						c-0.3-1.6-1-3-2.2-4.2l-5.9-5.9c-3.7-3.7-9.8-3.7-13.5,0L748,191c-1.2,1.2-1.9,2.7-2.2,4.2c-0.2,1.4-1.9,2-2.9,1l0,0
						c-5.2-5.2-5.2-13.7,0-19l8.2-8.2c5.2-5.2,13.7-5.2,19,0l8.2,8.2C783.6,182.5,783.6,191,778.4,196.2z"/>
					<text transform="matrix(1 0 0 1 813.5061 182.3892)"><tspan x="0" y="0" class="st13 st6 st14 st8">Y</tspan><tspan x="22.1" y="0" class="st13 st6 st14 st15">OUR COM</tspan><tspan x="185.3" y="0" class="st13 st6 st14">P</tspan><tspan x="206" y="0" class="st13 st6 st14 st15">A</tspan><tspan x="230.4" y="0" class="st13 st6 st14 st8">N</tspan><tspan x="255.7" y="0" class="st13 st6 st14 st15">Y</tspan></text>
					<text transform="matrix(1 0 0 1 813.5071 212.5532)"><tspan x="0" y="0" class="st13 st6 st16 st8">Slogan Goes He</tspan><tspan x="176.1" y="0" class="st13 st6 st16 st9">r</tspan><tspan x="185.2" y="0" class="st13 st6 st16 st8">e</tspan></text>
				</g>
				<g>
					<g>
						<path class="st13" d="M1159.5,191.5c-0.9,0.6-1.4,1.6-1.4,2.6l7.3-5.1l1.8,1.4l1.9-1.4l7.3,5.2c0-1-0.5-2-1.4-2.6l-4.8-3.4
							l6.1-4.5c-1.5,0-2.9,0.5-4.1,1.3l-5.2,3.8l-5.1-3.8c-1.2-0.9-2.6-1.3-4-1.3l6.1,4.6L1159.5,191.5z"/>
						<path class="st13" d="M1167.2,170.3c-10.1,0-18.4,8.2-18.4,18.4c0,10.1,8.2,18.4,18.4,18.4s18.4-8.2,18.4-18.4
							C1185.6,178.5,1177.4,170.3,1167.2,170.3z M1178.6,196.4h-22.7v-15.5h22.7V196.4z"/>
					</g>
					<g>
						<path class="st13" d="M1229.3,182.4c-1.8,0-3.2,1.4-3.2,3.2c0,1.8,1.4,3.2,3.2,3.2c1.8,0,3.2-1.4,3.2-3.2
							C1232.5,183.9,1231.1,182.4,1229.3,182.4z"/>
						<path class="st13" d="M1229.3,170.3c-10.1,0-18.4,8.2-18.4,18.4c0,10.1,8.2,18.4,18.4,18.4s18.4-8.2,18.4-18.4
							C1247.7,178.5,1239.5,170.3,1229.3,170.3z M1229.3,199.3c-4.4,0-8.1-8.8-8.1-13.2c0-4.4,3.6-8.1,8.1-8.1
							c4.4,0,8.1,3.6,8.1,8.1C1237.4,190.5,1233.8,199.3,1229.3,199.3z"/>
					</g>
					<g>
						<path class="st13" d="M1282.2,192.6h3.8v-3.3h-4.3C1281.7,190.5,1281.9,191.6,1282.2,192.6z"/>
						<path class="st13" d="M1294.2,182.8c-1-1.3-2.3-2.3-3.8-3c0.7,0.8,1.3,1.8,1.8,3H1294.2z"/>
						<path class="st13" d="M1285.9,197.4V194h-3.2C1283.5,195.8,1284.6,197,1285.9,197.4z"/>
						<path class="st13" d="M1282.8,182.8h3.2v-3.2C1284.7,180,1283.6,181.2,1282.8,182.8z"/>
						<path class="st13" d="M1281.6,187.8h4.3v-3.5h-3.7C1281.9,185.4,1281.7,186.6,1281.6,187.8z"/>
						<path class="st13" d="M1280.6,184.3h-2.5c-0.5,1.1-0.9,2.3-1,3.5h2.9C1280.2,186.6,1280.4,185.4,1280.6,184.3z"/>
						<path class="st13" d="M1278.9,194c1.1,1.6,2.6,2.8,4.5,3.5c-0.9-0.9-1.7-2-2.2-3.5H1278.9z"/>
						<path class="st13" d="M1282.9,179.9c-1.5,0.6-2.8,1.7-3.8,3h2C1281.6,181.7,1282.2,180.7,1282.9,179.9z"/>
						<path class="st13" d="M1280.1,189.3h-2.9c0.1,1.2,0.4,2.3,0.8,3.3h2.6C1280.4,191.5,1280.2,190.5,1280.1,189.3z"/>
						<path class="st13" d="M1291.7,189.3h-4.3v3.3h3.8C1291.5,191.6,1291.7,190.5,1291.7,189.3z"/>
						<path class="st13" d="M1293.2,187.8h2.9c-0.1-1.3-0.5-2.4-1-3.5h-2.5C1293,185.4,1293.1,186.6,1293.2,187.8z"/>
						<path class="st13" d="M1287.4,179.6v3.2h3.2C1289.8,181.2,1288.7,180,1287.4,179.6z"/>
						<path class="st13" d="M1292.7,192.6h2.6c0.5-1,0.7-2.1,0.8-3.3h-2.9C1293.1,190.5,1293,191.5,1292.7,192.6z"/>
						<path class="st13" d="M1287.4,194v3.3c1.3-0.3,2.4-1.6,3.2-3.3H1287.4z"/>
						<path class="st13" d="M1290,197.5c1.8-0.7,3.4-1.9,4.5-3.5h-2.2C1291.7,195.5,1290.9,196.7,1290,197.5z"/>
						<path class="st13" d="M1291.1,184.3h-3.7v3.5h4.3C1291.7,186.6,1291.5,185.4,1291.1,184.3z"/>
						<path class="st13" d="M1286.7,170.3c-10.1,0-18.4,8.2-18.4,18.4c0,10.1,8.2,18.4,18.4,18.4c10.1,0,18.4-8.2,18.4-18.4
							C1305,178.5,1296.8,170.3,1286.7,170.3z M1286.7,200.2c-6.4,0-11.6-5.2-11.6-11.6c0-6.4,5.2-11.6,11.6-11.6
							s11.6,5.2,11.6,11.6C1298.3,195,1293.1,200.2,1286.7,200.2z"/>
					</g>
				</g>
			</g>
			<g>
				<g>
					<g>
						<g>
							<path class="st1" d="M950.9,270.4H711.5c-1.9,0-3.4,1.5-3.4,3.4V437c0,1.9,1.5,3.4,3.4,3.4h239.4c1.9,0,3.4-1.5,3.4-3.4
								V273.8C954.3,271.9,952.8,270.4,950.9,270.4z"/>
							<path class="st13" d="M724,284.8v93.3l49.2-49.2c4.2-4.2,11-4.2,15.2,0l47.9,47.9c4.2,4.2,11,4.2,15.2,0l30.5-30.5
								c4.2-4.2,11-4.2,15.2,0l41.4,41.4V284.8H724z"/>
						</g>
						<circle class="st1" cx="846.8" cy="320.6" r="17.8"/>
						<polygon class="st13" points="735.4,381.6 778.3,337 776.5,364.2 767.9,366.5 769,372.9 						"/>
						<polygon class="st13" points="886.7,350.6 886.4,367.2 878.7,371.4 872.8,383.6 853.3,384.5 						"/>
					</g>
					<g>
						<circle class="st1" cx="784.2" cy="465.7" r="6.2"/>
						<circle class="st1" cx="832.2" cy="465.7" r="6.2"/>
						<circle class="st1" cx="878.2" cy="465.7" r="6.2"/>
						<circle class="st2" cx="878.2" cy="465.7" r="3.6"/>
					</g>
				</g>
				<g>
					<rect x="991.9" y="284.6" class="st12" width="296.7" height="98.6"/>
					<text transform="matrix(1 0 0 1 991.8967 293.4727)"><tspan x="0" y="0" class="st1 st17 st18 st9">Lo</tspan><tspan x="15.3" y="0" class="st1 st17 st18 st9">r</tspan><tspan x="20.3" y="0" class="st1 st17 st18 st9">em ipsum dolor sit amet, consectetuer </tspan><tspan x="0" y="14.2" class="st1 st17 st18 st9">adipiscing elit, sed diam nonummy nibh euis</tspan><tspan x="279.9" y="14.2" class="st1 st17 st18 st9">-</tspan><tspan x="0" y="28.5" class="st1 st17 st18 st9">mod tincidunt ut lao</tspan><tspan x="127.3" y="28.5" class="st1 st17 st18 st9">r</tspan><tspan x="132.4" y="28.5" class="st1 st17 st18 st9">eet dolo</tspan><tspan x="183.4" y="28.5" class="st1 st17 st18 st9">r</tspan><tspan x="188.5" y="28.5" class="st1 st17 st18 st9">e magna aliquam </tspan><tspan x="0" y="42.7" class="st1 st17 st18 st9">e</tspan><tspan x="7.3" y="42.7" class="st1 st17 st18">r</tspan><tspan x="12.3" y="42.7" class="st1 st17 st18 st9">at </tspan><tspan x="28.9" y="42.7" class="st1 st17 st18 st9">v</tspan><tspan x="35.7" y="42.7" class="st1 st17 st18 st9">olutpat.</tspan><tspan x="0" y="57" class="st1 st17 st18 st9"> Ut wisi enim ad minim </tspan><tspan x="148.1" y="57" class="st1 st17 st18 st9">v</tspan><tspan x="155" y="57" class="st1 st17 st18 st9">eniam, quis nostrud </tspan><tspan x="0" y="71.2" class="st1 st17 st18 st9">e</tspan><tspan x="7.3" y="71.2" class="st1 st17 st18 st9">x</tspan><tspan x="14.2" y="71.2" class="st1 st17 st18 st9">e</tspan><tspan x="21.5" y="71.2" class="st1 st17 st18 st9">r</tspan><tspan x="26.5" y="71.2" class="st1 st17 st18 st9">ci tation ullamcorper suscipit lobo</tspan><tspan x="243.2" y="71.2" class="st1 st17 st18 st9">r</tspan><tspan x="248.7" y="71.2" class="st1 st17 st18 st9">tis nisl </tspan><tspan x="0" y="85.4" class="st1 st17 st18 st9">ut aliquip ex ea commodo consequat. </tspan></text>
					<path class="st1" d="M1102.7,407.2h-101.1c-3.8,0-6.8,3.1-6.8,6.8v16c0,3.8,3.1,6.8,6.8,6.8h101.1c3.8,0,6.8-3.1,6.8-6.8v-16
						C1109.5,410.3,1106.4,407.2,1102.7,407.2z"/>
					<path class="st1" d="M1235.7,407.2h-101.1c-3.8,0-6.8,3.1-6.8,6.8v16c0,3.8,3.1,6.8,6.8,6.8h101.1c3.8,0,6.8-3.1,6.8-6.8v-16
						C1242.5,410.3,1239.4,407.2,1235.7,407.2z"/>
					<text transform="matrix(1 0 0 1 1024.55 428.356)"><tspan x="0" y="0" class="st13 st17 st19">L</tspan><tspan x="8.5" y="0" class="st13 st17 st19 st9">OG IN</tspan></text>
					<text transform="matrix(1 0 0 1 1157.7209 428.356)" class="st13 st17 st19 st9">SIGN UP</text>
				</g>
			</g>
			<g>
				<path class="st5" d="M651.7,830.6v87.2c0,4.5,3.5,8.2,8,8.4c0.1,0,0.3,0,0.4,0h675.4c0.1,0,0.3,0,0.4,0c4.5-0.2,8-3.9,8-8.4
					v-87.2H651.7z"/>
				<g>
					<g>
						<path class="st13" d="M732.2,880.9c-0.7,0.5-1.2,1.4-1.2,2.2l6.2-4.4l1.5,1.1l1.6-1.2l6.2,4.4c0-0.9-0.4-1.7-1.1-2.2l-4-2.9
							l5.2-3.8c-1.2,0-2.5,0.4-3.5,1.1l-4.4,3.2l-4.3-3.2c-1-0.7-2.2-1.1-3.4-1.1l5.2,3.9L732.2,880.9z"/>
						<path class="st13" d="M738.9,862.8c-8.6,0-15.6,7-15.6,15.6c0,8.6,7,15.6,15.6,15.6s15.6-7,15.6-15.6
							C754.4,869.8,747.5,862.8,738.9,862.8z M748.5,885h-19.3v-13.2h19.3V885z"/>
					</g>
					<g>
						<path class="st13" d="M793.2,873.2c-1.5,0-2.7,1.2-2.7,2.7c0,1.5,1.2,2.7,2.7,2.7s2.7-1.2,2.7-2.7
							C795.9,874.4,794.7,873.2,793.2,873.2z"/>
						<path class="st13" d="M793.1,862.8c-8.6,0-15.6,7-15.6,15.6c0,8.6,7,15.6,15.6,15.6c8.6,0,15.6-7,15.6-15.6
							C808.7,869.8,801.8,862.8,793.1,862.8z M793.2,887.5c-3.8,0-6.8-7.5-6.8-11.2c0-3.8,3.1-6.8,6.8-6.8c3.8,0,6.8,3.1,6.8,6.8
							C800,880,796.9,887.5,793.2,887.5z"/>
					</g>
					<g>
						<path class="st13" d="M844,881.8h3.2V879h-3.7C843.6,880,843.7,880.9,844,881.8z"/>
						<path class="st13" d="M854.2,873.5c-0.8-1.1-1.9-2-3.2-2.5c0.6,0.7,1.1,1.5,1.5,2.5H854.2z"/>
						<path class="st13" d="M847.2,885.9V883h-2.7C845.1,884.5,846.1,885.6,847.2,885.9z"/>
						<path class="st13" d="M844.5,873.5h2.7v-2.7C846.1,871.1,845.2,872.1,844.5,873.5z"/>
						<path class="st13" d="M843.5,877.8h3.7v-3H844C843.7,875.7,843.6,876.7,843.5,877.8z"/>
						<path class="st13" d="M842.7,874.8h-2.1c-0.5,0.9-0.8,1.9-0.8,3h2.5C842.3,876.7,842.5,875.7,842.7,874.8z"/>
						<path class="st13" d="M841.2,883c0.9,1.3,2.2,2.4,3.8,3c-0.8-0.7-1.4-1.7-1.9-3H841.2z"/>
						<path class="st13" d="M844.6,871c-1.3,0.5-2.4,1.4-3.2,2.5h1.7C843.5,872.5,844,871.7,844.6,871z"/>
						<path class="st13" d="M842.3,879h-2.5c0.1,1,0.3,1.9,0.7,2.8h2.2C842.5,880.9,842.3,880,842.3,879z"/>
						<path class="st13" d="M852.1,879h-3.7v2.8h3.2C851.9,880.9,852,880,852.1,879z"/>
						<path class="st13" d="M853.4,877.8h2.5c-0.1-1.1-0.4-2.1-0.8-3h-2.1C853.2,875.7,853.3,876.7,853.4,877.8z"/>
						<path class="st13" d="M848.4,870.8v2.7h2.7C850.5,872.1,849.5,871.1,848.4,870.8z"/>
						<path class="st13" d="M852.9,881.8h2.2c0.4-0.9,0.6-1.8,0.7-2.8h-2.5C853.3,880,853.2,880.9,852.9,881.8z"/>
						<path class="st13" d="M848.4,883v2.8c1.1-0.3,2.1-1.3,2.7-2.8H848.4z"/>
						<path class="st13" d="M850.7,886c1.5-0.6,2.9-1.6,3.8-3h-1.9C852.1,884.2,851.4,885.3,850.7,886z"/>
						<path class="st13" d="M851.6,874.8h-3.2v3h3.7C852.1,876.7,851.9,875.7,851.6,874.8z"/>
						<path class="st13" d="M847.8,862.8c-8.6,0-15.6,7-15.6,15.6c0,8.6,7,15.6,15.6,15.6c8.6,0,15.6-7,15.6-15.6
							C863.4,869.8,856.4,862.8,847.8,862.8z M847.8,888.3c-5.4,0-9.9-4.4-9.9-9.9c0-5.4,4.4-9.9,9.9-9.9c5.4,0,9.9,4.4,9.9,9.9
							C857.7,883.9,853.3,888.3,847.8,888.3z"/>
					</g>
					<rect x="917.7" y="864.2" class="st12" width="371.8" height="46.5"/>
					<text transform="matrix(1 0 0 1 917.7502 873.1953)"><tspan x="0" y="0" class="st1 st17 st20 st9">Lo</tspan><tspan x="15.4" y="0" class="st1 st17 st20 st9">r</tspan><tspan x="20.5" y="0" class="st1 st17 st20 st9">em ipsum dolor sit amet, consectetuer adipiscing elit, </tspan><tspan x="0" y="14.4" class="st1 st17 st20 st9">sed diam nonummy nibh euismod tincidunt ut lao</tspan><tspan x="314.1" y="14.4" class="st1 st17 st20 st9">r</tspan><tspan x="319.2" y="14.4" class="st1 st17 st20 st9">eet </tspan><tspan x="0" y="28.8" class="st1 st17 st20 st9">dolo</tspan><tspan x="27.6" y="28.8" class="st1 st17 st20 st9">r</tspan><tspan x="32.7" y="28.8" class="st1 st17 st20 st9">e magna aliquam e</tspan><tspan x="152.9" y="28.8" class="st1 st17 st20">r</tspan><tspan x="157.9" y="28.8" class="st1 st17 st20 st9">at </tspan><tspan x="174.7" y="28.8" class="st1 st17 st20 st9">v</tspan><tspan x="181.6" y="28.8" class="st1 st17 st20 st9">olutpat. </tspan></text>
				</g>
			</g>
			<g>
				<g>
					<path class="st2" d="M705.3,784.1V533.6c0-6.7,5.4-12.1,12.1-12.1h147.7c6.7,0,12.1,5.4,12.1,12.1v250.5
						c0,6.7-5.4,12.1-12.1,12.1H717.4C710.7,796.2,705.3,790.8,705.3,784.1z"/>
					<rect x="725.9" y="542.2" class="st1" width="130.6" height="123.6"/>
					<polygon class="st13" points="842.9,557.2 837.6,557.2 791.1,601.1 744.6,557.2 740,557.2 739.6,557.5 788.5,603.6 
						739.6,649.8 739.6,649.8 745,649.8 791.1,606.2 837.4,649.8 842.7,649.8 793.8,603.6 842.9,557.3 					"/>
					<rect x="724.9" y="708.4" class="st12" width="130.8" height="59.8"/>
					<text transform="matrix(1 0 0 1 730.7864 716.0811)"><tspan x="0" y="0" class="st1 st17 st21 st9">Lo</tspan><tspan x="13.3" y="0" class="st1 st17 st21">r</tspan><tspan x="17.7" y="0" class="st1 st17 st21 st9">em ipsum dolor sit </tspan><tspan x="7.4" y="12.4" class="st1 st17 st21 st9">amet, consectetuer </tspan><tspan x="8.6" y="24.7" class="st1 st17 st21 st9">adipiscing elit, sed </tspan><tspan x="4.8" y="37.1" class="st1 st17 st21 st9">diam nonummy nibh </tspan><tspan x="1.8" y="49.5" class="st1 st17 st21 st9">euismod tincidunt ut.</tspan></text>
					<text transform="matrix(1 0 0 1 761.76 694.2842)"><tspan x="0" y="0" class="st1 st22 st23 st9">Lo</tspan><tspan x="22.6" y="0" class="st1 st22 st23 st9">r</tspan><tspan x="30" y="0" class="st1 st22 st23 st9">em</tspan></text>
				</g>
				<g>
					<path class="st2" d="M918.5,784.1V533.6c0-6.7,5.4-12.1,12.1-12.1h147.7c6.7,0,12.1,5.4,12.1,12.1v250.5
						c0,6.7-5.4,12.1-12.1,12.1H930.5C923.9,796.2,918.5,790.8,918.5,784.1z"/>
					<rect x="939.1" y="542.2" class="st1" width="130.6" height="123.6"/>
					<rect x="938.1" y="708.4" class="st12" width="130.8" height="59.8"/>
					<text transform="matrix(1 0 0 1 943.9358 716.0811)"><tspan x="0" y="0" class="st1 st17 st21 st9">Lo</tspan><tspan x="13.3" y="0" class="st1 st17 st21">r</tspan><tspan x="17.7" y="0" class="st1 st17 st21 st9">em ipsum dolor sit </tspan><tspan x="7.4" y="12.4" class="st1 st17 st21 st9">amet, consectetuer </tspan><tspan x="8.6" y="24.7" class="st1 st17 st21 st9">adipiscing elit, sed </tspan><tspan x="4.8" y="37.1" class="st1 st17 st21 st9">diam nonummy nibh </tspan><tspan x="1.8" y="49.5" class="st1 st17 st21 st9">euismod tincidunt ut.</tspan></text>
					<text transform="matrix(1 0 0 1 974.9094 694.2842)"><tspan x="0" y="0" class="st1 st22 st23 st9">Lo</tspan><tspan x="22.6" y="0" class="st1 st22 st23 st9">r</tspan><tspan x="30" y="0" class="st1 st22 st23 st9">em</tspan></text>
					<polygon class="st13" points="1056.5,557.2 1051.2,557.2 1004.8,601.1 958.3,557.2 953.7,557.2 953.3,557.5 1002.1,603.6 
						953.3,649.8 953.3,649.8 958.6,649.8 1004.8,606.2 1051,649.8 1056.4,649.8 1007.5,603.6 1056.5,557.3 					"/>
				</g>
				<g>
					<path class="st2" d="M1129.9,784.1V533.6c0-6.7,5.4-12.1,12.1-12.1h147.7c6.7,0,12.1,5.4,12.1,12.1v250.5
						c0,6.7-5.4,12.1-12.1,12.1H1142C1135.3,796.2,1129.9,790.8,1129.9,784.1z"/>
					<path class="st1" d="M1150.5,660.4V547.5c0-2.9,2.4-5.3,5.3-5.3h120c2.9,0,5.3,2.4,5.3,5.3v112.9c0,2.9-2.4,5.3-5.3,5.3h-120
						C1152.9,665.8,1150.5,663.4,1150.5,660.4z"/>
					<rect x="1157.2" y="708.4" class="st12" width="130.8" height="59.8"/>
					<text transform="matrix(1 0 0 1 1163.0969 716.0811)"><tspan x="0" y="0" class="st1 st17 st21 st9">Lo</tspan><tspan x="13.3" y="0" class="st1 st17 st21">r</tspan><tspan x="17.7" y="0" class="st1 st17 st21 st9">em ipsum dolor sit </tspan><tspan x="7.4" y="12.4" class="st1 st17 st21 st9">amet, consectetuer </tspan><tspan x="8.6" y="24.7" class="st1 st17 st21 st9">adipiscing elit, sed </tspan><tspan x="4.8" y="37.1" class="st1 st17 st21 st9">diam nonummy nibh </tspan><tspan x="1.8" y="49.5" class="st1 st17 st21 st9">euismod tincidunt ut.</tspan></text>
					<text transform="matrix(1 0 0 1 1194.0715 694.2842)"><tspan x="0" y="0" class="st1 st22 st23 st9">Lo</tspan><tspan x="22.6" y="0" class="st1 st22 st23 st9">r</tspan><tspan x="30" y="0" class="st1 st22 st23 st9">em</tspan></text>
					<polygon class="st13" points="1267.2,557.2 1261.9,557.2 1215.4,601.1 1169,557.2 1164.4,557.2 1164,557.5 1212.8,603.6 
						1164,649.8 1164,649.8 1169.3,649.8 1215.5,606.2 1261.7,649.8 1267,649.8 1218.1,603.6 1267.2,557.3 					"/>
				</g>
			</g>
		</g>
	</g>
</g>
</svg>
