<?xml version="1.0" encoding="utf-8"?>
<!-- Generator: Adobe Illustrator 18.0.0, SVG Export Plug-In . SVG Version: 6.00 Build 0)  -->
<svg version="1.1" xmlns="http://www.w3.org/2000/svg" xmlns:xlink="http://www.w3.org/1999/xlink" x="0px" y="0px"
	 viewBox="0 0 1400 980" style="enable-background:new 0 0 1400 980;" xml:space="preserve">
<style type="text/css">
	.st0{fill:#FFFFFF;}
	.st1{opacity:0.1;}
	.st2{fill:#231F20;}
	.st3{fill:#D0D0D0;stroke:#000000;stroke-width:2;stroke-linecap:round;stroke-linejoin:round;stroke-miterlimit:10;}
	.st4{fill:#FFFFFF;stroke:#000000;stroke-width:2;stroke-linecap:round;stroke-linejoin:round;stroke-miterlimit:10;}
	.st5{fill:#FFFFFF;stroke:#000000;stroke-width:3.7018;stroke-miterlimit:10;}
	.st6{fill:#23BCA7;stroke:#000000;stroke-width:3.7018;stroke-linecap:round;stroke-linejoin:round;stroke-miterlimit:10;}
	.st7{fill:#FE735E;stroke:#000000;stroke-width:3.7018;stroke-miterlimit:10;}
	.st8{opacity:0.1;fill:#231F20;}
	.st9{fill:#FFFFFF;stroke:#000000;stroke-width:2.7431;stroke-linecap:round;stroke-linejoin:round;stroke-miterlimit:10;}
	.st10{fill:none;stroke:#D6D9DF;stroke-width:2.8529;stroke-linecap:round;stroke-linejoin:round;stroke-miterlimit:3;}
	.st11{fill:#FE735E;}
	.st12{font-family:'BebasNeue';}
	.st13{font-size:57.0147;}
	.st14{fill:#FFFFFF;stroke:#000000;stroke-width:3;stroke-miterlimit:10;}
	.st15{fill:none;stroke:#000000;stroke-width:3;stroke-linecap:round;stroke-linejoin:round;stroke-miterlimit:10;}
	.st16{fill:#FE735E;stroke:#000000;stroke-width:3;stroke-linecap:round;stroke-linejoin:round;stroke-miterlimit:10;}
	.st17{fill:#FFE6A6;stroke:#000000;stroke-width:3;stroke-miterlimit:10;}
	.st18{fill:#FFE6A6;stroke:#000000;stroke-width:4.727;stroke-miterlimit:10;}
	.st19{fill:#FFFFFF;stroke:#000000;stroke-width:5.4699;stroke-miterlimit:10;}
	.st20{opacity:0.3;}
	.st21{fill:#ECECEC;}
	.st22{fill:#AA323B;stroke:#000000;stroke-width:5.4699;stroke-miterlimit:10;}
	.st23{fill:#FFFFFF;stroke:#000000;stroke-width:4.727;stroke-miterlimit:10;}
	.st24{fill:#23BCA7;stroke:#000000;stroke-width:4.727;stroke-linecap:round;stroke-linejoin:round;stroke-miterlimit:10;}
	.st25{fill:none;stroke:#000000;stroke-width:5.7033;stroke-linecap:round;stroke-miterlimit:10;}
	.st26{fill:none;stroke:#009DDC;stroke-width:3.7731;stroke-linecap:round;stroke-linejoin:round;stroke-miterlimit:10;}
	.st27{fill:none;stroke:#17A53E;stroke-width:5.6596;stroke-linejoin:round;stroke-miterlimit:10;}
	.st28{fill:none;stroke:#17A53E;stroke-width:5.6596;stroke-linecap:round;stroke-miterlimit:10;}
	.st29{fill:#D5D9DF;}
	.st30{fill:#F8B567;stroke:#000000;stroke-width:2;stroke-miterlimit:10;}
	.st31{fill:#FFE6A6;stroke:#000000;stroke-width:2;stroke-miterlimit:10;}
	.st32{fill:#FFFFFF;stroke:#000000;stroke-miterlimit:10;}
	.st33{fill:#E6E7E8;}
	.st34{fill:#FFFFFF;stroke:#000000;stroke-width:2.7978;stroke-miterlimit:10;}
	.st35{fill:#F36E65;stroke:#000000;stroke-width:4.6064;stroke-miterlimit:10;}
	.st36{fill-rule:evenodd;clip-rule:evenodd;fill:#231F20;}
	.st37{fill-rule:evenodd;clip-rule:evenodd;fill:#FFFFFF;stroke:#000000;stroke-width:4;stroke-miterlimit:10;}
	.st38{fill-rule:evenodd;clip-rule:evenodd;stroke:#000000;stroke-width:4.727;stroke-miterlimit:10;}
	
		.st39{fill-rule:evenodd;clip-rule:evenodd;fill:#23BCA7;stroke:#000000;stroke-width:3;stroke-linecap:round;stroke-linejoin:round;stroke-miterlimit:10;}
	.st40{fill:#FFFFFF;stroke:#000000;stroke-width:4;stroke-linecap:round;stroke-linejoin:round;stroke-miterlimit:10;}
	.st41{stroke:#000000;stroke-width:4.727;stroke-miterlimit:10;}
	.st42{fill:#FFFFFF;stroke:#000000;stroke-width:4;stroke-miterlimit:10;}
</style>
<g id="Layer_2">
	<rect x="0" y="0" class="st0" width="1400" height="980"/>
</g>
<g id="Layer_3">
	<g>
		<g class="st1">
			<g>
				<polyline class="st2" points="384.5,118.6 383.2,159.7 438.7,149.1 				"/>
			</g>
			<g>
				<polyline class="st2" points="374.6,101.8 402.8,118.4 510.1,66.2 				"/>
			</g>
			<g>
				<polygon class="st2" points="557.7,51.4 434.6,176.4 384.5,118.6 510.1,66.2 374.6,101.8 348.1,87.6 				"/>
			</g>
		</g>
		<g>
			<g>
				<polyline class="st3" points="339.3,99.9 363.3,152.4 474.7,64.3 				"/>
			</g>
			<g>
				<polygon class="st4" points="522.4,49.5 399.2,174.5 349.2,116.7 474.7,64.3 339.3,99.9 312.8,85.7 				"/>
			</g>
		</g>
		<g>
			<path class="st2" d="M311,142.9l0.4,5.2c1.5-0.1,3-0.2,4.5-0.2l-0.2-5.2C314.1,142.7,312.5,142.8,311,142.9z"/>
		</g>
		<g>
			<path class="st2" d="M149.3,296.8l-4.3,2.9c0.9,1.3,1.6,2.5,2.2,3.7l0.1,0.2c0.7,1.1,1.3,2.3,1.8,3.5l4.8-1.9
				c-0.6-1.5-1.3-3-2.2-4.3C151.1,299.6,150.3,298.2,149.3,296.8z"/>
			<path class="st2" d="M143.1,535.6c1.5,2.7,3,5.4,4.4,7.9l4.6-2.5c-1.4-2.6-2.9-5.3-4.4-8.1L143.1,535.6z"/>
			<path class="st2" d="M148.9,323.3l4.9,1.7c1.2-3.3,1.8-6.5,1.9-9.7l-5.2-0.1C150.4,317.8,149.8,320.6,148.9,323.3z"/>
			<path class="st2" d="M158,552.7c-0.5-1.1-1.1-2.3-1.6-3.4l-4.7,2.3c0.5,1.1,1.1,2.2,1.6,3.2c0.7,1.6,1.3,3.3,1.9,4.9l4.9-1.8
				c-0.6-1.7-1.3-3.5-2-5.2L158,552.7z"/>
			<path class="st2" d="M165.2,575.8c-0.7-3.1-1.4-6.1-2.3-9l-5,1.4c0.8,2.8,1.5,5.8,2.2,8.7L165.2,575.8z"/>
			<path class="st2" d="M98.3,455.8c1.3,2.7,2.6,5.5,4,8.3l4.7-2.3c-1.3-2.7-2.7-5.5-3.9-8.2L98.3,455.8z"/>
			<path class="st2" d="M143.2,341.2c2.3-2.2,4.4-4.8,6.2-7.5l-4.3-2.9c-1.6,2.4-3.4,4.6-5.5,6.6L143.2,341.2z"/>
			<path class="st2" d="M136.3,283l-3.3,4c2.3,1.9,4.5,3.9,6.5,6l3.7-3.6C141.2,287.2,138.8,285.1,136.3,283z"/>
			<path class="st2" d="M125.7,345.6l-0.2,0.1c-0.2,0.1-0.3,0.1-0.5,0.2l1.6,4.9c0.2-0.1,0.4-0.1,0.6-0.2c2.8-0.7,5.6-1.9,8.4-3.5
				l-2.6-4.5C130.5,344,128.1,345,125.7,345.6z"/>
			<path class="st2" d="M133.9,519.9c1.6,2.6,3.1,5.2,4.7,7.8l4.5-2.6c-1.6-2.6-3.1-5.3-4.7-7.9L133.9,519.9z"/>
			<path class="st2" d="M78.4,404.4c0.9,2.9,1.8,5.9,2.8,8.8l4.9-1.6c-0.9-2.9-1.9-5.8-2.7-8.7L78.4,404.4z"/>
			<path class="st2" d="M65.1,332c0.1,3,0.3,6.1,0.6,9.2l5.2-0.5c-0.3-3.1-0.5-6.1-0.6-9L65.1,332z"/>
			<path class="st2" d="M76.8,376.5c-0.7-3.1-1.3-6-1.8-8.9l-5.1,1c0.6,2.9,1.2,5.9,1.9,9L76.8,376.5z"/>
			<path class="st2" d="M66.8,350.4c0.4,2.9,0.9,6,1.4,9.1l5.1-0.9c-0.5-3.1-1-6.1-1.4-9L66.8,350.4z"/>
			<path class="st2" d="M284.6,152l-1.1-5.1c-3,0.7-6,1.4-9,2.3l1.4,5C278.8,153.4,281.7,152.7,284.6,152z"/>
			<path class="st2" d="M128.4,510.8l0.8,1.3l4.4-2.7l-0.8-1.3c-1.3-2.2-2.6-4.3-4-6.5l-4.4,2.7C125.7,506.5,127,508.6,128.4,510.8z
				"/>
			<path class="st2" d="M110.6,480.5l4.6-2.4c-1.4-2.7-2.8-5.4-4.2-8.1l-4.6,2.4C107.7,475,109.1,477.8,110.6,480.5z"/>
			<path class="st2" d="M92.3,428.6c-1.1-2.8-2.2-5.7-3.2-8.5l-4.9,1.8c1,2.8,2.1,5.7,3.2,8.6L92.3,428.6z"/>
			<path class="st2" d="M119.7,496.5l4.5-2.7c-1.6-2.6-3.1-5.2-4.6-7.8l-4.5,2.6C116.5,491.2,118.1,493.8,119.7,496.5z"/>
			<path class="st2" d="M109,322.6c-0.3,3.3-0.4,6.5-0.2,9.6l5.2-0.4c-0.2-2.8-0.1-5.7,0.2-8.7L109,322.6z"/>
			<path class="st2" d="M116.2,344.5c-0.8-1-1.4-2.3-1.8-4l-5.1,1.2c0.6,2.4,1.5,4.4,2.8,6c1,1.3,2.2,2.3,3.6,3l2.3-4.6
				C117.3,345.7,116.7,345.1,116.2,344.5z"/>
			<path class="st2" d="M70.6,313.8l-5.2-0.4c-0.2,3-0.4,6.1-0.4,9.3l5.2,0.1C70.2,319.7,70.3,316.7,70.6,313.8z"/>
			<path class="st2" d="M111.6,269.3c-3.2-1-6.4-1.8-9.4-2.2l-0.7,5.1c2.7,0.3,5.5,1,8.4,1.9L111.6,269.3z"/>
			<path class="st2" d="M90.3,273c0.9-0.3,1.9-0.5,3-0.7l-0.8-5.1c-1.3,0.2-2.5,0.5-3.7,0.8c-2.1,0.7-4,1.5-5.8,2.6l2.7,4.4
				C87.1,274.2,88.6,273.5,90.3,273z"/>
			<path class="st2" d="M94.5,447.5l4.8-2.1c-1.2-2.8-2.4-5.6-3.6-8.3l-4.8,2C92,441.8,93.2,444.7,94.5,447.5z"/>
			<path class="st2" d="M115.7,314.5c0.7-2.7,1.5-5.6,2.5-8.5l-4.9-1.7c-1.1,3.1-2,6.1-2.7,9L115.7,314.5z"/>
			<path class="st2" d="M125.4,289.5l-4.6-2.3c-1.5,3-2.8,5.7-4,8.4l4.8,2.1C122.7,295,123.9,292.4,125.4,289.5z"/>
			<path class="st2" d="M72.6,296l-5.1-1.2c-0.7,3-1.2,6.1-1.5,9.4l5.2,0.5C71.5,301.7,72,298.8,72.6,296z"/>
			<path class="st2" d="M301.8,143.8c-3,0.4-6.1,0.8-9.2,1.4l0.9,5.1c2.9-0.5,5.9-1,8.9-1.3L301.8,143.8z"/>
			<path class="st2" d="M127,280.1l2.6,1.4c1.5-2.7,3-5.4,4.4-7.9l-4.5-2.6c-1,1.7-2,3.5-3,5.2c-2-1.2-4.1-2.3-6.1-3.3l-2.3,4.7
				c2.6,1.3,5.2,2.7,7.7,4.3L127,280.1z"/>
			<path class="st2" d="M73.7,386.5c0.6,2.7,1.3,5.4,1.9,8l0.2,0.9l5-1.3l-0.2-0.9c-0.6-2.6-1.3-5.3-1.9-7.9L73.7,386.5z"/>
			<path class="st2" d="M79.6,280.5l-4.1-3.2c-1.9,2.4-3.6,5.3-5,8.4l4.8,2.1C76.5,285.1,77.9,282.6,79.6,280.5z"/>
			<path class="st2" d="M203.3,192.4l1.1-0.8l-3.2-4.1l-1.1,0.9c-2,1.6-4.1,3.3-6.1,5l3.4,4C199.3,195.6,201.3,193.9,203.3,192.4z"
				/>
			<path class="st2" d="M234.4,171.5l-2.5-4.5c-2.7,1.5-5.4,3.1-8,4.7l2.7,4.4C229.1,174.5,231.8,172.9,234.4,171.5z"/>
			<path class="st2" d="M219,180.9l-2.9-4.3c-2.5,1.7-5.1,3.5-7.6,5.3l3.1,4.2C214,184.3,216.5,182.6,219,180.9z"/>
			<path class="st2" d="M250.5,163.4l-2.1-4.7c-2.8,1.2-5.6,2.5-8.4,3.9l2.3,4.6C245.1,165.9,247.8,164.6,250.5,163.4z"/>
			<path class="st2" d="M143.6,258.2l-4.3-2.9c-1.7,2.6-3.4,5.1-5,7.7l4.4,2.8C140.3,263.3,141.9,260.7,143.6,258.2z"/>
			<path class="st2" d="M267.3,156.9l-1.6-4.9c-2.9,1-5.8,2-8.7,3.2l1.9,4.8C261.6,158.8,264.5,157.8,267.3,156.9z"/>
			<path class="st2" d="M190.6,203.2l-3.5-3.8c-2.3,2-4.5,4.2-6.7,6.3l3.6,3.7C186.1,207.3,188.3,205.2,190.6,203.2z"/>
			<path class="st2" d="M154.1,243.4l-4.1-3.1c-1.8,2.4-3.7,4.9-5.4,7.4l4.2,3C150.5,248.3,152.3,245.8,154.1,243.4z"/>
			<path class="st2" d="M165.4,229.3l-4-3.4c-2,2.3-3.9,4.7-5.9,7.1l4.1,3.2C161.6,233.9,163.5,231.5,165.4,229.3z"/>
			<path class="st2" d="M177.6,215.8l-3.7-3.6c-2.1,2.2-4.2,4.4-6.3,6.7l3.9,3.5C173.4,220.2,175.5,218,177.6,215.8z"/>
		</g>
	</g>
</g>
<g id="Layer_4">
	<g>
		<circle class="st5" cx="307.5" cy="332.6" r="90.2"/>
		<circle class="st6" cx="307.5" cy="332.6" r="74.2"/>
		<circle class="st5" cx="307.5" cy="332.6" r="48.6"/>
		<circle class="st7" cx="307.5" cy="332.6" r="24.4"/>
		<g>
			<polygon class="st5" points="375.5,386.7 414.4,372.6 307.5,332.6 347.4,439.6 361.9,399.9 397.7,436.5 411.5,423.6 			"/>
		</g>
	</g>
</g>
<g id="Layer_7">
	<g>
		<path id="XMLID_25_" class="st8" d="M433.5,935H202.1c-4.2,0-7.6-3.4-7.6-7.6V658.8c0-4.2,3.4-7.6,7.6-7.6h231.4
			c4.2,0,7.6,3.4,7.6,7.6v268.7C441.1,931.6,437.7,935,433.5,935z"/>
		<g id="XMLID_23_">
			<path id="XMLID_24_" class="st9" d="M426.3,927.2H194.9c-4.2,0-7.6-3.4-7.6-7.6V650.9c0-4.2,3.4-7.6,7.6-7.6h231.4
				c4.2,0,7.6,3.4,7.6,7.6v268.7C433.9,923.8,430.5,927.2,426.3,927.2z"/>
		</g>
		<line id="XMLID_22_" class="st10" x1="207.4" y1="743.8" x2="395.1" y2="743.8"/>
		<line id="XMLID_21_" class="st10" x1="207.4" y1="756.2" x2="409" y2="756.2"/>
		<line id="XMLID_20_" class="st10" x1="207.4" y1="767.8" x2="377.2" y2="767.8"/>
		<line id="XMLID_19_" class="st10" x1="207.4" y1="780.2" x2="395.1" y2="780.2"/>
		<line id="XMLID_18_" class="st10" x1="207.4" y1="842.1" x2="395.1" y2="842.1"/>
		<line id="XMLID_17_" class="st10" x1="207.4" y1="854.5" x2="409" y2="854.5"/>
		<line id="XMLID_16_" class="st10" x1="207.4" y1="866.2" x2="377.2" y2="866.2"/>
		<line id="XMLID_10_" class="st10" x1="207.4" y1="685.3" x2="395.1" y2="685.3"/>
		<line id="XMLID_9_" class="st10" x1="207.4" y1="697.7" x2="409" y2="697.7"/>
		<line id="XMLID_6_" class="st10" x1="207.4" y1="709.3" x2="377.2" y2="709.3"/>
		<line id="XMLID_15_" class="st10" x1="207.4" y1="878.6" x2="395.1" y2="878.6"/>
		<line id="XMLID_14_" class="st10" x1="207.4" y1="791.8" x2="409" y2="791.8"/>
		<line id="XMLID_13_" class="st10" x1="207.4" y1="803.5" x2="377.2" y2="803.5"/>
		<path id="XMLID_45_" class="st8" d="M339.7,876.8H108.3c-4.2,0-7.6-3.4-7.6-7.6V600.6c0-4.2,3.4-7.6,7.6-7.6h231.4
			c4.2,0,7.6,3.4,7.6,7.6v268.7C347.3,873.4,343.9,876.8,339.7,876.8z"/>
		<g id="XMLID_65_">
			<path id="XMLID_100_" class="st9" d="M332.5,869H101.2c-4.2,0-7.6-3.4-7.6-7.6V592.7c0-4.2,3.4-7.6,7.6-7.6h231.4
				c4.2,0,7.6,3.4,7.6,7.6v268.7C340.2,865.6,336.8,869,332.5,869z"/>
		</g>
		<line id="XMLID_98_" class="st10" x1="113.7" y1="685.6" x2="301.3" y2="685.6"/>
		<line id="XMLID_97_" class="st10" x1="113.7" y1="698" x2="315.3" y2="698"/>
		<line id="XMLID_96_" class="st10" x1="113.7" y1="709.6" x2="283.5" y2="709.6"/>
		<line id="XMLID_95_" class="st10" x1="113.7" y1="722" x2="301.3" y2="722"/>
		<line id="XMLID_4_" class="st10" x1="113.7" y1="783.9" x2="301.3" y2="783.9"/>
		<line id="XMLID_3_" class="st10" x1="113.7" y1="796.3" x2="315.3" y2="796.3"/>
		<line id="XMLID_2_" class="st10" x1="113.7" y1="808" x2="283.5" y2="808"/>
		<line id="XMLID_1_" class="st10" x1="113.7" y1="820.4" x2="301.3" y2="820.4"/>
		<line id="XMLID_94_" class="st10" x1="113.7" y1="733.6" x2="315.3" y2="733.6"/>
		<line id="XMLID_93_" class="st10" x1="113.7" y1="745.3" x2="283.5" y2="745.3"/>
		<rect id="XMLID_83_" x="145.1" y="658.9" class="st11" width="145.8" height="6.2"/>
		<rect id="XMLID_5_" x="145.1" y="764.6" class="st11" width="145.8" height="6.2"/>
		<text id="XMLID_99_" transform="matrix(1 0 0 1 130.1641 639.6401)" class="st11 st12 st13">Contract</text>
	</g>
</g>
<g id="Layer_5">
	<circle class="st14" cx="1147.8" cy="36" r="7.7"/>
	<circle class="st14" cx="274.5" cy="488.1" r="7.7"/>
	<circle class="st14" cx="1335.7" cy="800" r="7.7"/>
	<circle class="st14" cx="55" cy="575.7" r="7.7"/>
	<circle class="st14" cx="493.9" cy="791.8" r="7.7"/>
	<circle class="st14" cx="907.6" cy="442.2" r="7.7"/>
	<circle class="st14" cx="1353.2" cy="405.6" r="7.7"/>
	<g>
		<line class="st14" x1="855.8" y1="36.5" x2="855.8" y2="52.7"/>
		<line class="st14" x1="847.7" y1="44.6" x2="863.9" y2="44.6"/>
	</g>
	<g>
		<line class="st14" x1="1271" y1="392.8" x2="1271" y2="408.9"/>
		<line class="st14" x1="1262.9" y1="400.9" x2="1279.1" y2="400.9"/>
	</g>
	<g>
		<line class="st14" x1="917.7" y1="751.8" x2="917.7" y2="768"/>
		<line class="st14" x1="909.6" y1="759.9" x2="925.8" y2="759.9"/>
	</g>
	<g>
		<line class="st14" x1="1345.1" y1="196.1" x2="1345.1" y2="212.3"/>
		<line class="st14" x1="1337" y1="204.2" x2="1353.2" y2="204.2"/>
	</g>
	<g>
		<line class="st14" x1="1352.5" y1="95.4" x2="1352.5" y2="111.6"/>
		<line class="st14" x1="1344.4" y1="103.5" x2="1360.5" y2="103.5"/>
	</g>
	<g>
		<line class="st14" x1="186.9" y1="500.7" x2="186.9" y2="516.9"/>
		<line class="st14" x1="178.8" y1="508.8" x2="195" y2="508.8"/>
	</g>
	<g>
		<line class="st14" x1="194.2" y1="400.1" x2="194.2" y2="416.3"/>
		<line class="st14" x1="186.2" y1="408.2" x2="202.3" y2="408.2"/>
	</g>
	<line class="st14" x1="813.7" y1="124.2" x2="839.7" y2="124.2"/>
	<line class="st14" x1="829" y1="115.6" x2="846.1" y2="115.6"/>
	<line class="st14" x1="1160.7" y1="434.2" x2="1186.7" y2="434.2"/>
	<line class="st14" x1="1176" y1="425.5" x2="1193.1" y2="425.5"/>
	<line class="st14" x1="999.9" y1="440.5" x2="943" y2="440.5"/>
	<line class="st14" x1="985.4" y1="448.2" x2="968.3" y2="448.2"/>
	<line class="st14" x1="1345.1" y1="281.1" x2="1288.1" y2="281.1"/>
	<line class="st14" x1="1330.5" y1="288.7" x2="1313.4" y2="288.7"/>
	<g>
		<line class="st14" x1="422.1" y1="475.7" x2="422.1" y2="491.9"/>
		<line class="st14" x1="414" y1="483.8" x2="430.2" y2="483.8"/>
	</g>
	<line class="st14" x1="422.1" y1="560.7" x2="365.2" y2="560.7"/>
	<line class="st14" x1="407.6" y1="568.3" x2="390.5" y2="568.3"/>
	<line class="st14" x1="550.9" y1="880.7" x2="493.9" y2="880.7"/>
	<line class="st14" x1="536.3" y1="888.3" x2="519.2" y2="888.3"/>
	<line class="st14" x1="667.3" y1="76" x2="764.6" y2="76"/>
	<line class="st14" x1="1265.2" y1="592.9" x2="1328.6" y2="592.9"/>
	<line class="st14" x1="1302.4" y1="584.3" x2="1344.2" y2="584.3"/>
	<line class="st14" x1="1254" y1="552.9" x2="1351.2" y2="552.9"/>
	<line class="st14" x1="92.9" y1="138.6" x2="156.3" y2="138.6"/>
	<line class="st14" x1="130.1" y1="129.9" x2="171.8" y2="129.9"/>
	<line class="st14" x1="81.6" y1="98.6" x2="178.8" y2="98.6"/>
	<g>
		<line class="st15" x1="603.2" y1="33.2" x2="603.2" y2="42.4"/>
		<line class="st15" x1="603.2" y1="53.2" x2="603.2" y2="62.4"/>
		<line class="st15" x1="617.8" y1="47.8" x2="608.6" y2="47.8"/>
		<line class="st15" x1="597.8" y1="47.8" x2="588.6" y2="47.8"/>
	</g>
	<g>
		<line class="st15" x1="937" y1="513.8" x2="937" y2="522.9"/>
		<line class="st15" x1="937" y1="533.8" x2="937" y2="542.9"/>
		<line class="st15" x1="951.6" y1="528.3" x2="942.4" y2="528.3"/>
		<line class="st15" x1="931.6" y1="528.3" x2="922.4" y2="528.3"/>
	</g>
	<g>
		<line class="st15" x1="50.4" y1="738.8" x2="50.4" y2="748"/>
		<line class="st15" x1="50.4" y1="758.8" x2="50.4" y2="768"/>
		<line class="st15" x1="65" y1="753.4" x2="55.8" y2="753.4"/>
		<line class="st15" x1="45" y1="753.4" x2="35.8" y2="753.4"/>
	</g>
	<g>
		<line class="st15" x1="1275.4" y1="794.4" x2="1275.4" y2="803.6"/>
		<line class="st15" x1="1275.4" y1="814.4" x2="1275.4" y2="823.6"/>
		<line class="st15" x1="1290" y1="809" x2="1280.8" y2="809"/>
		<line class="st15" x1="1270" y1="809" x2="1260.8" y2="809"/>
	</g>
</g>
<g id="Layer_6">
	<g>
		<g>
			<path class="st16" d="M631.2,239.2c-4.8,0-8.7,3.9-8.7,8.7c0,4.8,3.9,8.7,8.7,8.7c4.8,0,8.7-3.9,8.7-8.7
				C639.9,243.2,636,239.2,631.2,239.2z"/>
		</g>
		<g>
			<path class="st17" d="M631.2,317.5c-4.8,0-8.7,3.9-8.7,8.7c0,4.8,3.9,8.7,8.7,8.7c4.8,0,8.7-3.9,8.7-8.7
				C639.9,321.4,636,317.5,631.2,317.5z"/>
		</g>
		<g>
			<path class="st17" d="M670.3,278.4c-4.8,0-8.7,3.9-8.7,8.7c0,4.8,3.9,8.7,8.7,8.7c4.8,0,8.7-3.9,8.7-8.7
				C679,282.3,675.1,278.4,670.3,278.4z"/>
		</g>
		<g>
			<path class="st16" d="M600.8,287.1c0-4.8-3.9-8.7-8.7-8.7c-4.8,0-8.7,3.9-8.7,8.7c0,4.8,3.9,8.7,8.7,8.7
				C596.8,295.8,600.8,291.9,600.8,287.1z"/>
		</g>
		<g>
			<path class="st16" d="M665,265.6c3.4-3.4,3.4-8.9,0-12.3c-3.4-3.4-8.9-3.4-12.3,0c-3.4,3.4-3.4,8.9,0,12.3
				C656.1,269,661.6,269,665,265.6z"/>
		</g>
		<g>
			<path class="st16" d="M597.3,308.6c-3.4,3.4-3.4,8.9,0,12.3c3.4,3.4,8.9,3.4,12.3,0c3.4-3.4,3.4-8.9,0-12.3
				C606.3,305.2,600.7,305.2,597.3,308.6z"/>
		</g>
		<g>
			<path class="st17" d="M652.7,308.6c-3.4,3.4-3.4,8.9,0,12.3c3.4,3.4,8.9,3.4,12.4,0c3.4-3.4,3.4-8.9,0-12.3
				C661.6,305.2,656.1,305.2,652.7,308.6z"/>
		</g>
		<g>
			<path class="st16" d="M609.7,265.6c3.4-3.4,3.4-8.9,0-12.3c-3.4-3.4-8.9-3.4-12.3,0c-3.4,3.4-3.4,8.9,0,12.3
				C600.7,269,606.3,269,609.7,265.6z"/>
		</g>
	</g>
	<rect x="650.6" y="413.5" class="st18" width="206.5" height="487.2"/>
	<g>
		<g>
			<g>
				<defs>
					<path id="SVGID_1_" d="M476.9,688.6c0,25.9,21.2,47.1,47.1,47.1h211.7c25.9,0,47.1-21.2,47.1-47.1V186.5
						c0-25.9-21.2-47.1-47.1-47.1H524c-25.9,0-47.1,21.2-47.1,47.1V688.6z"/>
				</defs>
				<use xlink:href="#SVGID_1_"  style="overflow:visible;fill:#FE735E;"/>
				<clipPath id="SVGID_2_">
					<use xlink:href="#SVGID_1_"  style="overflow:visible;"/>
				</clipPath>
				<use xlink:href="#SVGID_1_"  style="overflow:visible;fill:none;stroke:#000000;stroke-width:5.4699;stroke-miterlimit:10;"/>
			</g>
		</g>
		<g>
			<g>
				<g>
					<g>
						<g>
							<rect x="491.5" y="223.5" class="st19" width="276.7" height="423.9"/>
						</g>
					</g>
				</g>
			</g>
		</g>
		<g class="st20">
			<g>
				<polygon class="st21" points="768.6,648.3 767,224.9 493.8,225.3 				"/>
			</g>
		</g>
		<g>
			<g>
				<g>
					<path class="st22" d="M594.5,688.3c0,6.6,5.4,12,12,12h44.7c6.6,0,12-5.4,12-12l0,0c0-6.6-5.4-12-12-12h-44.7
						C599.9,676.3,594.5,681.7,594.5,688.3L594.5,688.3z"/>
				</g>
			</g>
		</g>
		<g>
			<g>
				<g>
					<g>
						<path class="st22" d="M602.6,182.1c0,2.7,2.2,4.8,4.8,4.8h41.5c2.7,0,4.8-2.2,4.8-4.8l0,0c0-2.7-2.2-4.8-4.8-4.8h-41.5
							C604.7,177.2,602.6,179.4,602.6,182.1L602.6,182.1z"/>
					</g>
				</g>
			</g>
			<g>
				<g>
					<g>
						<path class="st22" d="M671.9,182.1c0,3.3,2.6,5.9,5.9,5.9c3.3,0,5.9-2.6,5.9-5.9c0-3.3-2.6-5.9-5.9-5.9
							C674.6,176.2,671.9,178.8,671.9,182.1z"/>
					</g>
				</g>
			</g>
		</g>
	</g>
	<path class="st18" d="M848,396.2l-62.6-54v558.4h86.3V450.3C871.7,429.8,863.1,410.2,848,396.2z"/>
	<rect x="644.3" y="797.5" class="st23" width="235.4" height="59.1"/>
	<rect x="633.8" y="856.5" class="st24" width="256.4" height="119"/>
	<path class="st18" d="M823.7,617.9l-90.3-97.2c-19.4-20.8-51.9-22-72.8-2.7l0,0c-20.8,19.4-22,51.9-2.7,72.8l69.7,75
		c-7.4,12.9-11.6,27.8-11.6,43.8c0,48.7,39.4,88.1,88.1,88.1c22.8,0,43.6-8.7,59.2-22.9"/>
	<line class="st25" x1="760.3" y1="589.6" x2="726.3" y2="622.5"/>
	<line class="st25" x1="771.9" y1="601.6" x2="737.9" y2="634.6"/>
	<path class="st19" d="M727,532.2c-14.7-15.8-39.4-16.7-55.2-2l0,0c-15.8,14.7-16.7,39.4-2,55.2l11.2,12l55-55.5L727,532.2z"/>
	<g>
		<polyline class="st26" points="509.9,336.4 509.9,470.3 751.9,470.3 		"/>
		<polyline class="st27" points="537.9,417.1 569,387.8 618.6,415.6 648.4,355.2 688,378.4 751.9,336.4 		"/>
		<polyline class="st28" points="737,335 752.4,336.4 748.6,351.1 		"/>
	</g>
	<g>
		<g>
			<path class="st16" d="M631.2,239.2c-4.8,0-8.7,3.9-8.7,8.7c0,4.8,3.9,8.7,8.7,8.7c4.8,0,8.7-3.9,8.7-8.7
				C639.9,243.2,636,239.2,631.2,239.2z"/>
		</g>
		<g>
			<path class="st17" d="M631.2,317.5c-4.8,0-8.7,3.9-8.7,8.7c0,4.8,3.9,8.7,8.7,8.7c4.8,0,8.7-3.9,8.7-8.7
				C639.9,321.4,636,317.5,631.2,317.5z"/>
		</g>
		<g>
			<path class="st17" d="M670.3,278.4c-4.8,0-8.7,3.9-8.7,8.7c0,4.8,3.9,8.7,8.7,8.7c4.8,0,8.7-3.9,8.7-8.7
				C679,282.3,675.1,278.4,670.3,278.4z"/>
		</g>
		<g>
			<path class="st16" d="M600.8,287.1c0-4.8-3.9-8.7-8.7-8.7c-4.8,0-8.7,3.9-8.7,8.7c0,4.8,3.9,8.7,8.7,8.7
				C596.8,295.8,600.8,291.9,600.8,287.1z"/>
		</g>
		<g>
			<path class="st16" d="M665,265.6c3.4-3.4,3.4-8.9,0-12.3c-3.4-3.4-8.9-3.4-12.3,0c-3.4,3.4-3.4,8.9,0,12.3
				C656.1,269,661.6,269,665,265.6z"/>
		</g>
		<g>
			<path class="st16" d="M597.3,308.6c-3.4,3.4-3.4,8.9,0,12.3c3.4,3.4,8.9,3.4,12.3,0c3.4-3.4,3.4-8.9,0-12.3
				C606.3,305.2,600.7,305.2,597.3,308.6z"/>
		</g>
		<g>
			<path class="st17" d="M652.7,308.6c-3.4,3.4-3.4,8.9,0,12.3c3.4,3.4,8.9,3.4,12.4,0c3.4-3.4,3.4-8.9,0-12.3
				C661.6,305.2,656.1,305.2,652.7,308.6z"/>
		</g>
		<g>
			<path class="st16" d="M609.7,265.6c3.4-3.4,3.4-8.9,0-12.3c-3.4-3.4-8.9-3.4-12.3,0c-3.4,3.4-3.4,8.9,0,12.3
				C600.7,269,606.3,269,609.7,265.6z"/>
		</g>
	</g>
</g>
<g id="Layer_8">
	<g>
		<g>
			<ellipse class="st29" cx="1147.3" cy="633.2" rx="44.7" ry="16.7"/>
			<path class="st30" d="M1071.3,625.3c0,1.7,0,7,0,8.1c0,9.2,20,16.7,44.7,16.7c24.7,0,44.7-7.5,44.7-16.7c0-1.1,0-5.7,0-7.7
				L1071.3,625.3z"/>
			<ellipse class="st31" cx="1115.9" cy="625.6" rx="44.7" ry="16.7"/>
			<g>
				<path class="st0" d="M1132.7,623.4c0.5,0,0.9,0.2,1.3,0.6c0.4,0.4,0.6,0.8,0.7,1.2c0.2,0.6,0.3,1.3,0.3,2.2
					c0,1.9-1.2,3.5-3.7,4.7c-2.5,1.2-6.1,1.9-10.8,2.2l-3.2,0.1h-2.5l-3.2-0.1c-4.7-0.3-8.3-1.1-10.8-2.3c-2.5-1.2-3.7-2.8-3.7-4.7
					c0-1.1,0.3-2.1,0.8-2.9c0.3-0.5,0.9-0.8,1.5-0.7l0.9,0.1c1,0.1,1.6,1.2,1.3,2.2c-0.1,0.4-0.2,0.8-0.2,1.2
					c0,2.4,3.4,3.7,10.2,4.1v-4.6c0-1,0.8-1.7,1.8-1.6h0c0.8,0.1,1.4,0.8,1.4,1.6v4.7h2.5v-4.1c0-1,0.8-1.7,1.8-1.6l0,0
					c0.8,0.1,1.4,0.8,1.4,1.6v4c6.8-0.4,10.2-1.8,10.2-4.3c0-0.6-0.1-1.2-0.4-1.7c-0.3-0.5-0.4-0.8,0-1.5
					C1130.4,623.4,1132.7,623.4,1132.7,623.4z"/>
			</g>
		</g>
		<g>
			<path class="st30" d="M1071.3,616.1c0,1.7,0,7,0,8.1c0,9.2,20,16.7,44.7,16.7c24.7,0,44.7-7.5,44.7-16.7c0-1.1,0-5.7,0-7.7
				L1071.3,616.1z"/>
			<ellipse class="st31" cx="1115.9" cy="616.5" rx="44.7" ry="16.7"/>
			<g>
				<path class="st0" d="M1132.7,614.3c0.5,0,0.9,0.2,1.3,0.6c0.4,0.4,0.6,0.8,0.7,1.2c0.2,0.6,0.3,1.3,0.3,2.2
					c0,1.9-1.2,3.5-3.7,4.7c-2.5,1.2-6.1,1.9-10.8,2.2l-3.2,0.1h-2.5l-3.2-0.1c-4.7-0.3-8.3-1.1-10.8-2.3c-2.5-1.2-3.7-2.8-3.7-4.7
					c0-1.1,0.3-2.1,0.8-2.9c0.3-0.5,0.9-0.8,1.5-0.7l0.9,0.1c1,0.1,1.6,1.2,1.3,2.2c-0.1,0.4-0.2,0.8-0.2,1.2
					c0,2.4,3.4,3.7,10.2,4.1v-4.6c0-1,0.8-1.7,1.8-1.6h0c0.8,0.1,1.4,0.8,1.4,1.6v4.7h2.5v-4.1c0-1,0.8-1.7,1.8-1.6l0,0
					c0.8,0.1,1.4,0.8,1.4,1.6v4c6.8-0.4,10.2-1.8,10.2-4.3c0-0.6-0.1-1.2-0.4-1.7c-0.3-0.5-0.4-0.8,0-1.5
					C1130.4,614.2,1132.7,614.3,1132.7,614.3z"/>
			</g>
		</g>
		<g>
			<path class="st30" d="M1071.3,606.9c0,1.7,0,7,0,8.1c0,9.2,20,16.7,44.7,16.7c24.7,0,44.7-7.5,44.7-16.7c0-1.1,0-5.7,0-7.7
				L1071.3,606.9z"/>
			<ellipse class="st31" cx="1115.9" cy="607.3" rx="44.7" ry="16.7"/>
			<g>
				<path class="st0" d="M1132.7,605.1c0.5,0,0.9,0.2,1.3,0.6c0.4,0.4,0.6,0.8,0.7,1.2c0.2,0.6,0.3,1.3,0.3,2.2
					c0,1.9-1.2,3.5-3.7,4.7c-2.5,1.2-6.1,1.9-10.8,2.2l-3.2,0.1h-2.5l-3.2-0.1c-4.7-0.3-8.3-1.1-10.8-2.3c-2.5-1.2-3.7-2.8-3.7-4.7
					c0-1.1,0.3-2.1,0.8-2.9c0.3-0.5,0.9-0.8,1.5-0.7l0.9,0.1c1,0.1,1.6,1.2,1.3,2.2c-0.1,0.4-0.2,0.8-0.2,1.2
					c0,2.4,3.4,3.7,10.2,4.1v-4.6c0-1,0.8-1.7,1.8-1.6h0c0.8,0.1,1.4,0.8,1.4,1.6v4.7h2.5v-4.1c0-1,0.8-1.7,1.8-1.6l0,0
					c0.8,0.1,1.4,0.8,1.4,1.6v4c6.8-0.4,10.2-1.8,10.2-4.3c0-0.6-0.1-1.2-0.4-1.7c-0.3-0.5-0.4-0.8,0-1.5
					C1130.4,605.1,1132.7,605.1,1132.7,605.1z"/>
			</g>
		</g>
		<g>
			<path class="st30" d="M1071.3,597.8c0,1.7,0,7,0,8.1c0,9.2,20,16.7,44.7,16.7c24.7,0,44.7-7.5,44.7-16.7c0-1.1,0-5.7,0-7.7
				L1071.3,597.8z"/>
			<ellipse class="st31" cx="1115.9" cy="598.2" rx="44.7" ry="16.7"/>
			<g>
				<path class="st0" d="M1132.7,595.9c0.5,0,0.9,0.2,1.3,0.6c0.4,0.4,0.6,0.8,0.7,1.2c0.2,0.6,0.3,1.3,0.3,2.2
					c0,1.9-1.2,3.5-3.7,4.7c-2.5,1.2-6.1,1.9-10.8,2.2l-3.2,0.1h-2.5l-3.2-0.1c-4.7-0.3-8.3-1.1-10.8-2.3c-2.5-1.2-3.7-2.8-3.7-4.7
					c0-1.1,0.3-2.1,0.8-2.9c0.3-0.5,0.9-0.8,1.5-0.7l0.9,0.1c1,0.1,1.6,1.2,1.3,2.2c-0.1,0.4-0.2,0.8-0.2,1.2
					c0,2.4,3.4,3.7,10.2,4.1v-4.6c0-1,0.8-1.7,1.8-1.6h0c0.8,0.1,1.4,0.8,1.4,1.6v4.7h2.5v-4.1c0-1,0.8-1.7,1.8-1.6l0,0
					c0.8,0.1,1.4,0.8,1.4,1.6v4c6.8-0.4,10.2-1.8,10.2-4.3c0-0.6-0.1-1.2-0.4-1.7c-0.3-0.5-0.4-0.8,0-1.5
					C1130.4,595.9,1132.7,595.9,1132.7,595.9z"/>
			</g>
		</g>
		<g>
			<path class="st30" d="M1071.3,588.6c0,1.7,0,7,0,8.1c0,9.2,20,16.7,44.7,16.7c24.7,0,44.7-7.5,44.7-16.7c0-1.1,0-5.7,0-7.7
				L1071.3,588.6z"/>
			<ellipse class="st31" cx="1115.9" cy="589" rx="44.7" ry="16.7"/>
			<g>
				<path class="st0" d="M1132.7,586.8c0.5,0,0.9,0.2,1.3,0.6c0.4,0.4,0.6,0.8,0.7,1.2c0.2,0.6,0.3,1.3,0.3,2.2
					c0,1.9-1.2,3.5-3.7,4.7c-2.5,1.2-6.1,1.9-10.8,2.2l-3.2,0.1h-2.5l-3.2-0.1c-4.7-0.3-8.3-1.1-10.8-2.3c-2.5-1.2-3.7-2.8-3.7-4.7
					c0-1.1,0.3-2.1,0.8-2.9c0.3-0.5,0.9-0.8,1.5-0.7l0.9,0.1c1,0.1,1.6,1.2,1.3,2.2c-0.1,0.4-0.2,0.8-0.2,1.2
					c0,2.4,3.4,3.7,10.2,4.1V590c0-1,0.8-1.7,1.8-1.6h0c0.8,0.1,1.4,0.8,1.4,1.6v4.7h2.5v-4.1c0-1,0.8-1.7,1.8-1.6l0,0
					c0.8,0.1,1.4,0.8,1.4,1.6v4c6.8-0.4,10.2-1.8,10.2-4.3c0-0.6-0.1-1.2-0.4-1.7c-0.3-0.5-0.4-0.8,0-1.5
					C1130.4,586.8,1132.7,586.8,1132.7,586.8z"/>
			</g>
		</g>
		<g>
			<path class="st30" d="M1071.3,579.5c0,1.7,0,7,0,8.1c0,9.2,20,16.7,44.7,16.7c24.7,0,44.7-7.5,44.7-16.7c0-1.1,0-5.7,0-7.7
				L1071.3,579.5z"/>
			<ellipse class="st31" cx="1115.9" cy="579.8" rx="44.7" ry="16.7"/>
			<g>
				<path class="st0" d="M1132.7,577.6c0.5,0,0.9,0.2,1.3,0.6c0.4,0.4,0.6,0.8,0.7,1.2c0.2,0.6,0.3,1.3,0.3,2.2
					c0,1.9-1.2,3.5-3.7,4.7c-2.5,1.2-6.1,1.9-10.8,2.2l-3.2,0.1h-2.5l-3.2-0.1c-4.7-0.3-8.3-1.1-10.8-2.3c-2.5-1.2-3.7-2.8-3.7-4.7
					c0-1.1,0.3-2.1,0.8-2.9c0.3-0.5,0.9-0.8,1.5-0.7l0.9,0.1c1,0.1,1.6,1.2,1.3,2.2c-0.1,0.4-0.2,0.8-0.2,1.2
					c0,2.4,3.4,3.7,10.2,4.1v-4.6c0-1,0.8-1.7,1.8-1.6h0c0.8,0.1,1.4,0.8,1.4,1.6v4.7h2.5v-4.1c0-1,0.8-1.7,1.8-1.6l0,0
					c0.8,0.1,1.4,0.8,1.4,1.6v4c6.8-0.4,10.2-1.8,10.2-4.3c0-0.6-0.1-1.2-0.4-1.7c-0.3-0.5-0.4-0.8,0-1.5
					C1130.4,577.6,1132.7,577.6,1132.7,577.6z"/>
			</g>
		</g>
		<g>
			<path class="st30" d="M1071.3,570.3c0,1.7,0,7,0,8.1c0,9.2,20,16.7,44.7,16.7c24.7,0,44.7-7.5,44.7-16.7c0-1.1,0-5.7,0-7.7
				L1071.3,570.3z"/>
			<ellipse class="st31" cx="1115.9" cy="570.7" rx="44.7" ry="16.7"/>
			<g>
				<path class="st0" d="M1132.7,568.5c0.5,0,0.9,0.2,1.3,0.6c0.4,0.4,0.6,0.8,0.7,1.2c0.2,0.6,0.3,1.3,0.3,2.2
					c0,1.9-1.2,3.5-3.7,4.7c-2.5,1.2-6.1,1.9-10.8,2.2l-3.2,0.1h-2.5l-3.2-0.1c-4.7-0.3-8.3-1.1-10.8-2.3c-2.5-1.2-3.7-2.8-3.7-4.7
					c0-1.1,0.3-2.1,0.8-2.9c0.3-0.5,0.9-0.8,1.5-0.7l0.9,0.1c1,0.1,1.6,1.2,1.3,2.2c-0.1,0.4-0.2,0.8-0.2,1.2
					c0,2.4,3.4,3.7,10.2,4.1v-4.6c0-1,0.8-1.7,1.8-1.6h0c0.8,0.1,1.4,0.8,1.4,1.6v4.7h2.5v-4.1c0-1,0.8-1.7,1.8-1.6l0,0
					c0.8,0.1,1.4,0.8,1.4,1.6v4c6.8-0.4,10.2-1.8,10.2-4.3c0-0.6-0.1-1.2-0.4-1.7c-0.3-0.5-0.4-0.8,0-1.5
					C1130.4,568.4,1132.7,568.5,1132.7,568.5z"/>
			</g>
		</g>
		<g>
			<path class="st30" d="M1071.3,561.1c0,1.7,0,7,0,8.1c0,9.2,20,16.7,44.7,16.7c24.7,0,44.7-7.5,44.7-16.7c0-1.1,0-5.7,0-7.7
				L1071.3,561.1z"/>
			<ellipse class="st31" cx="1115.9" cy="561.5" rx="44.7" ry="16.7"/>
			<g>
				<path class="st0" d="M1132.7,559.3c0.5,0,0.9,0.2,1.3,0.6c0.4,0.4,0.6,0.8,0.7,1.2c0.2,0.6,0.3,1.3,0.3,2.2
					c0,1.9-1.2,3.5-3.7,4.7c-2.5,1.2-6.1,1.9-10.8,2.2l-3.2,0.1h-2.5l-3.2-0.1c-4.7-0.3-8.3-1.1-10.8-2.3c-2.5-1.2-3.7-2.8-3.7-4.7
					c0-1.1,0.3-2.1,0.8-2.9c0.3-0.5,0.9-0.8,1.5-0.7l0.9,0.1c1,0.1,1.6,1.2,1.3,2.2c-0.1,0.4-0.2,0.8-0.2,1.2
					c0,2.4,3.4,3.7,10.2,4.1v-4.6c0-1,0.8-1.7,1.8-1.6h0c0.8,0.1,1.4,0.8,1.4,1.6v4.7h2.5v-4.1c0-1,0.8-1.7,1.8-1.6l0,0
					c0.8,0.1,1.4,0.8,1.4,1.6v4c6.8-0.4,10.2-1.8,10.2-4.3c0-0.6-0.1-1.2-0.4-1.7c-0.3-0.5-0.4-0.8,0-1.5
					C1130.4,559.3,1132.7,559.3,1132.7,559.3z"/>
			</g>
		</g>
		<g>
			<path class="st30" d="M1071.3,552c0,1.7,0,7,0,8.1c0,9.2,20,16.7,44.7,16.7c24.7,0,44.7-7.5,44.7-16.7c0-1.1,0-5.7,0-7.7
				L1071.3,552z"/>
			<ellipse class="st31" cx="1115.9" cy="552.4" rx="44.7" ry="16.7"/>
			<g>
				<path class="st0" d="M1132.7,550.2c0.5,0,0.9,0.2,1.3,0.6c0.4,0.4,0.6,0.8,0.7,1.2c0.2,0.6,0.3,1.3,0.3,2.2
					c0,1.9-1.2,3.5-3.7,4.7c-2.5,1.2-6.1,1.9-10.8,2.2l-3.2,0.1h-2.5l-3.2-0.1c-4.7-0.3-8.3-1.1-10.8-2.3c-2.5-1.2-3.7-2.8-3.7-4.7
					c0-1.1,0.3-2.1,0.8-2.9c0.3-0.5,0.9-0.8,1.5-0.7l0.9,0.1c1,0.1,1.6,1.2,1.3,2.2c-0.1,0.4-0.2,0.8-0.2,1.2
					c0,2.4,3.4,3.7,10.2,4.1v-4.6c0-1,0.8-1.7,1.8-1.6h0c0.8,0.1,1.4,0.8,1.4,1.6v4.7h2.5V554c0-1,0.8-1.7,1.8-1.6l0,0
					c0.8,0.1,1.4,0.8,1.4,1.6v4c6.8-0.4,10.2-1.8,10.2-4.3c0-0.6-0.1-1.2-0.4-1.7c-0.3-0.5-0.4-0.8,0-1.5
					C1130.4,550.1,1132.7,550.2,1132.7,550.2z"/>
			</g>
		</g>
		<g>
			<path class="st30" d="M1071.3,542.6c0,1.7,0,7,0,8.1c0,9.2,20,16.7,44.7,16.7c24.7,0,44.7-7.5,44.7-16.7c0-1.1,0-5.7,0-7.7
				L1071.3,542.6z"/>
			<ellipse class="st31" cx="1115.9" cy="543" rx="44.7" ry="16.7"/>
			<g>
				<path class="st0" d="M1132.7,540.8c0.5,0,0.9,0.2,1.3,0.6c0.4,0.4,0.6,0.8,0.7,1.2c0.2,0.6,0.3,1.3,0.3,2.2
					c0,1.9-1.2,3.5-3.7,4.7c-2.5,1.2-6.1,1.9-10.8,2.2l-3.2,0.1h-2.5l-3.2-0.1c-4.7-0.3-8.3-1.1-10.8-2.3c-2.5-1.2-3.7-2.8-3.7-4.7
					c0-1.1,0.3-2.1,0.8-2.9c0.3-0.5,0.9-0.8,1.5-0.7l0.9,0.1c1,0.1,1.6,1.2,1.3,2.2c-0.1,0.4-0.2,0.8-0.2,1.2
					c0,2.4,3.4,3.7,10.2,4.1V544c0-1,0.8-1.7,1.8-1.6h0c0.8,0.1,1.4,0.8,1.4,1.6v4.7h2.5v-4.1c0-1,0.8-1.7,1.8-1.6l0,0
					c0.8,0.1,1.4,0.8,1.4,1.6v4c6.8-0.4,10.2-1.8,10.2-4.3c0-0.6-0.1-1.2-0.4-1.7c-0.3-0.5-0.4-0.8,0-1.5
					C1130.4,540.8,1132.7,540.8,1132.7,540.8z"/>
			</g>
		</g>
		<g>
			<path class="st30" d="M1071.3,533.2c0,1.7,0,7,0,8.1c0,9.2,20,16.7,44.7,16.7c24.7,0,44.7-7.5,44.7-16.7c0-1.1,0-5.7,0-7.7
				L1071.3,533.2z"/>
			<ellipse class="st31" cx="1115.9" cy="533.6" rx="44.7" ry="16.7"/>
			<g>
				<path class="st0" d="M1132.7,531.4c0.5,0,0.9,0.2,1.3,0.6c0.4,0.4,0.6,0.8,0.7,1.2c0.2,0.6,0.3,1.3,0.3,2.2
					c0,1.9-1.2,3.5-3.7,4.7c-2.5,1.2-6.1,1.9-10.8,2.2l-3.2,0.1h-2.5l-3.2-0.1c-4.7-0.3-8.3-1.1-10.8-2.3c-2.5-1.2-3.7-2.8-3.7-4.7
					c0-1.1,0.3-2.1,0.8-2.9c0.3-0.5,0.9-0.8,1.5-0.7l0.9,0.1c1,0.1,1.6,1.2,1.3,2.2c-0.1,0.4-0.2,0.8-0.2,1.2
					c0,2.4,3.4,3.7,10.2,4.1v-4.6c0-1,0.8-1.7,1.8-1.6h0c0.8,0.1,1.4,0.8,1.4,1.6v4.7h2.5v-4.1c0-1,0.8-1.7,1.8-1.6l0,0
					c0.8,0.1,1.4,0.8,1.4,1.6v4c6.8-0.4,10.2-1.8,10.2-4.3c0-0.6-0.1-1.2-0.4-1.7c-0.3-0.5-0.4-0.8,0-1.5
					C1130.4,531.4,1132.7,531.4,1132.7,531.4z"/>
			</g>
		</g>
		<g>
			<path class="st30" d="M1071.3,523.9c0,1.7,0,7,0,8.1c0,9.2,20,16.7,44.7,16.7c24.7,0,44.7-7.5,44.7-16.7c0-1.1,0-5.7,0-7.7
				L1071.3,523.9z"/>
			<ellipse class="st31" cx="1115.9" cy="524.2" rx="44.7" ry="16.7"/>
			<g>
				<path class="st0" d="M1132.7,522c0.5,0,0.9,0.2,1.3,0.6c0.4,0.4,0.6,0.8,0.7,1.2c0.2,0.6,0.3,1.3,0.3,2.2c0,1.9-1.2,3.5-3.7,4.7
					c-2.5,1.2-6.1,1.9-10.8,2.2l-3.2,0.1h-2.5l-3.2-0.1c-4.7-0.3-8.3-1.1-10.8-2.3c-2.5-1.2-3.7-2.8-3.7-4.7c0-1.1,0.3-2.1,0.8-2.9
					c0.3-0.5,0.9-0.8,1.5-0.7l0.9,0.1c1,0.1,1.6,1.2,1.3,2.2c-0.1,0.4-0.2,0.8-0.2,1.2c0,2.4,3.4,3.7,10.2,4.1v-4.6
					c0-1,0.8-1.7,1.8-1.6h0c0.8,0.1,1.4,0.8,1.4,1.6v4.7h2.5v-4.1c0-1,0.8-1.7,1.8-1.6l0,0c0.8,0.1,1.4,0.8,1.4,1.6v4
					c6.8-0.4,10.2-1.8,10.2-4.3c0-0.6-0.1-1.2-0.4-1.7c-0.3-0.5-0.4-0.8,0-1.5C1130.4,522,1132.7,522,1132.7,522z"/>
			</g>
		</g>
		<g>
			<path class="st30" d="M1071.3,514.5c0,1.7,0,7,0,8.1c0,9.2,20,16.7,44.7,16.7c24.7,0,44.7-7.5,44.7-16.7c0-1.1,0-5.7,0-7.7
				L1071.3,514.5z"/>
			<ellipse class="st31" cx="1115.9" cy="514.9" rx="44.7" ry="16.7"/>
			<g>
				<path class="st0" d="M1132.7,512.6c0.5,0,0.9,0.2,1.3,0.6c0.4,0.4,0.6,0.8,0.7,1.2c0.2,0.6,0.3,1.3,0.3,2.2
					c0,1.9-1.2,3.5-3.7,4.7c-2.5,1.2-6.1,1.9-10.8,2.2l-3.2,0.1h-2.5l-3.2-0.1c-4.7-0.3-8.3-1.1-10.8-2.3c-2.5-1.2-3.7-2.8-3.7-4.7
					c0-1.1,0.3-2.1,0.8-2.9c0.3-0.5,0.9-0.8,1.5-0.7l0.9,0.1c1,0.1,1.6,1.2,1.3,2.2c-0.1,0.4-0.2,0.8-0.2,1.2
					c0,2.4,3.4,3.7,10.2,4.1v-4.6c0-1,0.8-1.7,1.8-1.6h0c0.8,0.1,1.4,0.8,1.4,1.6v4.7h2.5v-4.1c0-1,0.8-1.7,1.8-1.6l0,0
					c0.8,0.1,1.4,0.8,1.4,1.6v4c6.8-0.4,10.2-1.8,10.2-4.3c0-0.6-0.1-1.2-0.4-1.7c-0.3-0.5-0.4-0.8,0-1.5
					C1130.4,512.6,1132.7,512.6,1132.7,512.6z"/>
			</g>
		</g>
		<g>
			<path class="st30" d="M1071.3,505.1c0,1.7,0,7,0,8.1c0,9.2,20,16.7,44.7,16.7c24.7,0,44.7-7.5,44.7-16.7c0-1.1,0-5.7,0-7.7
				L1071.3,505.1z"/>
			<ellipse class="st31" cx="1115.9" cy="505.5" rx="44.7" ry="16.7"/>
			<g>
				<path class="st0" d="M1132.7,503.3c0.5,0,0.9,0.2,1.3,0.6c0.4,0.4,0.6,0.8,0.7,1.2c0.2,0.6,0.3,1.3,0.3,2.2
					c0,1.9-1.2,3.5-3.7,4.7c-2.5,1.2-6.1,1.9-10.8,2.2l-3.2,0.1h-2.5l-3.2-0.1c-4.7-0.3-8.3-1.1-10.8-2.3c-2.5-1.2-3.7-2.8-3.7-4.7
					c0-1.1,0.3-2.1,0.8-2.9c0.3-0.5,0.9-0.8,1.5-0.7l0.9,0.1c1,0.1,1.6,1.2,1.3,2.2c-0.1,0.4-0.2,0.8-0.2,1.2
					c0,2.4,3.4,3.7,10.2,4.1v-4.6c0-1,0.8-1.7,1.8-1.6h0c0.8,0.1,1.4,0.8,1.4,1.6v4.7h2.5v-4.1c0-1,0.8-1.7,1.8-1.6l0,0
					c0.8,0.1,1.4,0.8,1.4,1.6v4c6.8-0.4,10.2-1.8,10.2-4.3c0-0.6-0.1-1.2-0.4-1.7c-0.3-0.5-0.4-0.8,0-1.5
					C1130.4,503.2,1132.7,503.3,1132.7,503.3z"/>
			</g>
		</g>
		<g>
			<path class="st30" d="M1071.3,495.7c0,1.7,0,7,0,8.1c0,9.2,20,16.7,44.7,16.7c24.7,0,44.7-7.5,44.7-16.7c0-1.1,0-5.7,0-7.7
				L1071.3,495.7z"/>
			<ellipse class="st31" cx="1115.9" cy="496.1" rx="44.7" ry="16.7"/>
			<g>
				<path class="st0" d="M1132.7,493.9c0.5,0,0.9,0.2,1.3,0.6c0.4,0.4,0.6,0.8,0.7,1.2c0.2,0.6,0.3,1.3,0.3,2.2
					c0,1.9-1.2,3.5-3.7,4.7c-2.5,1.2-6.1,1.9-10.8,2.2l-3.2,0.1h-2.5l-3.2-0.1c-4.7-0.3-8.3-1.1-10.8-2.3c-2.5-1.2-3.7-2.8-3.7-4.7
					c0-1.1,0.3-2.1,0.8-2.9c0.3-0.5,0.9-0.8,1.5-0.7l0.9,0.1c1,0.1,1.6,1.2,1.3,2.2c-0.1,0.4-0.2,0.8-0.2,1.2
					c0,2.4,3.4,3.7,10.2,4.1v-4.6c0-1,0.8-1.7,1.8-1.6h0c0.8,0.1,1.4,0.8,1.4,1.6v4.7h2.5v-4.1c0-1,0.8-1.7,1.8-1.6l0,0
					c0.8,0.1,1.4,0.8,1.4,1.6v4c6.8-0.4,10.2-1.8,10.2-4.3c0-0.6-0.1-1.2-0.4-1.7c-0.3-0.5-0.4-0.8,0-1.5
					C1130.4,493.9,1132.7,493.9,1132.7,493.9z"/>
			</g>
		</g>
		<g>
			<path class="st30" d="M1071.3,486.3c0,1.7,0,7,0,8.1c0,9.2,20,16.7,44.7,16.7c24.7,0,44.7-7.5,44.7-16.7c0-1.1,0-5.7,0-7.7
				L1071.3,486.3z"/>
			<ellipse class="st31" cx="1115.9" cy="486.7" rx="44.7" ry="16.7"/>
			<g>
				<path class="st0" d="M1132.7,484.5c0.5,0,0.9,0.2,1.3,0.6c0.4,0.4,0.6,0.8,0.7,1.2c0.2,0.6,0.3,1.3,0.3,2.2
					c0,1.9-1.2,3.5-3.7,4.7c-2.5,1.2-6.1,1.9-10.8,2.2l-3.2,0.1h-2.5l-3.2-0.1c-4.7-0.3-8.3-1.1-10.8-2.3c-2.5-1.2-3.7-2.8-3.7-4.7
					c0-1.1,0.3-2.1,0.8-2.9c0.3-0.5,0.9-0.8,1.5-0.7l0.9,0.1c1,0.1,1.6,1.2,1.3,2.2c-0.1,0.4-0.2,0.8-0.2,1.2
					c0,2.4,3.4,3.7,10.2,4.1v-4.6c0-1,0.8-1.7,1.8-1.6h0c0.8,0.1,1.4,0.8,1.4,1.6v4.7h2.5v-4.1c0-1,0.8-1.7,1.8-1.6l0,0
					c0.8,0.1,1.4,0.8,1.4,1.6v4c6.8-0.4,10.2-1.8,10.2-4.3c0-0.6-0.1-1.2-0.4-1.7c-0.3-0.5-0.4-0.8,0-1.5
					C1130.4,484.5,1132.7,484.5,1132.7,484.5z"/>
			</g>
		</g>
		<g>
			<path class="st30" d="M1071.3,476.9c0,1.7,0,7,0,8.1c0,9.2,20,16.7,44.7,16.7c24.7,0,44.7-7.5,44.7-16.7c0-1.1,0-5.7,0-7.7
				L1071.3,476.9z"/>
			<ellipse class="st31" cx="1115.9" cy="477.3" rx="44.7" ry="16.7"/>
			<g>
				<path class="st0" d="M1132.7,475.1c0.5,0,0.9,0.2,1.3,0.6c0.4,0.4,0.6,0.8,0.7,1.2c0.2,0.6,0.3,1.3,0.3,2.2
					c0,1.9-1.2,3.5-3.7,4.7c-2.5,1.2-6.1,1.9-10.8,2.2l-3.2,0.1h-2.5l-3.2-0.1c-4.7-0.3-8.3-1.1-10.8-2.3c-2.5-1.2-3.7-2.8-3.7-4.7
					c0-1.1,0.3-2.1,0.8-2.9c0.3-0.5,0.9-0.8,1.5-0.7l0.9,0.1c1,0.1,1.6,1.2,1.3,2.2c-0.1,0.4-0.2,0.8-0.2,1.2
					c0,2.4,3.4,3.7,10.2,4.1v-4.6c0-1,0.8-1.7,1.8-1.6h0c0.8,0.1,1.4,0.8,1.4,1.6v4.7h2.5v-4.1c0-1,0.8-1.7,1.8-1.6l0,0
					c0.8,0.1,1.4,0.8,1.4,1.6v4c6.8-0.4,10.2-1.8,10.2-4.3c0-0.6-0.1-1.2-0.4-1.7c-0.3-0.5-0.4-0.8,0-1.5
					C1130.4,475.1,1132.7,475.1,1132.7,475.1z"/>
			</g>
		</g>
		<g>
			<path class="st30" d="M1071.3,467.5c0,1.7,0,7,0,8.1c0,9.2,20,16.7,44.7,16.7c24.7,0,44.7-7.5,44.7-16.7c0-1.1,0-5.7,0-7.7
				L1071.3,467.5z"/>
			<ellipse class="st31" cx="1115.9" cy="467.9" rx="44.7" ry="16.7"/>
			<g>
				<path class="st0" d="M1132.7,465.7c0.5,0,0.9,0.2,1.3,0.6c0.4,0.4,0.6,0.8,0.7,1.2c0.2,0.6,0.3,1.3,0.3,2.2
					c0,1.9-1.2,3.5-3.7,4.7c-2.5,1.2-6.1,1.9-10.8,2.2l-3.2,0.1h-2.5l-3.2-0.1c-4.7-0.3-8.3-1.1-10.8-2.3c-2.5-1.2-3.7-2.8-3.7-4.7
					c0-1.1,0.3-2.1,0.8-2.9c0.3-0.5,0.9-0.8,1.5-0.7l0.9,0.1c1,0.1,1.6,1.2,1.3,2.2c-0.1,0.4-0.2,0.8-0.2,1.2
					c0,2.4,3.4,3.7,10.2,4.1v-4.6c0-1,0.8-1.7,1.8-1.6h0c0.8,0.1,1.4,0.8,1.4,1.6v4.7h2.5v-4.1c0-1,0.8-1.7,1.8-1.6l0,0
					c0.8,0.1,1.4,0.8,1.4,1.6v4c6.8-0.4,10.2-1.8,10.2-4.3c0-0.6-0.1-1.2-0.4-1.7c-0.3-0.5-0.4-0.8,0-1.5
					C1130.4,465.7,1132.7,465.7,1132.7,465.7z"/>
			</g>
		</g>
		<g>
			<path class="st30" d="M1071.3,458.1c0,1.7,0,7,0,8.1c0,9.2,20,16.7,44.7,16.7c24.7,0,44.7-7.5,44.7-16.7c0-1.1,0-5.7,0-7.7
				L1071.3,458.1z"/>
			<ellipse class="st31" cx="1115.9" cy="458.5" rx="44.7" ry="16.7"/>
			<g>
				<path class="st32" d="M1132.7,456.3c0.5,0,0.9,0.2,1.3,0.6c0.4,0.4,0.6,0.8,0.7,1.2c0.2,0.6,0.3,1.3,0.3,2.2
					c0,1.9-1.2,3.5-3.7,4.7c-2.5,1.2-6.1,1.9-10.8,2.2l-3.2,0.1h-2.5l-3.2-0.1c-4.7-0.3-8.3-1.1-10.8-2.3c-2.5-1.2-3.7-2.8-3.7-4.7
					c0-1.1,0.3-2.1,0.8-2.9c0.3-0.5,0.9-0.8,1.5-0.7l0.9,0.1c1,0.1,1.6,1.2,1.3,2.2c-0.1,0.4-0.2,0.8-0.2,1.2
					c0,2.4,3.4,3.7,10.2,4.1v-4.6c0-1,0.8-1.7,1.8-1.6h0c0.8,0.1,1.4,0.8,1.4,1.6v4.7h2.5v-4.1c0-1,0.8-1.7,1.8-1.6l0,0
					c0.8,0.1,1.4,0.8,1.4,1.6v4c6.8-0.4,10.2-1.8,10.2-4.3c0-0.6-0.1-1.2-0.4-1.7c-0.3-0.5-0.4-0.8,0-1.5
					C1130.4,456.3,1132.7,456.3,1132.7,456.3z"/>
			</g>
		</g>
	</g>
	<g>
		<g>
			<ellipse class="st29" cx="1182.2" cy="664.2" rx="44.7" ry="16.7"/>
			<path class="st30" d="M1106.2,656.3c0,1.7,0,7,0,8.1c0,9.2,20,16.7,44.7,16.7c24.7,0,44.7-7.5,44.7-16.7c0-1.1,0-5.7,0-7.7
				L1106.2,656.3z"/>
			<ellipse class="st31" cx="1150.9" cy="656.7" rx="44.7" ry="16.7"/>
			<g>
				<path class="st0" d="M1167.6,654.5c0.5,0,0.9,0.2,1.3,0.6c0.4,0.4,0.6,0.8,0.7,1.2c0.2,0.6,0.3,1.3,0.3,2.2
					c0,1.9-1.2,3.5-3.7,4.7c-2.5,1.2-6.1,1.9-10.8,2.2l-3.2,0.1h-2.5l-3.2-0.1c-4.7-0.3-8.3-1.1-10.8-2.3c-2.5-1.2-3.7-2.8-3.7-4.7
					c0-1.1,0.3-2.1,0.8-2.9c0.3-0.5,0.9-0.8,1.5-0.7l0.9,0.1c1,0.1,1.6,1.2,1.3,2.2c-0.1,0.4-0.2,0.8-0.2,1.2
					c0,2.4,3.4,3.7,10.2,4.1v-4.6c0-1,0.8-1.7,1.8-1.6l0,0c0.8,0.1,1.4,0.8,1.4,1.6v4.7h2.5v-4.1c0-1,0.8-1.7,1.8-1.6l0,0
					c0.8,0.1,1.4,0.8,1.4,1.6v4c6.8-0.4,10.2-1.8,10.2-4.3c0-0.6-0.1-1.2-0.4-1.7c-0.3-0.5-0.4-0.8,0-1.5
					C1165.4,654.4,1167.6,654.5,1167.6,654.5z"/>
			</g>
		</g>
		<g>
			<path class="st30" d="M1106.2,647.1c0,1.7,0,7,0,8.1c0,9.2,20,16.7,44.7,16.7c24.7,0,44.7-7.5,44.7-16.7c0-1.1,0-5.7,0-7.7
				L1106.2,647.1z"/>
			<ellipse class="st31" cx="1150.9" cy="647.5" rx="44.7" ry="16.7"/>
			<g>
				<path class="st0" d="M1167.6,645.3c0.5,0,0.9,0.2,1.3,0.6c0.4,0.4,0.6,0.8,0.7,1.2c0.2,0.6,0.3,1.3,0.3,2.2
					c0,1.9-1.2,3.5-3.7,4.7c-2.5,1.2-6.1,1.9-10.8,2.2l-3.2,0.1h-2.5l-3.2-0.1c-4.7-0.3-8.3-1.1-10.8-2.3c-2.5-1.2-3.7-2.8-3.7-4.7
					c0-1.1,0.3-2.1,0.8-2.9c0.3-0.5,0.9-0.8,1.5-0.7l0.9,0.1c1,0.1,1.6,1.2,1.3,2.2c-0.1,0.4-0.2,0.8-0.2,1.2
					c0,2.4,3.4,3.7,10.2,4.1v-4.6c0-1,0.8-1.7,1.8-1.6l0,0c0.8,0.1,1.4,0.8,1.4,1.6v4.7h2.5v-4.1c0-1,0.8-1.7,1.8-1.6l0,0
					c0.8,0.1,1.4,0.8,1.4,1.6v4c6.8-0.4,10.2-1.8,10.2-4.3c0-0.6-0.1-1.2-0.4-1.7c-0.3-0.5-0.4-0.8,0-1.5
					C1165.4,645.3,1167.6,645.3,1167.6,645.3z"/>
			</g>
		</g>
		<g>
			<path class="st30" d="M1106.2,638c0,1.7,0,7,0,8.1c0,9.2,20,16.7,44.7,16.7c24.7,0,44.7-7.5,44.7-16.7c0-1.1,0-5.7,0-7.7
				L1106.2,638z"/>
			<ellipse class="st31" cx="1150.9" cy="638.4" rx="44.7" ry="16.7"/>
			<g>
				<path class="st0" d="M1167.6,636.1c0.5,0,0.9,0.2,1.3,0.6c0.4,0.4,0.6,0.8,0.7,1.2c0.2,0.6,0.3,1.3,0.3,2.2
					c0,1.9-1.2,3.5-3.7,4.7c-2.5,1.2-6.1,1.9-10.8,2.2l-3.2,0.1h-2.5l-3.2-0.1c-4.7-0.3-8.3-1.1-10.8-2.3c-2.5-1.2-3.7-2.8-3.7-4.7
					c0-1.1,0.3-2.1,0.8-2.9c0.3-0.5,0.9-0.8,1.5-0.7l0.9,0.1c1,0.1,1.6,1.2,1.3,2.2c-0.1,0.4-0.2,0.8-0.2,1.2
					c0,2.4,3.4,3.7,10.2,4.1v-4.6c0-1,0.8-1.7,1.8-1.6l0,0c0.8,0.1,1.4,0.8,1.4,1.6v4.7h2.5V640c0-1,0.8-1.7,1.8-1.6l0,0
					c0.8,0.1,1.4,0.8,1.4,1.6v4c6.8-0.4,10.2-1.8,10.2-4.3c0-0.6-0.1-1.2-0.4-1.7c-0.3-0.5-0.4-0.8,0-1.5
					C1165.4,636.1,1167.6,636.1,1167.6,636.1z"/>
			</g>
		</g>
		<g>
			<path class="st30" d="M1106.2,628.8c0,1.7,0,7,0,8.1c0,9.2,20,16.7,44.7,16.7c24.7,0,44.7-7.5,44.7-16.7c0-1.1,0-5.7,0-7.7
				L1106.2,628.8z"/>
			<ellipse class="st31" cx="1150.9" cy="629.2" rx="44.7" ry="16.7"/>
			<g>
				<path class="st0" d="M1167.6,627c0.5,0,0.9,0.2,1.3,0.6c0.4,0.4,0.6,0.8,0.7,1.2c0.2,0.6,0.3,1.3,0.3,2.2c0,1.9-1.2,3.5-3.7,4.7
					c-2.5,1.2-6.1,1.9-10.8,2.2l-3.2,0.1h-2.5l-3.2-0.1c-4.7-0.3-8.3-1.1-10.8-2.3c-2.5-1.2-3.7-2.8-3.7-4.7c0-1.1,0.3-2.1,0.8-2.9
					c0.3-0.5,0.9-0.8,1.5-0.7l0.9,0.1c1,0.1,1.6,1.2,1.3,2.2c-0.1,0.4-0.2,0.8-0.2,1.2c0,2.4,3.4,3.7,10.2,4.1v-4.6
					c0-1,0.8-1.7,1.8-1.6l0,0c0.8,0.1,1.4,0.8,1.4,1.6v4.7h2.5v-4.1c0-1,0.8-1.7,1.8-1.6l0,0c0.8,0.1,1.4,0.8,1.4,1.6v4
					c6.8-0.4,10.2-1.8,10.2-4.3c0-0.6-0.1-1.2-0.4-1.7c-0.3-0.5-0.4-0.8,0-1.5C1165.4,627,1167.6,627,1167.6,627z"/>
			</g>
		</g>
		<g>
			<path class="st30" d="M1106.2,619.7c0,1.7,0,7,0,8.1c0,9.2,20,16.7,44.7,16.7c24.7,0,44.7-7.5,44.7-16.7c0-1.1,0-5.7,0-7.7
				L1106.2,619.7z"/>
			<ellipse class="st31" cx="1150.9" cy="620.1" rx="44.7" ry="16.7"/>
			<g>
				<path class="st0" d="M1167.6,617.8c0.5,0,0.9,0.2,1.3,0.6c0.4,0.4,0.6,0.8,0.7,1.2c0.2,0.6,0.3,1.3,0.3,2.2
					c0,1.9-1.2,3.5-3.7,4.7c-2.5,1.2-6.1,1.9-10.8,2.2l-3.2,0.1h-2.5l-3.2-0.1c-4.7-0.3-8.3-1.1-10.8-2.3c-2.5-1.2-3.7-2.8-3.7-4.7
					c0-1.1,0.3-2.1,0.8-2.9c0.3-0.5,0.9-0.8,1.5-0.7l0.9,0.1c1,0.1,1.6,1.2,1.3,2.2c-0.1,0.4-0.2,0.8-0.2,1.2
					c0,2.4,3.4,3.7,10.2,4.1V621c0-1,0.8-1.7,1.8-1.6l0,0c0.8,0.1,1.4,0.8,1.4,1.6v4.7h2.5v-4.1c0-1,0.8-1.7,1.8-1.6l0,0
					c0.8,0.1,1.4,0.8,1.4,1.6v4c6.8-0.4,10.2-1.8,10.2-4.3c0-0.6-0.1-1.2-0.4-1.7c-0.3-0.5-0.4-0.8,0-1.5
					C1165.4,617.8,1167.6,617.8,1167.6,617.8z"/>
			</g>
		</g>
		<g>
			<path class="st30" d="M1106.2,610.5c0,1.7,0,7,0,8.1c0,9.2,20,16.7,44.7,16.7c24.7,0,44.7-7.5,44.7-16.7c0-1.1,0-5.7,0-7.7
				L1106.2,610.5z"/>
			<ellipse class="st31" cx="1150.9" cy="610.9" rx="44.7" ry="16.7"/>
			<g>
				<path class="st32" d="M1167.6,608.7c0.5,0,0.9,0.2,1.3,0.6c0.4,0.4,0.6,0.8,0.7,1.2c0.2,0.6,0.3,1.3,0.3,2.2
					c0,1.9-1.2,3.5-3.7,4.7c-2.5,1.2-6.1,1.9-10.8,2.2l-3.2,0.1h-2.5l-3.2-0.1c-4.7-0.3-8.3-1.1-10.8-2.3c-2.5-1.2-3.7-2.8-3.7-4.7
					c0-1.1,0.3-2.1,0.8-2.9c0.3-0.5,0.9-0.8,1.5-0.7l0.9,0.1c1,0.1,1.6,1.2,1.3,2.2c-0.1,0.4-0.2,0.8-0.2,1.2
					c0,2.4,3.4,3.7,10.2,4.1v-4.6c0-1,0.8-1.7,1.8-1.6l0,0c0.8,0.1,1.4,0.8,1.4,1.6v4.7h2.5v-4.1c0-1,0.8-1.7,1.8-1.6l0,0
					c0.8,0.1,1.4,0.8,1.4,1.6v4c6.8-0.4,10.2-1.8,10.2-4.3c0-0.6-0.1-1.2-0.4-1.7c-0.3-0.5-0.4-0.8,0-1.5
					C1165.4,608.7,1167.6,608.7,1167.6,608.7z"/>
			</g>
		</g>
	</g>
	<g>
		<g>
			<ellipse class="st29" cx="1058.3" cy="665.4" rx="44.7" ry="16.7"/>
			<path class="st30" d="M982.3,657.4c0,1.7,0,7,0,8.1c0,9.2,20,16.7,44.7,16.7c24.7,0,44.7-7.5,44.7-16.7c0-1.1,0-5.7,0-7.7
				L982.3,657.4z"/>
			<ellipse class="st31" cx="1027" cy="657.8" rx="44.7" ry="16.7"/>
			<g>
				<path class="st0" d="M1043.8,655.6c0.5,0,0.9,0.2,1.3,0.6c0.4,0.4,0.6,0.8,0.7,1.2c0.2,0.6,0.3,1.3,0.3,2.2
					c0,1.9-1.2,3.5-3.7,4.7c-2.5,1.2-6.1,1.9-10.8,2.2l-3.2,0.1h-2.5l-3.2-0.1c-4.7-0.3-8.3-1.1-10.8-2.3c-2.5-1.2-3.7-2.8-3.7-4.7
					c0-1.1,0.3-2.1,0.8-2.9c0.3-0.5,0.9-0.8,1.5-0.7l0.9,0.1c1,0.1,1.6,1.2,1.3,2.2c-0.1,0.4-0.2,0.8-0.2,1.2
					c0,2.4,3.4,3.7,10.2,4.1v-4.6c0-1,0.8-1.7,1.8-1.6l0,0c0.8,0.1,1.4,0.8,1.4,1.6v4.7h2.5v-4.1c0-1,0.8-1.7,1.8-1.6l0,0
					c0.8,0.1,1.4,0.8,1.4,1.6v4c6.8-0.4,10.2-1.8,10.2-4.3c0-0.6-0.1-1.2-0.4-1.7c-0.3-0.5-0.4-0.8,0-1.5
					C1041.5,655.6,1043.8,655.6,1043.8,655.6z"/>
			</g>
		</g>
		<g>
			<path class="st30" d="M982.3,648.3c0,1.7,0,7,0,8.1c0,9.2,20,16.7,44.7,16.7c24.7,0,44.7-7.5,44.7-16.7c0-1.1,0-5.7,0-7.7
				L982.3,648.3z"/>
			<ellipse class="st31" cx="1027" cy="648.7" rx="44.7" ry="16.7"/>
			<g>
				<path class="st0" d="M1043.8,646.4c0.5,0,0.9,0.2,1.3,0.6c0.4,0.4,0.6,0.8,0.7,1.2c0.2,0.6,0.3,1.3,0.3,2.2
					c0,1.9-1.2,3.5-3.7,4.7c-2.5,1.2-6.1,1.9-10.8,2.2l-3.2,0.1h-2.5l-3.2-0.1c-4.7-0.3-8.3-1.1-10.8-2.3c-2.5-1.2-3.7-2.8-3.7-4.7
					c0-1.1,0.3-2.1,0.8-2.9c0.3-0.5,0.9-0.8,1.5-0.7l0.9,0.1c1,0.1,1.6,1.2,1.3,2.2c-0.1,0.4-0.2,0.8-0.2,1.2
					c0,2.4,3.4,3.7,10.2,4.1v-4.6c0-1,0.8-1.7,1.8-1.6l0,0c0.8,0.1,1.4,0.8,1.4,1.6v4.7h2.5v-4.1c0-1,0.8-1.7,1.8-1.6l0,0
					c0.8,0.1,1.4,0.8,1.4,1.6v4c6.8-0.4,10.2-1.8,10.2-4.3c0-0.6-0.1-1.2-0.4-1.7c-0.3-0.5-0.4-0.8,0-1.5
					C1041.5,646.4,1043.8,646.4,1043.8,646.4z"/>
			</g>
		</g>
		<g>
			<path class="st30" d="M982.3,639.1c0,1.7,0,7,0,8.1c0,9.2,20,16.7,44.7,16.7c24.7,0,44.7-7.5,44.7-16.7c0-1.1,0-5.7,0-7.7
				L982.3,639.1z"/>
			<ellipse class="st31" cx="1027" cy="639.5" rx="44.7" ry="16.7"/>
			<g>
				<path class="st0" d="M1043.8,637.3c0.5,0,0.9,0.2,1.3,0.6c0.4,0.4,0.6,0.8,0.7,1.2c0.2,0.6,0.3,1.3,0.3,2.2
					c0,1.9-1.2,3.5-3.7,4.7c-2.5,1.2-6.1,1.9-10.8,2.2l-3.2,0.1h-2.5l-3.2-0.1c-4.7-0.3-8.3-1.1-10.8-2.3c-2.5-1.2-3.7-2.8-3.7-4.7
					c0-1.1,0.3-2.1,0.8-2.9c0.3-0.5,0.9-0.8,1.5-0.7l0.9,0.1c1,0.1,1.6,1.2,1.3,2.2c-0.1,0.4-0.2,0.8-0.2,1.2
					c0,2.4,3.4,3.7,10.2,4.1v-4.6c0-1,0.8-1.7,1.8-1.6l0,0c0.8,0.1,1.4,0.8,1.4,1.6v4.7h2.5v-4.1c0-1,0.8-1.7,1.8-1.6l0,0
					c0.8,0.1,1.4,0.8,1.4,1.6v4c6.8-0.4,10.2-1.8,10.2-4.3c0-0.6-0.1-1.2-0.4-1.7c-0.3-0.5-0.4-0.8,0-1.5
					C1041.5,637.3,1043.8,637.3,1043.8,637.3z"/>
			</g>
		</g>
		<g>
			<path class="st30" d="M982.3,630c0,1.7,0,7,0,8.1c0,9.2,20,16.7,44.7,16.7c24.7,0,44.7-7.5,44.7-16.7c0-1.1,0-5.7,0-7.7
				L982.3,630z"/>
			<ellipse class="st31" cx="1027" cy="630.4" rx="44.7" ry="16.7"/>
			<g>
				<path class="st0" d="M1043.8,628.1c0.5,0,0.9,0.2,1.3,0.6c0.4,0.4,0.6,0.8,0.7,1.2c0.2,0.6,0.3,1.3,0.3,2.2
					c0,1.9-1.2,3.5-3.7,4.7c-2.5,1.2-6.1,1.9-10.8,2.2l-3.2,0.1h-2.5l-3.2-0.1c-4.7-0.3-8.3-1.1-10.8-2.3c-2.5-1.2-3.7-2.8-3.7-4.7
					c0-1.1,0.3-2.1,0.8-2.9c0.3-0.5,0.9-0.8,1.5-0.7l0.9,0.1c1,0.1,1.6,1.2,1.3,2.2c-0.1,0.4-0.2,0.8-0.2,1.2
					c0,2.4,3.4,3.7,10.2,4.1v-4.6c0-1,0.8-1.7,1.8-1.6l0,0c0.8,0.1,1.4,0.8,1.4,1.6v4.7h2.5v-4.1c0-1,0.8-1.7,1.8-1.6l0,0
					c0.8,0.1,1.4,0.8,1.4,1.6v4c6.8-0.4,10.2-1.8,10.2-4.3c0-0.6-0.1-1.2-0.4-1.7c-0.3-0.5-0.4-0.8,0-1.5
					C1041.5,628.1,1043.8,628.1,1043.8,628.1z"/>
			</g>
		</g>
		<g>
			<path class="st30" d="M982.3,620.8c0,1.7,0,7,0,8.1c0,9.2,20,16.7,44.7,16.7c24.7,0,44.7-7.5,44.7-16.7c0-1.1,0-5.7,0-7.7
				L982.3,620.8z"/>
			<ellipse class="st31" cx="1027" cy="621.2" rx="44.7" ry="16.7"/>
			<g>
				<path class="st0" d="M1043.8,619c0.5,0,0.9,0.2,1.3,0.6c0.4,0.4,0.6,0.8,0.7,1.2c0.2,0.6,0.3,1.3,0.3,2.2c0,1.9-1.2,3.5-3.7,4.7
					c-2.5,1.2-6.1,1.9-10.8,2.2l-3.2,0.1h-2.5l-3.2-0.1c-4.7-0.3-8.3-1.1-10.8-2.3c-2.5-1.2-3.7-2.8-3.7-4.7c0-1.1,0.3-2.1,0.8-2.9
					c0.3-0.5,0.9-0.8,1.5-0.7l0.9,0.1c1,0.1,1.6,1.2,1.3,2.2c-0.1,0.4-0.2,0.8-0.2,1.2c0,2.4,3.4,3.7,10.2,4.1v-4.6
					c0-1,0.8-1.7,1.8-1.6l0,0c0.8,0.1,1.4,0.8,1.4,1.6v4.7h2.5v-4.1c0-1,0.8-1.7,1.8-1.6l0,0c0.8,0.1,1.4,0.8,1.4,1.6v4
					c6.8-0.4,10.2-1.8,10.2-4.3c0-0.6-0.1-1.2-0.4-1.7c-0.3-0.5-0.4-0.8,0-1.5C1041.5,619,1043.8,619,1043.8,619z"/>
			</g>
		</g>
		<g>
			<path class="st30" d="M982.3,611.7c0,1.7,0,7,0,8.1c0,9.2,20,16.7,44.7,16.7c24.7,0,44.7-7.5,44.7-16.7c0-1.1,0-5.7,0-7.7
				L982.3,611.7z"/>
			<ellipse class="st31" cx="1027" cy="612" rx="44.7" ry="16.7"/>
			<g>
				<path class="st0" d="M1043.8,609.8c0.5,0,0.9,0.2,1.3,0.6c0.4,0.4,0.6,0.8,0.7,1.2c0.2,0.6,0.3,1.3,0.3,2.2
					c0,1.9-1.2,3.5-3.7,4.7c-2.5,1.2-6.1,1.9-10.8,2.2l-3.2,0.1h-2.5l-3.2-0.1c-4.7-0.3-8.3-1.1-10.8-2.3c-2.5-1.2-3.7-2.8-3.7-4.7
					c0-1.1,0.3-2.1,0.8-2.9c0.3-0.5,0.9-0.8,1.5-0.7l0.9,0.1c1,0.1,1.6,1.2,1.3,2.2c-0.1,0.4-0.2,0.8-0.2,1.2
					c0,2.4,3.4,3.7,10.2,4.1V613c0-1,0.8-1.7,1.8-1.6l0,0c0.8,0.1,1.4,0.8,1.4,1.6v4.7h2.5v-4.1c0-1,0.8-1.7,1.8-1.6l0,0
					c0.8,0.1,1.4,0.8,1.4,1.6v4c6.8-0.4,10.2-1.8,10.2-4.3c0-0.6-0.1-1.2-0.4-1.7c-0.3-0.5-0.4-0.8,0-1.5
					C1041.5,609.8,1043.8,609.8,1043.8,609.8z"/>
			</g>
		</g>
		<g>
			<path class="st30" d="M982.3,602.5c0,1.7,0,7,0,8.1c0,9.2,20,16.7,44.7,16.7c24.7,0,44.7-7.5,44.7-16.7c0-1.1,0-5.7,0-7.7
				L982.3,602.5z"/>
			<ellipse class="st31" cx="1027" cy="602.9" rx="44.7" ry="16.7"/>
			<g>
				<path class="st0" d="M1043.8,600.7c0.5,0,0.9,0.2,1.3,0.6c0.4,0.4,0.6,0.8,0.7,1.2c0.2,0.6,0.3,1.3,0.3,2.2
					c0,1.9-1.2,3.5-3.7,4.7c-2.5,1.2-6.1,1.9-10.8,2.2l-3.2,0.1h-2.5l-3.2-0.1c-4.7-0.3-8.3-1.1-10.8-2.3c-2.5-1.2-3.7-2.8-3.7-4.7
					c0-1.1,0.3-2.1,0.8-2.9c0.3-0.5,0.9-0.8,1.5-0.7l0.9,0.1c1,0.1,1.6,1.2,1.3,2.2c-0.1,0.4-0.2,0.8-0.2,1.2
					c0,2.4,3.4,3.7,10.2,4.1v-4.6c0-1,0.8-1.7,1.8-1.6l0,0c0.8,0.1,1.4,0.8,1.4,1.6v4.7h2.5v-4.1c0-1,0.8-1.7,1.8-1.6l0,0
					c0.8,0.1,1.4,0.8,1.4,1.6v4c6.8-0.4,10.2-1.8,10.2-4.3c0-0.6-0.1-1.2-0.4-1.7c-0.3-0.5-0.4-0.8,0-1.5
					C1041.5,600.6,1043.8,600.7,1043.8,600.7z"/>
			</g>
		</g>
		<g>
			<path class="st30" d="M982.3,593.3c0,1.7,0,7,0,8.1c0,9.2,20,16.7,44.7,16.7c24.7,0,44.7-7.5,44.7-16.7c0-1.1,0-5.7,0-7.7
				L982.3,593.3z"/>
			<ellipse class="st31" cx="1027" cy="593.7" rx="44.7" ry="16.7"/>
			<g>
				<path class="st0" d="M1043.8,591.5c0.5,0,0.9,0.2,1.3,0.6c0.4,0.4,0.6,0.8,0.7,1.2c0.2,0.6,0.3,1.3,0.3,2.2
					c0,1.9-1.2,3.5-3.7,4.7c-2.5,1.2-6.1,1.9-10.8,2.2l-3.2,0.1h-2.5l-3.2-0.1c-4.7-0.3-8.3-1.1-10.8-2.3c-2.5-1.2-3.7-2.8-3.7-4.7
					c0-1.1,0.3-2.1,0.8-2.9c0.3-0.5,0.9-0.8,1.5-0.7l0.9,0.1c1,0.1,1.6,1.2,1.3,2.2c-0.1,0.4-0.2,0.8-0.2,1.2
					c0,2.4,3.4,3.7,10.2,4.1v-4.6c0-1,0.8-1.7,1.8-1.6l0,0c0.8,0.1,1.4,0.8,1.4,1.6v4.7h2.5v-4.1c0-1,0.8-1.7,1.8-1.6l0,0
					c0.8,0.1,1.4,0.8,1.4,1.6v4c6.8-0.4,10.2-1.8,10.2-4.3c0-0.6-0.1-1.2-0.4-1.7c-0.3-0.5-0.4-0.8,0-1.5
					C1041.5,591.5,1043.8,591.5,1043.8,591.5z"/>
			</g>
		</g>
		<g>
			<path class="st30" d="M982.3,584.2c0,1.7,0,7,0,8.1c0,9.2,20,16.7,44.7,16.7c24.7,0,44.7-7.5,44.7-16.7c0-1.1,0-5.7,0-7.7
				L982.3,584.2z"/>
			<ellipse class="st31" cx="1027" cy="584.6" rx="44.7" ry="16.7"/>
			<g>
				<path class="st0" d="M1043.8,582.3c0.5,0,0.9,0.2,1.3,0.6c0.4,0.4,0.6,0.8,0.7,1.2c0.2,0.6,0.3,1.3,0.3,2.2
					c0,1.9-1.2,3.5-3.7,4.7c-2.5,1.2-6.1,1.9-10.8,2.2l-3.2,0.1h-2.5l-3.2-0.1c-4.7-0.3-8.3-1.1-10.8-2.3c-2.5-1.2-3.7-2.8-3.7-4.7
					c0-1.1,0.3-2.1,0.8-2.9c0.3-0.5,0.9-0.8,1.5-0.7l0.9,0.1c1,0.1,1.6,1.2,1.3,2.2c-0.1,0.4-0.2,0.8-0.2,1.2
					c0,2.4,3.4,3.7,10.2,4.1v-4.6c0-1,0.8-1.7,1.8-1.6l0,0c0.8,0.1,1.4,0.8,1.4,1.6v4.7h2.5v-4.1c0-1,0.8-1.7,1.8-1.6l0,0
					c0.8,0.1,1.4,0.8,1.4,1.6v4c6.8-0.4,10.2-1.8,10.2-4.3c0-0.6-0.1-1.2-0.4-1.7c-0.3-0.5-0.4-0.8,0-1.5
					C1041.5,582.3,1043.8,582.3,1043.8,582.3z"/>
			</g>
		</g>
		<g>
			<path class="st30" d="M982.3,575.3c0,1.7,0,7,0,8.1c0,9.2,20,16.7,44.7,16.7c24.7,0,44.7-7.5,44.7-16.7c0-1.1,0-5.7,0-7.7
				L982.3,575.3z"/>
			<ellipse class="st31" cx="1027" cy="575.7" rx="44.7" ry="16.7"/>
			<g>
				<path class="st0" d="M1043.8,573.5c0.5,0,0.9,0.2,1.3,0.6c0.4,0.4,0.6,0.8,0.7,1.2c0.2,0.6,0.3,1.3,0.3,2.2
					c0,1.9-1.2,3.5-3.7,4.7c-2.5,1.2-6.1,1.9-10.8,2.2l-3.2,0.1h-2.5l-3.2-0.1c-4.7-0.3-8.3-1.1-10.8-2.3c-2.5-1.2-3.7-2.8-3.7-4.7
					c0-1.1,0.3-2.1,0.8-2.9c0.3-0.5,0.9-0.8,1.5-0.7l0.9,0.1c1,0.1,1.6,1.2,1.3,2.2c-0.1,0.4-0.2,0.8-0.2,1.2
					c0,2.4,3.4,3.7,10.2,4.1v-4.6c0-1,0.8-1.7,1.8-1.6l0,0c0.8,0.1,1.4,0.8,1.4,1.6v4.7h2.5v-4.1c0-1,0.8-1.7,1.8-1.6l0,0
					c0.8,0.1,1.4,0.8,1.4,1.6v4c6.8-0.4,10.2-1.8,10.2-4.3c0-0.6-0.1-1.2-0.4-1.7c-0.3-0.5-0.4-0.8,0-1.5
					C1041.5,573.5,1043.8,573.5,1043.8,573.5z"/>
			</g>
		</g>
		<g>
			<path class="st30" d="M982.3,566.5c0,1.7,0,7,0,8.1c0,9.2,20,16.7,44.7,16.7c24.7,0,44.7-7.5,44.7-16.7c0-1.1,0-5.7,0-7.7
				L982.3,566.5z"/>
			<ellipse class="st31" cx="1027" cy="566.8" rx="44.7" ry="16.7"/>
			<g>
				<path class="st0" d="M1043.8,564.6c0.5,0,0.9,0.2,1.3,0.6c0.4,0.4,0.6,0.8,0.7,1.2c0.2,0.6,0.3,1.3,0.3,2.2
					c0,1.9-1.2,3.5-3.7,4.7c-2.5,1.2-6.1,1.9-10.8,2.2l-3.2,0.1h-2.5l-3.2-0.1c-4.7-0.3-8.3-1.1-10.8-2.3c-2.5-1.2-3.7-2.8-3.7-4.7
					c0-1.1,0.3-2.1,0.8-2.9c0.3-0.5,0.9-0.8,1.5-0.7l0.9,0.1c1,0.1,1.6,1.2,1.3,2.2c-0.1,0.4-0.2,0.8-0.2,1.2
					c0,2.4,3.4,3.7,10.2,4.1v-4.6c0-1,0.8-1.7,1.8-1.6l0,0c0.8,0.1,1.4,0.8,1.4,1.6v4.7h2.5v-4.1c0-1,0.8-1.7,1.8-1.6l0,0
					c0.8,0.1,1.4,0.8,1.4,1.6v4c6.8-0.4,10.2-1.8,10.2-4.3c0-0.6-0.1-1.2-0.4-1.7c-0.3-0.5-0.4-0.8,0-1.5
					C1041.5,564.6,1043.8,564.6,1043.8,564.6z"/>
			</g>
		</g>
		<g>
			<path class="st30" d="M982.3,557.6c0,1.7,0,7,0,8.1c0,9.2,20,16.7,44.7,16.7c24.7,0,44.7-7.5,44.7-16.7c0-1.1,0-5.7,0-7.7
				L982.3,557.6z"/>
			<ellipse class="st31" cx="1027" cy="558" rx="44.7" ry="16.7"/>
			<g>
				<path class="st0" d="M1043.8,555.8c0.5,0,0.9,0.2,1.3,0.6c0.4,0.4,0.6,0.8,0.7,1.2c0.2,0.6,0.3,1.3,0.3,2.2
					c0,1.9-1.2,3.5-3.7,4.7c-2.5,1.2-6.1,1.9-10.8,2.2l-3.2,0.1h-2.5l-3.2-0.1c-4.7-0.3-8.3-1.1-10.8-2.3c-2.5-1.2-3.7-2.8-3.7-4.7
					c0-1.1,0.3-2.1,0.8-2.9c0.3-0.5,0.9-0.8,1.5-0.7l0.9,0.1c1,0.1,1.6,1.2,1.3,2.2c-0.1,0.4-0.2,0.8-0.2,1.2
					c0,2.4,3.4,3.7,10.2,4.1v-4.6c0-1,0.8-1.7,1.8-1.6l0,0c0.8,0.1,1.4,0.8,1.4,1.6v4.7h2.5v-4.1c0-1,0.8-1.7,1.8-1.6l0,0
					c0.8,0.1,1.4,0.8,1.4,1.6v4c6.8-0.4,10.2-1.8,10.2-4.3c0-0.6-0.1-1.2-0.4-1.7c-0.3-0.5-0.4-0.8,0-1.5
					C1041.5,555.7,1043.8,555.8,1043.8,555.8z"/>
			</g>
		</g>
		<g>
			<path class="st30" d="M982.3,548.7c0,1.7,0,7,0,8.1c0,9.2,20,16.7,44.7,16.7c24.7,0,44.7-7.5,44.7-16.7c0-1.1,0-5.7,0-7.7
				L982.3,548.7z"/>
			<ellipse class="st31" cx="1027" cy="549.1" rx="44.7" ry="16.7"/>
			<g>
				<path class="st0" d="M1043.8,546.9c0.5,0,0.9,0.2,1.3,0.6c0.4,0.4,0.6,0.8,0.7,1.2c0.2,0.6,0.3,1.3,0.3,2.2
					c0,1.9-1.2,3.5-3.7,4.7c-2.5,1.2-6.1,1.9-10.8,2.2l-3.2,0.1h-2.5l-3.2-0.1c-4.7-0.3-8.3-1.1-10.8-2.3c-2.5-1.2-3.7-2.8-3.7-4.7
					c0-1.1,0.3-2.1,0.8-2.9c0.3-0.5,0.9-0.8,1.5-0.7l0.9,0.1c1,0.1,1.6,1.2,1.3,2.2c-0.1,0.4-0.2,0.8-0.2,1.2
					c0,2.4,3.4,3.7,10.2,4.1v-4.6c0-1,0.8-1.7,1.8-1.6l0,0c0.8,0.1,1.4,0.8,1.4,1.6v4.7h2.5v-4.1c0-1,0.8-1.7,1.8-1.6l0,0
					c0.8,0.1,1.4,0.8,1.4,1.6v4c6.8-0.4,10.2-1.8,10.2-4.3c0-0.6-0.1-1.2-0.4-1.7c-0.3-0.5-0.4-0.8,0-1.5
					C1041.5,546.9,1043.8,546.9,1043.8,546.9z"/>
			</g>
		</g>
		<g>
			<path class="st30" d="M982.3,539.9c0,1.7,0,7,0,8.1c0,9.2,20,16.7,44.7,16.7c24.7,0,44.7-7.5,44.7-16.7c0-1.1,0-5.7,0-7.7
				L982.3,539.9z"/>
			<ellipse class="st31" cx="1027" cy="540.3" rx="44.7" ry="16.7"/>
			<g>
				<path class="st32" d="M1043.8,538c0.5,0,0.9,0.2,1.3,0.6c0.4,0.4,0.6,0.8,0.7,1.2c0.2,0.6,0.3,1.3,0.3,2.2
					c0,1.9-1.2,3.5-3.7,4.7c-2.5,1.2-6.1,1.9-10.8,2.2l-3.2,0.1h-2.5l-3.2-0.1c-4.7-0.3-8.3-1.1-10.8-2.3c-2.5-1.2-3.7-2.8-3.7-4.7
					c0-1.1,0.3-2.1,0.8-2.9c0.3-0.5,0.9-0.8,1.5-0.7l0.9,0.1c1,0.1,1.6,1.2,1.3,2.2c-0.1,0.4-0.2,0.8-0.2,1.2
					c0,2.4,3.4,3.7,10.2,4.1v-4.6c0-1,0.8-1.7,1.8-1.6l0,0c0.8,0.1,1.4,0.8,1.4,1.6v4.7h2.5v-4.1c0-1,0.8-1.7,1.8-1.6l0,0
					c0.8,0.1,1.4,0.8,1.4,1.6v4c6.8-0.4,10.2-1.8,10.2-4.3c0-0.6-0.1-1.2-0.4-1.7c-0.3-0.5-0.4-0.8,0-1.5
					C1041.5,538,1043.8,538,1043.8,538z"/>
			</g>
		</g>
	</g>
</g>
<g id="Layer_9">
	<g>
		<g>
			<path class="st33" d="M1232.1,925.7l-29-52.2v-15.1c0-15.5-12.6-28.1-28.1-28.1H1129c-15.5,0-28.1,12.6-28.1,28.1v28.1
				c0,15.5,12.6,28.1,28.1,28.1h46.1c8.2,0,15.5-3.5,20.6-9.1L1232.1,925.7z"/>
		</g>
		<g>
			<path class="st34" d="M1221,910.9l-29-52.2v-15.1c0-15.5-12.6-28.1-28.1-28.1h-46.1c-15.5,0-28.1,12.6-28.1,28.1v28.1
				c0,15.5,12.6,28.1,28.1,28.1h46.1c8.2,0,15.5-3.5,20.6-9.1L1221,910.9z"/>
		</g>
		<g>
			<path class="st11" d="M1115,863.6c-3.5,0-6.4-2.9-6.4-6.4c0-3.6,2.9-6.4,6.4-6.4c3.6,0,6.4,2.9,6.4,6.4
				C1121.5,860.7,1118.6,863.6,1115,863.6z M1115,854.8c-1.3,0-2.3,1.1-2.3,2.3c0,1.3,1,2.3,2.3,2.3c1.3,0,2.3-1,2.3-2.3
				C1117.4,855.9,1116.3,854.8,1115,854.8z"/>
		</g>
		<g>
			<path class="st11" d="M1140.2,863.6c-3.5,0-6.4-2.9-6.4-6.4c0-3.6,2.9-6.4,6.4-6.4c3.5,0,6.4,2.9,6.4,6.4
				C1146.6,860.7,1143.7,863.6,1140.2,863.6z M1140.2,854.8c-1.3,0-2.3,1.1-2.3,2.3c0,1.3,1,2.3,2.3,2.3c1.3,0,2.3-1,2.3-2.3
				C1142.5,855.9,1141.5,854.8,1140.2,854.8z"/>
		</g>
		<g>
			<path class="st11" d="M1165.3,863.6c-3.5,0-6.4-2.9-6.4-6.4c0-3.6,2.9-6.4,6.4-6.4c3.6,0,6.4,2.9,6.4,6.4
				C1171.8,860.7,1168.9,863.6,1165.3,863.6z M1165.3,854.8c-1.3,0-2.3,1.1-2.3,2.3c0,1.3,1,2.3,2.3,2.3c1.3,0,2.3-1,2.3-2.3
				C1167.7,855.9,1166.6,854.8,1165.3,854.8z"/>
		</g>
	</g>
	<g>
		<g class="st1">
			<path class="st2" d="M1031,884.5l0.9-76.9v-22.2c0-22.8,18.5-41.3,41.3-41.3h67.8c22.8,0,41.3,18.5,41.3,41.3v41.3
				c0,22.8-18.5,41.3-41.3,41.3h-67.8C1061.2,868,1031,884.5,1031,884.5z"/>
		</g>
		<g>
			<path class="st34" d="M1019.3,874.6l-0.5-82.7v-22.2c0-22.8,18.5-41.3,41.3-41.3h67.8c22.8,0,41.3,18.5,41.3,41.3v41.3
				c0,22.8-18.5,41.3-41.3,41.3h-67.8C1048.2,852.2,1019.3,874.6,1019.3,874.6z"/>
		</g>
		<g>
			<path class="st11" d="M1122.8,789.6c0-5.2,4.3-9.5,9.5-9.5c5.2,0,9.5,4.3,9.5,9.5c0,5.2-4.3,9.5-9.5,9.5
				C1127,799.1,1122.8,794.8,1122.8,789.6z M1128.8,789.6c0,1.9,1.6,3.4,3.4,3.4c1.9,0,3.4-1.5,3.4-3.4c0-1.9-1.5-3.4-3.4-3.4
				C1130.3,786.1,1128.8,787.7,1128.8,789.6z"/>
		</g>
		<g>
			<path class="st11" d="M1085.7,789.6c0-5.2,4.3-9.5,9.5-9.5s9.5,4.3,9.5,9.5c0,5.2-4.3,9.5-9.5,9.5S1085.7,794.8,1085.7,789.6z
				 M1091.8,789.6c0,1.9,1.5,3.4,3.4,3.4c1.9,0,3.4-1.5,3.4-3.4c0-1.9-1.5-3.4-3.4-3.4C1093.3,786.1,1091.8,787.7,1091.8,789.6z"/>
		</g>
		<g>
			<path class="st11" d="M1048.7,789.6c0-5.2,4.3-9.5,9.5-9.5c5.2,0,9.5,4.3,9.5,9.5c0,5.2-4.3,9.5-9.5,9.5
				C1053,799.1,1048.7,794.8,1048.7,789.6z M1054.8,789.6c0,1.9,1.6,3.4,3.5,3.4c1.9,0,3.4-1.5,3.4-3.4c0-1.9-1.5-3.4-3.4-3.4
				C1056.3,786.1,1054.8,787.7,1054.8,789.6z"/>
		</g>
	</g>
</g>
<g id="Layer_10">
	<g class="st1">
		<path class="st2" d="M1260.8,253c0,81.3-65.9,147.2-147.2,147.2c-81.3,0-147.2-65.9-147.2-147.2c0-81.3,65.9-147.2,147.2-147.2
			C1194.9,105.8,1260.8,171.7,1260.8,253z"/>
	</g>
	<g>
		<path class="st35" d="M1226.8,229.9c0,81.3-65.9,147.2-147.2,147.2c-81.3,0-147.2-65.9-147.2-147.2c0-81.3,65.9-147.2,147.2-147.2
			C1160.9,82.7,1226.8,148.6,1226.8,229.9z"/>
	</g>
	<g>
		<g class="st1">
			<rect x="939" y="130.2" class="st36" width="242.1" height="187.1"/>
		</g>
		<g class="st1">
			<rect x="939" y="317.3" class="st36" width="242.1" height="26.4"/>
		</g>
		<g class="st1">
			<rect x="939" y="103.8" class="st36" width="242.1" height="26.4"/>
		</g>
		<g>
			<rect x="913.9" y="96.3" class="st37" width="242.1" height="187.1"/>
		</g>
		<g>
			<path class="st38" d="M978.6,114.3h112.7c22.9,0,41.5,18.6,41.5,41.5V224c0,22.9-18.6,41.5-41.5,41.5H978.6
				c-22.9,0-41.5-18.6-41.5-41.5v-68.2C937.1,132.8,955.6,114.3,978.6,114.3z"/>
		</g>
		<g>
			<path class="st39" d="M913.9,283.4H1156v0c0,14.6-11.8,26.4-26.4,26.4H940.2C925.7,309.8,913.9,298,913.9,283.4L913.9,283.4z"/>
		</g>
		<g>
			<path class="st39" d="M940.2,70h189.4c14.6,0,26.4,11.8,26.4,26.4v0H913.9v0C913.9,81.8,925.7,70,940.2,70z"/>
		</g>
		<path class="st40" d="M1033.2,235.8c-25.3,0-45.9-20.5-45.9-45.9c0-25.3,20.6-45.9,45.9-45.9c25.3,0,45.9,20.5,45.9,45.9
			C1079.1,215.2,1058.5,235.8,1033.2,235.8z"/>
		<g>
			<polygon class="st41" points="1016.5,213.2 1056.5,189.9 1016.5,166.5 			"/>
		</g>
		<g>
			<g>
				<g>
					<g>
						<path class="st42" d="M935.1,83.1c0,2.5-2,4.4-4.4,4.4c-2.4,0-4.4-2-4.4-4.4c0-2.4,2-4.4,4.4-4.4
							C933.1,78.7,935.1,80.7,935.1,83.1z"/>
					</g>
				</g>
			</g>
			<g>
				<g>
					<g>
						<path class="st42" d="M950,83.1c0,2.5-2,4.4-4.5,4.4c-2.4,0-4.4-2-4.4-4.4c0-2.4,2-4.4,4.4-4.4C948,78.7,950,80.7,950,83.1z"
							/>
					</g>
				</g>
			</g>
			<g>
				<g>
					<g>
						<path class="st42" d="M964.9,83.1c0,2.5-2,4.4-4.4,4.4c-2.4,0-4.4-2-4.4-4.4c0-2.4,2-4.4,4.4-4.4
							C962.9,78.7,964.9,80.7,964.9,83.1z"/>
					</g>
				</g>
			</g>
		</g>
	</g>
</g>
</svg>
