<?xml version="1.0" encoding="utf-8"?>
<!-- Generator: Adobe Illustrator 23.0.1, SVG Export Plug-In . SVG Version: 6.00 Build 0)  -->
<svg version="1.1" id="Layer_1" xmlns="http://www.w3.org/2000/svg" xmlns:xlink="http://www.w3.org/1999/xlink" x="0px" y="0px"
	 viewBox="0 0 1163.4 825.4" style="enable-background:new 0 0 1163.4 825.4;" xml:space="preserve">
<style type="text/css">
	.st0{fill:#EBF7FF;}
	.st1{opacity:0.1;fill:#404041;}
	.st2{fill:#46C1EC;}
	.st3{fill:#90DAF4;}
	.st4{fill:#006A89;}
	.st5{fill:#FFFFFF;}
	.st6{fill:#0098C3;}
	.st7{fill:#EEF2F7;}
	.st8{fill:#FA7E8D;}
	.st9{opacity:0.2;fill:#006A89;}
	.st10{fill:#46C1EC;stroke:#46C1EC;stroke-width:2;stroke-linecap:round;stroke-linejoin:round;stroke-miterlimit:10;}
</style>
<path class="st0" d="M638.6,121.7c-171.4,13.6-156.1-98.2-242.4-79.4c-82.4,18-68.1,135.2-135.9,191.3
	c-84.5,69.9-140.7,10.2-212,72.6c-72,63-52,209.8-14.3,296.9c45.1,104,144.9,190.5,256.7,205.5c118.3,15.9,139-63.2,282.3-71.4
	c184.1-10.5,234.5,115.1,373.6,82.8c129.1-30,235.8-173,213.9-262.6c-16.4-67.4-96.9-68.9-108.4-137
	c-14.9-88.2,112.3-129.6,105.5-219.8C1151,112.1,979.1,16.3,869.1,0.8C787-10.8,785.5,110.1,638.6,121.7z"/>
<g>
	<ellipse class="st1" cx="653.5" cy="685" rx="346.4" ry="21.1"/>
	<ellipse class="st1" cx="300.7" cy="755.3" rx="145" ry="15.5"/>
	<ellipse class="st1" cx="966" cy="750.4" rx="88.3" ry="12.1"/>
</g>
<g id="monitor_1_">
	<path class="st2" d="M762.6,658H545.3c0,0,42.7-41.9,36.7-72.5h143.9C720.5,635.5,762.6,658,762.6,658z"/>
	<path class="st3" d="M976,585.4H332c-13.2,0-24-10.7-24-24V127.9c0-13.2,10.7-24,24-24h644c13.2,0,24,10.7,24,24v433.6
		C999.9,574.7,989.2,585.4,976,585.4z"/>
	<path class="st4" d="M762.6,685.1H545.3c-2.6,0-4.8-2.1-4.8-4.8v-17.5c0-2.6,2.1-4.8,4.8-4.8h217.3c2.6,0,4.8,2.1,4.8,4.8v17.5
		C767.4,682.9,765.3,685.1,762.6,685.1z"/>
	<path class="st5" d="M969,550.7H339c-1.3,0-2.4-1.1-2.4-2.4V141.1c0-1.3,1.1-2.4,2.4-2.4h630c1.3,0,2.4,1.1,2.4,2.4v407.2
		C971.4,549.6,970.3,550.7,969,550.7z"/>
	<g>
		<path class="st5" d="M951,196.7H354.5c-2.6,0-4.8-2.1-4.8-4.8v-35.4c0-2.6,2.1-4.8,4.8-4.8H951c2.6,0,4.8,2.1,4.8,4.8V192
			C955.8,194.6,953.6,196.7,951,196.7z"/>
		<g>
			<path class="st6" d="M621.9,180.6h-66.1c-2.8,0-5-2.2-5-5v0c0-2.8,2.2-5,5-5h66.1c2.8,0,5,2.2,5,5v0
				C626.9,178.3,624.7,180.6,621.9,180.6z"/>
			<g>
				<g>
					<path class="st7" d="M727.2,180.8h-66.1c-2.8,0-5-2.2-5-5l0,0c0-2.8,2.2-5,5-5h66.1c2.8,0,5,2.2,5,5l0,0
						C732.2,178.5,730,180.8,727.2,180.8z"/>
				</g>
			</g>
			<g>
				<g>
					<path class="st7" d="M516.6,180.8h-66.1c-2.8,0-5-2.2-5-5l0,0c0-2.8,2.2-5,5-5h66.1c2.8,0,5,2.2,5,5l0,0
						C521.6,178.5,519.3,180.8,516.6,180.8z"/>
				</g>
			</g>
			<g>
				<g>
					<path class="st7" d="M832.6,180.8h-66.1c-2.8,0-5-2.2-5-5l0,0c0-2.8,2.2-5,5-5h66.1c2.8,0,5,2.2,5,5l0,0
						C837.6,178.5,835.3,180.8,832.6,180.8z"/>
				</g>
			</g>
			<g>
				<g>
					<path class="st7" d="M937.9,179.8h-66.1c-2.8,0-5-2.2-5-5l0,0c0-2.8,2.2-5,5-5h66.1c2.8,0,5,2.2,5,5l0,0
						C942.9,177.6,940.7,179.8,937.9,179.8z"/>
				</g>
			</g>
		</g>
		<path class="st8" d="M376.1,188L376.1,188c-7.6,0-13.8-6.2-13.8-13.8l0,0c0-7.6,6.2-13.8,13.8-13.8l0,0c7.6,0,13.8,6.2,13.8,13.8
			l0,0C389.9,181.8,383.7,188,376.1,188z"/>
		<g>
			<path class="st5" d="M535,537.8H355c-3.3,0-6-2.7-6-6V365.7c0-3.3,2.7-6,6-6h180c3.3,0,6,2.7,6,6v166.1
				C541,535.1,538.3,537.8,535,537.8z"/>
			<path class="st7" d="M526.2,487.3H365.3c-2.1,0-3.8-1.7-3.8-3.8v-1.1c0-2.1,1.7-3.8,3.8-3.8h160.9c2.1,0,3.8,1.7,3.8,3.8v1.1
				C530,485.6,528.3,487.3,526.2,487.3z"/>
			<path class="st7" d="M526.2,504.1H365.3c-2.1,0-3.8-1.7-3.8-3.8v-1.1c0-2.1,1.7-3.8,3.8-3.8h160.9c2.1,0,3.8,1.7,3.8,3.8v1.1
				C530,502.4,528.3,504.1,526.2,504.1z"/>
			<path class="st7" d="M434.7,521h-69.4c-2.1,0-3.8-1.7-3.8-3.8v-1.1c0-2.1,1.7-3.8,3.8-3.8h69.4c2.1,0,3.8,1.7,3.8,3.8v1.1
				C438.5,519.3,436.8,521,434.7,521z"/>
			<path class="st6" d="M523.9,462.9H367.6c-3.3,0-6-2.7-6-6v-75.4c0-3.3,2.7-6,6-6h156.4c3.3,0,6,2.7,6,6v75.4
				C529.9,460.2,527.2,462.9,523.9,462.9z"/>
		</g>
		<g>
			<path class="st5" d="M740.3,537.8H562c-3.8,0-6.9-3.1-6.9-6.9V366.6c0-3.8,3.1-6.9,6.9-6.9h178.3c3.8,0,6.9,3.1,6.9,6.9v164.3
				C747.2,534.7,744.1,537.8,740.3,537.8z"/>
			<path class="st7" d="M732.4,487.3H571.5c-2.1,0-3.8-1.7-3.8-3.8v-1.1c0-2.1,1.7-3.8,3.8-3.8h160.9c2.1,0,3.8,1.7,3.8,3.8v1.1
				C736.1,485.6,734.5,487.3,732.4,487.3z"/>
			<path class="st7" d="M732.4,504.1H571.5c-2.1,0-3.8-1.7-3.8-3.8v-1.1c0-2.1,1.7-3.8,3.8-3.8h160.9c2.1,0,3.8,1.7,3.8,3.8v1.1
				C736.1,502.4,734.5,504.1,732.4,504.1z"/>
			<path class="st7" d="M640.9,521h-69.4c-2.1,0-3.8-1.7-3.8-3.8v-1.1c0-2.1,1.7-3.8,3.8-3.8h69.4c2.1,0,3.8,1.7,3.8,3.8v1.1
				C644.7,519.3,643,521,640.9,521z"/>
			<path class="st8" d="M730.1,462.9H573.8c-3.3,0-6-2.7-6-6v-75.4c0-3.3,2.7-6,6-6h156.4c3.3,0,6,2.7,6,6v75.4
				C736.1,460.2,733.4,462.9,730.1,462.9z"/>
		</g>
		<g>
			<path class="st5" d="M948.1,537.8H769.9c-3.8,0-6.9-3.1-6.9-6.9V366.6c0-3.8,3.1-6.9,6.9-6.9h178.3c3.8,0,6.9,3.1,6.9,6.9v164.3
				C955,534.7,951.9,537.8,948.1,537.8z"/>
			<path class="st7" d="M940.2,487.3H779.4c-2.1,0-3.8-1.7-3.8-3.8v-1.1c0-2.1,1.7-3.8,3.8-3.8h160.9c2.1,0,3.8,1.7,3.8,3.8v1.1
				C944,485.6,942.3,487.3,940.2,487.3z"/>
			<path class="st7" d="M940.2,504.1H779.4c-2.1,0-3.8-1.7-3.8-3.8v-1.1c0-2.1,1.7-3.8,3.8-3.8h160.9c2.1,0,3.8,1.7,3.8,3.8v1.1
				C944,502.4,942.3,504.1,940.2,504.1z"/>
			<path class="st7" d="M848.8,521h-69.4c-2.1,0-3.8-1.7-3.8-3.8v-1.1c0-2.1,1.7-3.8,3.8-3.8h69.4c2.1,0,3.8,1.7,3.8,3.8v1.1
				C852.5,519.3,850.8,521,848.8,521z"/>
			<path class="st2" d="M938,462.9H781.6c-3.3,0-6-2.7-6-6v-75.4c0-3.3,2.7-6,6-6H938c3.3,0,6,2.7,6,6v75.4
				C944,460.2,941.3,462.9,938,462.9z"/>
		</g>
		<path class="st5" d="M949.3,344.7H355.5c-3.1,0-5.7-2.6-5.7-5.7V216c0-3.1,2.6-5.7,5.7-5.7h593.8c3.1,0,5.7,2.6,5.7,5.7v123
			C955,342.2,952.5,344.7,949.3,344.7z"/>
		<g>
			<g>
				<g>
					<path class="st7" d="M925.4,269.6H706c-1.8,0-3.2-1.4-3.2-3.2l0,0c0-1.8,1.4-3.2,3.2-3.2h219.4c1.8,0,3.2,1.4,3.2,3.2l0,0
						C928.6,268.1,927.2,269.6,925.4,269.6z"/>
				</g>
				<g>
					<path class="st7" d="M893.3,285.3H706c-1.8,0-3.2-1.4-3.2-3.2l0,0c0-1.8,1.4-3.2,3.2-3.2h187.3c1.8,0,3.2,1.4,3.2,3.2l0,0
						C896.5,283.8,895,285.3,893.3,285.3z"/>
				</g>
			</g>
			<g>
				<path class="st6" d="M885.6,246.9H745.8c-3.4,0-6.2-2.8-6.2-6.2l0,0c0-3.4,2.8-6.2,6.2-6.2h139.9c3.4,0,6.2,2.8,6.2,6.2l0,0
					C891.8,244.2,889.1,246.9,885.6,246.9z"/>
			</g>
			<path class="st8" d="M841.4,323.3H790c-5.7,0-10.3-4.6-10.3-10.3l0,0c0-5.7,4.6-10.3,10.3-10.3h51.4c5.7,0,10.3,4.6,10.3,10.3
				l0,0C851.7,318.7,847.1,323.3,841.4,323.3z"/>
		</g>
		<path class="st2" d="M638.7,331H369.8c-4.8,0-8.7-3.9-8.7-8.7v-89.7c0-4.8,3.9-8.7,8.7-8.7h268.9c4.8,0,8.7,3.9,8.7,8.7v89.7
			C647.3,327.1,643.4,331,638.7,331z"/>
	</g>
	<path class="st9" d="M725.6,598.4H582.1c0,0,0.5-4.6,0.5-6.2c0-3.6-0.6-6.7-0.6-6.7h143.9c0,0-0.5,5.2-0.5,6.7
		S725.6,598.4,725.6,598.4z"/>
</g>
<g id="tablet_1_">
	<path class="st3" d="M423.3,755.5h-240c-6.6,0-12-5.4-12-12v-346c0-6.6,5.4-12,12-12h240c6.6,0,12,5.4,12,12v346
		C435.3,750.2,429.9,755.5,423.3,755.5z"/>
	<path class="st5" d="M413.3,739.5h-220c-4.4,0-8-3.6-8-8v-322c0-4.4,3.6-8,8-8h220c4.4,0,8,3.6,8,8v322
		C421.3,735.9,417.7,739.5,413.3,739.5z"/>
	<circle class="st5" cx="305.1" cy="393.7" r="3"/>
	<g>
		<path class="st5" d="M299.4,739.5H195.2v-81c0-1.9,1.6-3.5,3.5-3.5H296c1.9,0,3.5,1.6,3.5,3.5V739.5z"/>
		<path class="st7" d="M291.3,735.4h-87c-1.2,0-2.2-1-2.2-2.2v-1c0-1.2,1-2.2,2.2-2.2h87c1.2,0,2.2,1,2.2,2.2v1
			C293.5,734.4,292.5,735.4,291.3,735.4z"/>
		<path class="st2" d="M285.5,720.1h-75.4c-4.4,0-8-3.6-8-8v-39c0-4.4,3.6-8,8-8h75.4c4.4,0,8,3.6,8,8v39
			C293.5,716.5,289.9,720.1,285.5,720.1z"/>
	</g>
	<g>
		<path class="st5" d="M411.4,739.5H307.1v-81c0-1.9,1.6-3.5,3.5-3.5h97.3c1.9,0,3.5,1.6,3.5,3.5V739.5z"/>
		<path class="st7" d="M403.2,735.4h-87c-1.2,0-2.2-1-2.2-2.2v-1c0-1.2,1-2.2,2.2-2.2h87c1.2,0,2.2,1,2.2,2.2v1
			C405.4,734.4,404.4,735.4,403.2,735.4z"/>
		<g>
			<g>
				<path class="st2" d="M397.4,720.1H322c-4.4,0-8-3.6-8-8v-39c0-4.4,3.6-8,8-8h75.4c4.4,0,8,3.6,8,8v39
					C405.4,716.5,401.8,720.1,397.4,720.1z"/>
			</g>
		</g>
	</g>
	<path class="st5" d="M407.3,525.4h-208c-2.2,0-4-1.8-4-4V460c0-2.2,1.8-4,4-4h208c2.2,0,4,1.8,4,4v61.5
		C411.3,523.6,409.5,525.4,407.3,525.4z"/>
	<g>
		<path class="st5" d="M295.4,646.6h-96.2c-2.2,0-4-1.8-4-4V538.4c0-2.2,1.8-4,4-4h96.2c2.2,0,4,1.8,4,4v104.2
			C299.4,644.8,297.7,646.6,295.4,646.6z"/>
		<path class="st7" d="M291.3,614.8h-87c-1.2,0-2.2-1-2.2-2.2v-1c0-1.2,1-2.2,2.2-2.2h87c1.2,0,2.2,1,2.2,2.2v1
			C293.5,613.8,292.5,614.8,291.3,614.8z"/>
		<path class="st7" d="M291.3,625.4h-87c-1.2,0-2.2-1-2.2-2.2v-1c0-1.2,1-2.2,2.2-2.2h87c1.2,0,2.2,1,2.2,2.2v1
			C293.5,624.4,292.5,625.4,291.3,625.4z"/>
		<path class="st7" d="M241.6,636h-37.4c-1.2,0-2.2-1-2.2-2.2v-1c0-1.2,1-2.2,2.2-2.2h37.4c1.2,0,2.2,1,2.2,2.2v1
			C243.8,635,242.8,636,241.6,636z"/>
		<path class="st6" d="M285.5,599.4h-75.4c-4.4,0-8-3.6-8-8v-39c0-4.4,3.6-8,8-8h75.4c4.4,0,8,3.6,8,8v39
			C293.5,595.8,289.9,599.4,285.5,599.4z"/>
	</g>
	<g>
		<path class="st5" d="M407.4,646.6h-96.2c-2.2,0-4-1.8-4-4V538.4c0-2.2,1.8-4,4-4h96.2c2.2,0,4,1.8,4,4v104.2
			C411.4,644.8,409.6,646.6,407.4,646.6z"/>
		<path class="st7" d="M403.2,614.8h-87c-1.2,0-2.2-1-2.2-2.2v-1c0-1.2,1-2.2,2.2-2.2h87c1.2,0,2.2,1,2.2,2.2v1
			C405.4,613.8,404.4,614.8,403.2,614.8z"/>
		<path class="st7" d="M403.2,625.4h-87c-1.2,0-2.2-1-2.2-2.2v-1c0-1.2,1-2.2,2.2-2.2h87c1.2,0,2.2,1,2.2,2.2v1
			C405.4,624.4,404.4,625.4,403.2,625.4z"/>
		<path class="st7" d="M353.5,636h-37.4c-1.2,0-2.2-1-2.2-2.2v-1c0-1.2,1-2.2,2.2-2.2h37.4c1.2,0,2.2,1,2.2,2.2v1
			C355.7,635,354.7,636,353.5,636z"/>
		<path class="st8" d="M397.4,599.4H322c-4.4,0-8-3.6-8-8v-39c0-4.4,3.6-8,8-8h75.4c4.4,0,8,3.6,8,8v39
			C405.4,595.8,401.8,599.4,397.4,599.4z"/>
	</g>
	<g>
		<path class="st5" d="M407.3,448H199.2c-2.2,0-4-1.8-4-4v-27.8c0-2.2,1.8-4,4-4h208.1c2.2,0,4,1.8,4,4V444
			C411.3,446.2,409.5,448,407.3,448z"/>
		<path class="st8" d="M215.2,440.9L215.2,440.9c-5.9,0-10.8-4.8-10.8-10.8l0,0c0-5.9,4.8-10.8,10.8-10.8l0,0
			c5.9,0,10.8,4.8,10.8,10.8l0,0C226,436,221.2,440.9,215.2,440.9z"/>
		<g>
			<line class="st10" x1="379.9" y1="436.8" x2="400" y2="436.8"/>
			<line class="st10" x1="379.9" y1="423.4" x2="400" y2="423.4"/>
			<line class="st10" x1="379.9" y1="430.1" x2="400" y2="430.1"/>
		</g>
	</g>
	<g>
		<g>
			<g>
				<path class="st7" d="M396,487h-78.3c-0.6,0-1.1-0.5-1.1-1.1l0,0c0-0.6,0.5-1.1,1.1-1.1H396c0.6,0,1.1,0.5,1.1,1.1l0,0
					C397.1,486.5,396.6,487,396,487z"/>
			</g>
			<g>
				<path class="st7" d="M384.5,492.6h-66.8c-0.6,0-1.1-0.5-1.1-1.1l0,0c0-0.6,0.5-1.1,1.1-1.1h66.8c0.6,0,1.1,0.5,1.1,1.1l0,0
					C385.6,492.1,385.1,492.6,384.5,492.6z"/>
			</g>
		</g>
		<g>
			<path class="st6" d="M381.8,478.9h-49.9c-1.2,0-2.2-1-2.2-2.2l0,0c0-1.2,1-2.2,2.2-2.2h49.9c1.2,0,2.2,1,2.2,2.2l0,0
				C384,477.9,383,478.9,381.8,478.9z"/>
		</g>
		<path class="st8" d="M366,506.2h-18.3c-2,0-3.7-1.7-3.7-3.7l0,0c0-2,1.7-3.7,3.7-3.7H366c2,0,3.7,1.7,3.7,3.7l0,0
			C369.7,504.5,368,506.2,366,506.2z"/>
	</g>
	<path class="st2" d="M290.4,515.4h-80c-3.8,0-7-3.1-7-7V473c0-3.9,3.2-7,7-7h80c3.9,0,7,3.1,7,7v35.4
		C297.4,512.3,294.2,515.4,290.4,515.4z"/>
</g>
<g id="smartphone_1_">
	<g id="phone_1_">
		<path class="st3" d="M1029.6,753.9H903.6c-7,0-12.7-5.7-12.7-12.7v-270c0-7,5.7-12.7,12.7-12.7h126.1c7,0,12.7,5.7,12.7,12.7v270
			C1042.4,748.2,1036.6,753.9,1029.6,753.9z"/>
		<path class="st5" d="M1026.8,736.6H906.3c-3.3,0-5.9-2.6-5.9-5.9V479.8c0-3.3,2.6-5.9,5.9-5.9h120.5c3.3,0,5.9,2.6,5.9,5.9v250.9
			C1032.7,733.9,1030,736.6,1026.8,736.6z"/>
		<path class="st5" d="M977.7,467.7h-22.3c-0.8,0-1.5-0.7-1.5-1.5l0,0c0-0.8,0.7-1.5,1.5-1.5h22.3c0.8,0,1.5,0.7,1.5,1.5l0,0
			C979.2,467,978.5,467.7,977.7,467.7z"/>
	</g>
	<g>
		<path class="st5" d="M1019.8,703.6H913.8c-1.7,0-3-1.3-3-3V586c0-1.7,1.3-3,3-3h105.9c1.7,0,3,1.3,3,3v114.5
			C1022.8,702.2,1021.4,703.6,1019.8,703.6z"/>
		<path class="st7" d="M1014,669.4h-93.5c-1.3,0-2.4-1.1-2.4-2.4v-1.1c0-1.3,1.1-2.4,2.4-2.4h93.5c1.3,0,2.4,1.1,2.4,2.4v1.1
			C1016.3,668.3,1015.3,669.4,1014,669.4z"/>
		<path class="st7" d="M1014,680.8h-93.5c-1.3,0-2.4-1.1-2.4-2.4v-1.1c0-1.3,1.1-2.4,2.4-2.4h93.5c1.3,0,2.4,1.1,2.4,2.4v1.1
			C1016.3,679.7,1015.3,680.8,1014,680.8z"/>
		<path class="st7" d="M960.6,692.2h-40.1c-1.3,0-2.4-1.1-2.4-2.4v-1.1c0-1.3,1.1-2.4,2.4-2.4h40.1c1.3,0,2.4,1.1,2.4,2.4v1.1
			C963,691.1,961.9,692.2,960.6,692.2z"/>
		<path class="st6" d="M1008.3,652.9h-82.2c-4.4,0-8-3.6-8-8v-43.1c0-4.4,3.6-8,8-8h82.2c4.4,0,8,3.6,8,8v43.1
			C1016.3,649.3,1012.7,652.9,1008.3,652.9z"/>
	</g>
	<path class="st5" d="M1019.8,511.7h-106c-1.7,0-3-1.3-3-3v-22c0-1.7,1.3-3,3-3h106c1.7,0,3,1.3,3,3v22
		C1022.8,510.3,1021.4,511.7,1019.8,511.7z"/>
	<path class="st8" d="M925.8,506.7L925.8,506.7c-5,0-9-4-9-9v0c0-5,4-9,9-9h0c5,0,9,4,9,9v0C934.8,502.7,930.7,506.7,925.8,506.7z"
		/>
	<g>
		<line class="st10" x1="999.1" y1="503" x2="1016.2" y2="503"/>
		<line class="st10" x1="999.1" y1="491.7" x2="1016.2" y2="491.7"/>
		<line class="st10" x1="999.1" y1="497.3" x2="1016.2" y2="497.3"/>
	</g>
	<path class="st5" d="M1019.3,573.6h-106c-1.7,0-3-1.3-3-3v-46c0-1.7,1.3-3,3-3h106c1.7,0,3,1.3,3,3v46
		C1022.3,572.3,1021,573.6,1019.3,573.6z"/>
	<g>
		<path class="st5" d="M1022.3,736.6H910.4V718c0-1.7,1.3-3,3-3h105.9c1.7,0,3,1.3,3,3V736.6z"/>
		<path class="st8" d="M1015.9,736.6h-98.2v-2.7c0-4.4,3.6-8,8-8h82.2c4.4,0,8,3.6,8,8V736.6z"/>
	</g>
	<g>
		<g>
			<g>
				<path class="st7" d="M1005.5,544.3h-78.3c-0.6,0-1.1-0.5-1.1-1.1l0,0c0-0.6,0.5-1.1,1.1-1.1h78.3c0.6,0,1.1,0.5,1.1,1.1l0,0
					C1006.6,543.8,1006.1,544.3,1005.5,544.3z"/>
			</g>
			<g>
				<path class="st7" d="M994,549.9h-66.8c-0.6,0-1.1-0.5-1.1-1.1l0,0c0-0.6,0.5-1.1,1.1-1.1H994c0.6,0,1.1,0.5,1.1,1.1l0,0
					C995.1,549.4,994.6,549.9,994,549.9z"/>
			</g>
		</g>
		<g>
			<path class="st6" d="M991.3,536.2h-49.9c-1.2,0-2.2-1-2.2-2.2l0,0c0-1.2,1-2.2,2.2-2.2h49.9c1.2,0,2.2,1,2.2,2.2l0,0
				C993.5,535.2,992.5,536.2,991.3,536.2z"/>
		</g>
		<path class="st8" d="M975.5,563.5h-18.3c-2,0-3.7-1.7-3.7-3.7l0,0c0-2,1.7-3.7,3.7-3.7h18.3c2,0,3.7,1.7,3.7,3.7l0,0
			C979.2,561.8,977.5,563.5,975.5,563.5z"/>
	</g>
</g>
</svg>
